<?xml version="1.0" encoding="utf-8"?>
<svg xmlns="http://www.w3.org/2000/svg" fill="none" height="100%" overflow="visible" preserveAspectRatio="none" style="display: block;" viewBox="0 0 120 120" width="100%">
<g id="A603, Crop, Crop Tool, Designing Tool, Graphic Editor">
<g id="Group">
<path d="M36.2832 0C37.8508 0.000249535 39.1756 1.34703 39.1758 2.89258V11.1299H105.978C107.545 11.1301 108.87 12.477 108.87 14.0225V80.6035H117.106C118.674 80.6036 119.999 81.9284 119.999 83.4961V105.756C119.999 107.545 118.674 108.87 117.106 108.87H108.87V117.107C108.87 118.675 107.545 120 105.978 120H83.7178C82.15 120 80.8244 118.675 80.8242 117.107V108.869H69.9287C69.9168 108.869 69.9046 108.87 69.8926 108.87C69.8805 108.87 69.8685 108.869 69.8564 108.869H61.4717C61.4594 108.869 61.4469 108.87 61.4346 108.87C61.4225 108.87 61.4105 108.869 61.3984 108.869H53.2354C53.2233 108.869 53.2113 108.87 53.1992 108.87C53.1869 108.87 53.1744 108.869 53.1621 108.869H44.7773C44.7653 108.869 44.7533 108.87 44.7412 108.87C44.7289 108.87 44.7164 108.869 44.7041 108.869H14.2432C12.6753 108.869 11.3496 107.544 11.3496 105.977V95.9277C11.2094 95.5917 11.1299 95.2266 11.1299 94.8467C11.1299 94.4664 11.2092 94.1009 11.3496 93.7646V87.4707C11.2094 87.1347 11.1299 86.7696 11.1299 86.3896C11.1299 86.0094 11.2092 85.6438 11.3496 85.3076V79.2334C11.2094 78.8974 11.1299 78.5323 11.1299 78.1523C11.1299 77.7721 11.2091 77.4066 11.3496 77.0703V70.7754C11.2094 70.4394 11.1299 70.0743 11.1299 69.6943C11.1299 69.3141 11.2091 68.9486 11.3496 68.6123V62.5156C11.2094 62.1797 11.1299 61.8144 11.1299 61.4346C11.1299 61.0543 11.2091 60.6888 11.3496 60.3525V54.0576C11.2094 53.7216 11.1299 53.3564 11.1299 52.9766C11.1299 52.5963 11.2091 52.2308 11.3496 51.8945V39.1758H2.89258C1.32496 39.1756 0.000250502 37.8287 0 36.2832V14.0225C0.00024368 12.4548 1.32495 11.1301 2.89258 11.1299H11.1299V2.89258C11.1301 1.32495 12.4548 0.000243856 14.0225 0H36.2832ZM5.78613 33.6104H83.7178C85.2855 33.6106 86.6104 34.9362 86.6104 36.5039V82.8643C86.751 83.1997 86.8301 83.5632 86.8301 83.9385C86.83 84.285 86.75 84.6099 86.6104 84.9063V105.124C86.7509 105.459 86.8301 105.822 86.8301 106.197C86.7909 106.432 86.7151 106.667 86.6104 106.896V114.436H103.305V107.062C103.164 106.725 103.084 106.359 103.084 105.978C103.084 105.596 103.163 105.229 103.305 104.892V84.5811C103.164 84.244 103.084 83.8774 103.084 83.4961C103.084 83.1147 103.163 82.7482 103.305 82.4111V78.1523H97.5186C95.9507 78.1523 94.6261 76.8275 94.626 75.2598C94.626 73.6919 95.9506 72.3662 97.5186 72.3662H103.305V69.915H97.5186C95.9506 69.915 94.626 68.5904 94.626 67.0225C94.626 65.4546 95.9507 64.1299 97.5186 64.1299H103.305V61.4355H97.5186C95.9507 61.4355 94.626 60.0888 94.626 58.543C94.626 56.9971 95.9506 55.6504 97.5186 55.6504H103.305V53.1973H97.5186C95.9506 53.1973 94.626 51.8726 94.626 50.3047C94.6261 48.7369 95.9507 47.4121 97.5186 47.4121H103.305V44.7402H97.5186C95.9506 44.7402 94.626 43.3925 94.626 41.8467C94.6261 40.301 95.9507 38.9541 97.5186 38.9541H103.305V36.5039H97.5186C95.9508 36.5039 94.6262 35.157 94.626 33.6113C94.626 32.0655 95.9506 30.7178 97.5186 30.7178H103.305V28.0459H97.5186C95.9508 28.0459 94.6262 26.699 94.626 25.1533C94.626 23.6075 95.9506 22.2598 97.5186 22.2598H103.305V16.916H56.0918V22.4805C55.871 24.0483 54.767 25.3739 53.1992 25.374C51.6313 25.374 50.3057 24.0263 50.3057 22.4805V16.916H47.6338V22.4805C47.6338 24.0483 46.309 25.3739 44.7412 25.374C43.1733 25.374 41.8477 24.0263 41.8477 22.4805V16.916H39.3955V22.4805C39.1747 24.0484 38.0708 25.374 36.5029 25.374C34.935 25.374 33.6104 24.0263 33.6104 22.4805V16.916H30.9375V22.4805C30.9375 24.0483 29.6128 25.374 28.0449 25.374C26.477 25.374 25.1523 24.0263 25.1523 22.4805V16.916H5.78613V33.6104ZM17.1357 50.084H22.4805C24.0483 50.084 25.3739 51.4088 25.374 52.9766C25.374 54.5445 24.0263 55.8701 22.4805 55.8701H17.1357V58.542H22.4805C24.0483 58.542 25.3739 59.8668 25.374 61.4346C25.374 63.0025 24.0263 64.3281 22.4805 64.3281H17.1357V66.8018H22.4805C24.0483 66.8018 25.3739 68.1265 25.374 69.6943C25.374 71.2622 24.0263 72.5869 22.4805 72.5869H17.1357V75.2598H22.4805C24.0483 75.2598 25.3739 76.5845 25.374 78.1523C25.374 79.7202 24.0263 81.0459 22.4805 81.0459H17.1357V83.4971H22.4805C24.0484 83.4971 25.374 84.8217 25.374 86.3896C25.3739 87.9575 24.0262 89.2822 22.4805 89.2822H17.1357V91.9531H22.4805C24.0484 91.9531 25.374 93.3009 25.374 94.8467C25.374 96.3925 24.0263 97.7393 22.4805 97.7393H17.1357V103.305H41.8477V97.5195C41.8477 95.9516 43.1733 94.627 44.7412 94.627C46.309 94.6271 47.6338 95.9517 47.6338 97.5195V103.305H50.3057V97.5195C50.3057 95.9516 51.6534 94.627 53.1992 94.627C54.7449 94.6271 56.0918 95.9517 56.0918 97.5195V103.305H58.542V97.5195C58.542 95.9517 59.8668 94.6271 61.4346 94.627C63.0025 94.627 64.3281 95.9516 64.3281 97.5195V103.305H67V97.5195C67 95.9517 68.3248 94.6271 69.8926 94.627C71.4605 94.627 72.7861 95.9516 72.7861 97.5195V103.305H80.8242V86.6104H36.5244C36.512 86.6104 36.4997 86.6095 36.4873 86.6094H36.4814L36.4834 86.6084C36.4257 86.6075 36.3685 86.605 36.3115 86.6006C36.1057 86.5867 35.9002 86.5497 35.6934 86.4824C35.654 86.4701 35.6159 86.4544 35.5771 86.4404C35.5494 86.4299 35.5209 86.4208 35.4932 86.4092C34.4172 85.9833 33.6318 84.9232 33.6318 83.7168V39.1758H17.1357V50.084ZM108.87 103.084H114.435V86.3896H108.87V103.084ZM43.1729 81.0449H80.8242V43.3926L43.1729 81.0449ZM39.417 76.8057L77.0469 39.1758H39.417V76.8057ZM16.916 11.1299H33.6104V5.56445H16.916V11.1299Z" fill="var(--fill-0, #006AA6)" id="Union"/>
</g>
</g>
</svg>