<?xml version="1.0" encoding="utf-8"?>
<svg xmlns="http://www.w3.org/2000/svg" fill="none" height="100%" overflow="visible" preserveAspectRatio="none" style="display: block;" viewBox="0 0 106 120" width="100%">
<g id="333, brainstorm, fresh, idea, light, plant">
<g id="Group">
<g id="Vector">
</g>
<g id="Vector_2">
</g>
<g id="Vector_3">
</g>
<g id="Vector_4">
</g>
<g id="Vector_5">
</g>
<g id="Vector_6">
</g>
<g id="Vector_7">
</g>
<g id="Vector_8">
</g>
<g id="Vector_9">
</g>
<path d="M51.8525 0C63.2089 0.000183774 72.2158 9.00785 72.2158 20.3643C72.2158 27.0228 68.8969 33.4875 63.209 37.1953V40.8506C63.6953 41.3196 64.0048 41.9705 64.0049 42.6689V49.3281C63.8107 50.7062 62.8399 51.8708 61.4619 51.8711H54.9961V58.7236H78.292C82.4075 58.7236 85.7275 62.0437 85.7275 66.1592C85.7275 68.1198 84.9505 69.8865 83.5723 71.4395C83.489 71.5345 83.4027 71.625 83.3154 71.7129L74.25 114.885H102.752C104.13 114.885 105.295 116.05 105.295 117.429C105.101 119.001 103.917 119.972 102.752 119.972H34.6328L34.377 119.997C34.1899 120.007 34.008 119.997 33.832 119.972H12.1328C10.7547 119.972 9.59008 118.807 9.58984 117.429C9.58984 116.05 10.7545 114.885 12.1328 114.885H31.0449L22.0039 71.8369C20.3946 70.4746 19.3741 68.4398 19.374 66.1592C19.374 64.1985 20.151 62.4319 21.5293 60.8789C22.9076 59.5007 24.8489 58.7236 26.8096 58.7236H49.9092V51.8711H43.6602C42.2819 51.8711 41.1173 50.7063 41.1172 49.3281V44.3115C40.7327 43.8647 40.4962 43.2895 40.4961 42.6699V37.1953C35.0217 33.4681 31.4883 27.2169 31.4883 20.3643C31.4883 9.20186 40.496 0 51.8525 0ZM28.3867 78.292H63.5957C64.9738 78.2921 66.1385 79.4568 66.1387 80.835C66.1387 82.2132 64.7604 83.3779 63.5957 83.3779H29.4639L36.1367 114.885H68.7598L70.834 105.295H51.2881C49.91 105.295 48.7451 104.13 48.7451 102.752C48.7452 101.374 49.91 100.209 51.2881 100.209H71.9336L77.6904 73.5938H27.3916L28.3867 78.292ZM70.8379 78.292C71.4202 78.292 72.2162 78.6802 72.6045 79.0684C72.9927 79.4565 73.3807 80.2526 73.3809 80.835C73.3809 81.4173 73.1867 82.2133 72.6045 82.6016C72.2162 82.9898 71.4397 83.3779 70.8379 83.3779C70.2361 83.3779 69.4595 83.1839 69.0713 82.6016C68.6831 82.2132 68.2949 81.4173 68.2949 80.835C68.295 80.2526 68.489 79.4565 69.0713 79.0684C69.4596 78.6802 70.2556 78.292 70.8379 78.292ZM26.8096 63.4219C26.2273 63.4219 25.6253 63.6161 25.043 64.1982C24.6547 64.5865 24.2656 65.1689 24.2656 65.9648C24.2656 67.2443 25.2701 68.3378 26.5166 68.4883H78.585C79.0746 68.4298 79.5735 68.2166 80.0586 67.7314C80.4468 67.3432 80.835 66.7608 80.835 65.9648C80.8349 64.5866 79.6509 63.4219 78.292 63.4219H53.7686C53.3795 63.6657 52.9269 63.8096 52.4521 63.8096C51.9707 63.8095 51.5167 63.6656 51.1279 63.4219H26.8096ZM20.9268 36.8066C23.4698 36.8068 26.5953 37.7775 29.5459 39.5439C35.622 43.0577 38.3589 48.5517 36.2041 52.0654C35.2335 53.8318 33.273 54.8026 30.5361 54.8027C27.993 54.8027 24.8668 53.832 21.916 52.0654C15.8399 48.5517 13.103 43.0576 15.2578 39.5439C16.2285 37.7774 18.3837 36.8066 20.9268 36.8066ZM83.9795 36.8066C86.542 36.8066 88.6778 37.7774 89.6484 39.5439C91.8032 43.0577 88.8713 48.5517 82.9893 52.0654C80.058 53.8319 76.9131 54.8027 74.3701 54.8027C71.8273 54.8027 69.6729 53.8318 68.7021 52.0654C66.5473 48.5517 69.4783 43.0577 75.3603 39.5439C78.2916 37.7774 81.417 36.8067 83.9795 36.8066ZM20.9268 41.6992C19.9563 41.6992 19.548 41.8928 19.5478 42.0869C19.5478 42.281 19.5485 42.8637 20.1309 44.0479C21.1015 45.4261 22.674 46.9788 24.4404 47.9688C26.5952 49.1529 28.7501 49.9297 30.5166 49.9297C31.4863 49.9296 31.8939 49.736 31.8945 49.542C31.8945 49.3479 31.8948 48.7651 31.3125 47.5811C30.3419 46.2028 28.7694 44.6492 27.0029 43.6592C24.8483 42.4751 22.6932 41.6994 20.9268 41.6992ZM83.96 41.6992C82.1934 41.6993 80.0385 42.4751 77.8838 43.6592C75.9231 44.8239 74.3701 46.2028 73.5742 47.5811C72.9919 48.5516 72.7981 49.3479 72.9922 49.542C73.008 49.5524 73.5853 49.9296 74.3701 49.9297C76.1367 49.9297 78.2915 49.1529 80.4463 47.9688C82.4069 46.804 83.9599 45.4261 84.7559 44.0479C85.3382 43.0774 85.5328 42.2812 85.3389 42.0869C85.5324 41.8929 84.9497 41.6992 83.96 41.6992ZM45.9893 46.9785H58.8994V45.2119H52.4697C52.464 45.212 52.4579 45.2129 52.4521 45.2129C52.446 45.2129 52.4398 45.212 52.4336 45.2119H45.9893V46.9785ZM52.2598 4.8916C43.6599 4.89164 36.7881 11.7449 36.7881 20.3447C36.7881 25.8191 39.7191 30.9055 44.417 33.6621C45.1934 34.0503 45.5819 34.8265 45.582 35.8164V40.126H49.9092V22.9072H47.9502C46.572 22.9072 45.4074 21.7424 45.4072 20.3643C45.4072 18.9859 46.5719 17.8213 47.9502 17.8213H56.9561C58.3344 17.8213 59.499 19.0054 59.499 20.3643C59.4989 21.723 58.3343 22.9072 56.9561 22.9072H54.9961V40.126H58.9189V35.8164C58.9191 35.04 59.3068 34.0504 60.083 33.6621C64.7809 30.9249 67.7129 25.8385 67.7129 20.3447C67.7129 11.9195 60.8597 4.8916 52.2598 4.8916Z" fill="var(--fill-0, #006AA6)" id="Union"/>
</g>
</g>
</svg>