<svg width="166" height="40" fill="none" xmlns="http://www.w3.org/2000/svg"><path fill-rule="evenodd" clip-rule="evenodd" d="m5.282 31.813 2.73-7.155 2.603 7.155H5.282Zm7.986 7.21h2.502L9.275 21.8H6.799L0 39.023h2.528l1.996-5.279h6.8l1.944 5.279Zm7.944-5.948c-2.32-.484-4.714-1.013-4.714-3.714 0-2.371 2.077-3.866 5.215-3.866 2.03 0 3.97.73 4.936 2.513l-2.11.85c-.17-.476-1.262-1.676-3.085-1.676-1.786 0-2.68 1.021-2.68 1.904 0 1.24 1.698 1.756 3.148 2.038 2.998.583 5.606 1.323 5.606 4.052 0 2.122-1.951 4.113-5.68 4.113-2.745 0-4.695-.886-5.632-2.736l2.406-.406c.605 1.016 1.697 1.454 3.325 1.454 2.018 0 3.199-.743 3.199-2.15 0-1.488-1.938-1.959-3.934-2.376Zm11.315-7.182h2.465v1.831h-2.465v7.45c0 1.546 0 2.208.974 2.208.43 0 1.033-.166 1.491-.303v1.814c-.401.054-1.348.219-2.209.219-2.636 0-2.636-1.235-2.607-2.943v-8.444h-2.15v-1.832h2.15v-3.128l2.351-.945v4.073Zm6.796.032v2.344c1.288-2.472 3.726-2.53 4.644-2.557v2.27c-2.236.015-3.333.457-4.07 1.617-.606.948-.574 2.278-.574 3.404v6.02h-2.277V25.925h2.277Zm30.962-4.123v2.148L60.187 36.956h10.351v2.067H57.43v-2.238l10.148-12.86h-10.14v-2.123h12.847Zm16.801 4.214v1.902c1.266-2.138 3.425-2.332 4.23-2.332 1.727 0 3.796.833 4.456 2.995.231.774.231 1.575.231 2.68v7.76h-2.27v-7.4c0-1.328 0-1.714-.144-2.155-.402-1.245-1.668-1.796-2.906-1.796-1.007 0-1.87.302-2.591.993-1.007.966-1.007 1.96-1.007 2.93v7.429h-2.278V26.016h2.28Zm35.101 10.688c-.849 1.288-2.393 2.584-5.171 2.584-4.795 0-6.606-3.566-6.606-6.77 0-3.703 2.087-7.058 6.405-7.058 1.695 0 4.068.492 5.381 2.603l-2.133.86c-.404-.856-1.272-1.848-3.162-1.848-3.741 0-3.961 4.115-3.961 5.278 0 4.314 2.57 5.248 4.103 5.248 1.757 0 2.655-.815 3.129-1.71l2.015.813Zm-48.378-5.57h7.196c-.201-3.427-2.247-4.005-3.61-4.005-1.95 0-3.328 1.38-3.586 4.004Zm9.07 5.4c-.778 1.275-2.275 2.738-5.229 2.738-4.006 0-6.31-2.627-6.31-7.03 0-4.921 3.363-6.802 6.225-6.802 2.488 0 4.873 1.327 5.675 4.615.259 1.106.259 2.103.259 2.657h-9.746c-.058 2.187.893 4.956 4.098 4.9 1.307-.02 2.229-.592 2.816-1.491l2.212.414Zm16.814-5.4h7.196c-.201-3.427-2.246-4.005-3.612-4.005-1.945 0-3.326 1.38-3.584 4.004Zm9.07 5.4c-.777 1.275-2.274 2.738-5.228 2.738-4.005 0-6.31-2.627-6.31-7.03 0-4.921 3.363-6.802 6.225-6.802 2.488 0 4.871 1.327 5.675 4.615.257 1.106.257 2.103.257 2.657h-9.746c-.057 2.187.896 4.956 4.098 4.9 1.307-.02 2.231-.592 2.816-1.491l2.213.414Zm25.868 2.503-2.367.009s-.206-.924-.271-1.931c-.688.69-1.964 2.116-4.542 2.116-2.637 0-4.593-1.51-4.593-3.722 0-.693.201-1.384.603-1.967.778-1.108 2.215-1.993 6.254-2.298l2.146-.165v-.332c0-1.357 0-3.625-3.025-3.625-1.904 0-2.553.89-2.772 1.694l-2.097-.843c.032-.07.071-.142.111-.216.806-1.439 2.385-2.325 4.67-2.325 1.258 0 2.886.306 3.947 1.108 1.511 1.105 1.475 3.281 1.475 3.281l.091 6.717s.081 1.952.37 2.5Zm-3.113-3.61c.343-.72.373-1.024.373-2.937-.885.14-2.085.303-3.552.611-2.522.524-2.951 1.44-2.951 2.354 0 1.052.859 1.938 2.55 1.938 1.577-.001 2.923-.61 3.58-1.967Zm-75.695 3.61-2.367.009s-.207-.924-.271-1.931c-.689.69-1.963 2.116-4.541 2.116-2.638 0-4.594-1.51-4.594-3.722 0-.693.201-1.384.604-1.967.777-1.108 2.214-1.993 6.252-2.298l2.15-.165v-.332c0-1.357 0-3.625-3.029-3.625-1.904 0-2.55.89-2.773 1.694l-2.096-.843c.035-.07.071-.142.112-.216.806-1.439 2.386-2.325 4.67-2.325 1.257 0 2.887.306 3.947 1.108 1.511 1.105 1.475 3.281 1.475 3.281l.09 6.717s.08 1.952.371 2.5Zm-3.113-3.61c.345-.72.373-1.024.373-2.937-.884.14-2.085.303-3.551.611-2.52.524-2.95 1.44-2.95 2.354 0 1.052.859 1.938 2.55 1.938 1.573-.001 2.92-.61 3.578-1.967Z" fill="#7A074B"/><path fill-rule="evenodd" clip-rule="evenodd" d="M165.745 20.894c-.009-.08-.018-.16-.039-.238a3.555 3.555 0 0 0-.151-.47 3.635 3.635 0 0 0-.241-.47 5.554 5.554 0 0 0-.329-.483 2.411 2.411 0 0 0-.229-.258 2.955 2.955 0 0 0-.288-.26c-.233-.177-.463-.358-.716-.508-.553-.328-1.104-.668-1.698-.92-.717-.305-1.412-.666-2.151-.914l-4.986-1.67c0-.915.028-1.83 0-2.746a81.291 81.291 0 0 0-.206-4.07 35.565 35.565 0 0 0-.347-2.815c-.119-.729-.298-1.447-.466-2.167-.037-.165-.096-.325-.152-.484a5.901 5.901 0 0 0-.348-.8 3.564 3.564 0 0 0-.593-.833 3.182 3.182 0 0 0-.207-.197 2.553 2.553 0 0 0-.407-.287 1.49 1.49 0 0 0-.2-.098 3.219 3.219 0 0 0-.367-.128 2.465 2.465 0 0 0-.558-.076c-.137-.002-.275-.005-.411.004-.145.01-.289.029-.432.056a3.566 3.566 0 0 0-.918.298 7.324 7.324 0 0 0-.977.59c-.278.202-.562.398-.814.627a101.429 101.429 0 0 0-3.063 2.892 25.524 25.524 0 0 0-1.533 1.632c-1.921 2.244-3.833 4.497-5.68 6.798-.82 1.02-1.559 2.1-2.318 3.163-.19.266-.368.54-.53.822-.283.493-.553.992-.812 1.497a3.56 3.56 0 0 0-.172.407 4.054 4.054 0 0 0-.132.4 2.852 2.852 0 0 0-.077.389 2.11 2.11 0 0 0-.008.364 1 1 0 0 0 .13.357c.036.062.079.121.125.177.049.061.1.121.157.176.124.117.248.232.382.338.138.11.279.214.429.308.259.164.527.316.794.468.117.065.24.121.36.182a5.94 5.94 0 0 0-.141-.074l.02.01.199.1c1.641.828 3.288 1.643 4.922 2.484a250.56 250.56 0 0 1 4.907 2.573l3.648 1.979c-1.266.925-2.557 1.819-3.799 2.774-.47.37-.919.764-1.343 1.182-.349.337-.679.69-.989 1.061a9.962 9.962 0 0 0-.685.927c-.165.25-.31.515-.442.783a5.293 5.293 0 0 0-.248.63 3.482 3.482 0 0 0-.11.46c-.018.094-.022.192-.027.287-.002.031.004.065.005.096.002.087-.003.172.002.26a2.041 2.041 0 0 0 .355 1.046c.084.11.169.22.27.318.099.098.21.186.324.267.116.082.239.156.365.22.128.069.261.126.395.18.133.052.269.111.41.14.509.108 1.022.208 1.539.277.254.031.512.047.767.026a34.871 34.871 0 0 0 2.635-.285 52.52 52.52 0 0 0 3.041-.575c1.19-.248 2.376-.52 3.554-.817.833-.21 1.68-.398 2.478-.711.628-.248 1.262-.483 1.885-.744.14-.056.272-.131.403-.206.119-.067.236-.14.348-.216.098-.069.195-.139.283-.22.074-.067.143-.143.203-.223.099-.13.169-.279.205-.436a.917.917 0 0 0 .002-.41 1.225 1.225 0 0 0-.149-.372 1.744 1.744 0 0 0-.244-.326c-.092-.093-.184-.187-.284-.272a3.245 3.245 0 0 0-.27-.202 4.871 4.871 0 0 0-.282-.175c-.649-.379-1.296-.764-1.949-1.136l-2.739-1.561c1.663-1.089 3.342-2.158 4.989-3.269a36.726 36.726 0 0 0 2.065-1.486c.569-.45 1.12-.921 1.652-1.412.253-.232.48-.49.709-.744.105-.116.201-.239.293-.364.085-.114.17-.228.235-.353.215-.41.426-.823.605-1.25.072-.173.102-.361.141-.543a2.606 2.606 0 0 0 .044-.508 2.466 2.466 0 0 0-.018-.243Zm-20.441-10.803c.926-.932 1.86-1.856 2.803-2.772.171-.167.363-.316.547-.471.065-.054.132-.106.2-.156.052-.039.105-.08.16-.113a.873.873 0 0 1 .269-.105.794.794 0 0 1 .156-.006.326.326 0 0 1 .08.016c.09.03.17.083.23.154.027.03.051.06.073.093.025.037.051.076.068.118.044.114.085.229.115.346.043.17.078.34.105.512.066.421.129.843.179 1.265.062.548.109 1.098.162 1.646l.281 2.919-3.37-.749-3.144-.5-.761-.056-.247-.006c.697-.712 1.389-1.429 2.094-2.135Zm-2.113 4.059.012-.018.017-.01.027-.002.039.006.118.032.305.113.415.177 3.212 1.326c.71.292 1.421.581 2.129.874l1.402.578.126.055c.075 1.07.166 2.139.226 3.209.045.836.065 1.674.086 2.511.002.105-.007.211-.014.317a2.11 2.11 0 0 1-.02.177c-.018.117-.053.231-.104.338a.93.93 0 0 1-.104.142c-.02.022-.045.04-.068.058a.731.731 0 0 1-.081.052.808.808 0 0 1-.34.081 1.04 1.04 0 0 1-.293-.034 1.098 1.098 0 0 1-.156-.046 3.14 3.14 0 0 1-.319-.148 3.444 3.444 0 0 1-.34-.214 5.105 5.105 0 0 1-.347-.273 5.17 5.17 0 0 1-.354-.324c-.244-.25-.48-.507-.707-.771-.406-.48-.828-.95-1.186-1.466-.492-.71-.998-1.411-1.477-2.129-.284-.43-.579-.856-.818-1.312l-1.081-2.07-.234-.659-.052-.197-.033-.188-.001-.137.015-.048Zm11.954 18.336c.29.18.585.354.872.537.37.235.743.47 1.103.721.258.18.505.376.749.575.109.089.211.186.308.286.079.084.148.175.218.264.004.005.005.015.004.021a.186.186 0 0 1-.006.047.056.056 0 0 1-.019.025.094.094 0 0 1-.034.023.573.573 0 0 1-.131.026c-1.422.103-2.845.197-4.264.305l-5.553.421-.173.01.08-.084.35-.297c.72-.517 1.417-1.066 2.16-1.55l3.143-2.06 1.193.73Zm4.277-10.55a.861.861 0 0 1-.162.293c-.095.11-.196.213-.304.311-.232.205-.46.414-.716.589-.884.603-1.756 1.222-2.65 1.811-.614.406-1.248.786-1.875 1.176l-3.649 2.262a530.28 530.28 0 0 0-1.549-.859l-6.606-3.644c-1.493-.86-2.993-1.706-4.475-2.582-.279-.165-.541-.356-.808-.54-.086-.058-.165-.125-.245-.187-.026-.02-.054-.035-.078-.056a2.188 2.188 0 0 1-.166-.156.83.83 0 0 1-.197-.378.617.617 0 0 1 .044-.32c.022-.056.048-.113.081-.166a3.143 3.143 0 0 1 .51-.642c.854-.848 1.719-1.684 2.577-2.528l2.312-2.277.11.368.282.646.019.04c.611 1.022 1.185 2.067 1.834 3.068.745 1.151 1.544 2.269 2.344 3.385.375.523.767 1.035 1.179 1.53.359.433.731.858 1.134 1.252.353.347.741.664 1.134.968.196.151.414.272.629.397.297.163.619.282.953.35.27.056.548.065.821.028.218-.032.43-.102.622-.206.056-.031.115-.063.167-.101.097-.069.19-.143.278-.223.076-.068.143-.143.206-.223.079-.1.15-.206.217-.313.172-.28.314-.576.423-.884.115-.34.225-.68.312-1.027.118-.47.249-.94.302-1.419l.298-2.781c.684.308 1.382.586 2.05.922.653.328 1.278.708 1.911 1.071.074.043.144.093.21.146.094.075.185.155.27.24.089.088.16.192.211.305a.954.954 0 0 1 .049.173c.004.03.005.059.002.088a.359.359 0 0 1-.011.093Z" fill="#F2C553"/></svg>