<?xml version="1.0" encoding="utf-8"?>
<svg xmlns="http://www.w3.org/2000/svg" fill="none" height="100%" overflow="visible" preserveAspectRatio="none" style="display: block;" viewBox="0 0 1487 1738" width="100%">
<g id="Vector" style="mix-blend-mode:screen">
<path d="M737.995 0.5C738.29 0.500036 738.576 0.559175 738.953 0.619141V0.620117C738.958 0.621124 738.964 0.621121 738.969 0.62207C738.97 0.622325 738.972 0.622792 738.974 0.623047V0.62207C739.098 0.644962 739.221 0.652987 739.289 0.658203C739.377 0.664959 739.412 0.671061 739.432 0.677734L739.453 0.68457L739.475 0.69043C739.724 0.748901 739.972 0.879382 740.322 1.04395L740.335 1.05078L740.349 1.05566C740.59 1.1521 740.698 1.17861 740.829 1.25098L740.942 1.31348H740.955L1483.69 434.622L1483.69 434.623C1485.43 435.624 1486.5 437.493 1486.5 439.497V598.096C1486.5 599.929 1485.6 601.662 1484.08 602.715L1484.08 602.716C1483.11 603.394 1481.97 603.734 1480.83 603.734C1480.33 603.734 1479.84 603.667 1479.35 603.538L1478.9 603.376L738.759 335.015L738.54 334.936L738.339 335.051L363.188 550.454L362.257 550.988L363.265 551.357L1482.77 961.008V961.009C1482.8 961.022 1482.84 961.043 1482.91 961.079C1482.96 961.11 1483.05 961.165 1483.14 961.21L1483.15 961.215L1483.16 961.22C1483.27 961.268 1483.39 961.305 1483.46 961.33C1483.55 961.359 1483.6 961.38 1483.64 961.403L1483.66 961.413C1483.67 961.415 1483.68 961.422 1483.71 961.451C1483.74 961.477 1483.81 961.536 1483.89 961.591V961.592C1484.1 961.742 1484.28 961.876 1484.44 962.021L1484.45 962.027L1484.45 962.032C1484.69 962.228 1484.88 962.411 1485.06 962.62L1485.07 962.626L1485.07 962.632C1485.23 962.803 1485.36 962.966 1485.47 963.139L1485.47 963.15L1485.48 963.161C1485.64 963.386 1485.78 963.634 1485.9 963.896L1485.9 963.908C1486.01 964.11 1486.09 964.31 1486.16 964.508L1486.16 964.525C1486.25 964.771 1486.3 965.039 1486.36 965.361V965.36C1486.37 965.427 1486.38 965.485 1486.4 965.53C1486.41 965.576 1486.43 965.63 1486.44 965.656C1486.46 965.728 1486.46 965.741 1486.46 965.736V965.798L1486.47 965.83V965.832C1486.47 965.839 1486.47 965.848 1486.47 965.858C1486.47 965.868 1486.47 965.882 1486.47 965.895C1486.47 965.921 1486.46 965.956 1486.46 965.995C1486.46 966.099 1486.48 966.195 1486.49 966.232C1486.5 966.287 1486.5 966.284 1486.5 966.272V1294.38C1486.5 1296.24 1485.57 1297.99 1484.04 1299.04L1483.72 1299.24L746.483 1736.67H746.389L746.279 1736.78C746.035 1736.91 745.758 1737.01 745.437 1737.12C745.326 1737.16 745.221 1737.2 745.142 1737.24C745.062 1737.27 745.003 1737.3 744.951 1737.32C744.474 1737.43 743.985 1737.5 743.5 1737.5C742.996 1737.5 742.507 1737.45 742.043 1737.32L742.028 1737.31L742.014 1737.31L741.869 1737.25C741.836 1737.23 741.789 1737.21 741.736 1737.19L741.563 1737.12C741.245 1737.01 740.971 1736.91 740.729 1736.78C740.708 1736.77 740.691 1736.76 740.683 1736.75C740.679 1736.75 740.675 1736.75 740.672 1736.75C740.627 1736.72 740.582 1736.7 740.546 1736.68L3.27637 1299.24C1.5556 1298.22 0.5 1296.37 0.5 1294.38V1126.68L0.510742 1126.34C0.615609 1124.62 1.49757 1123.03 2.91699 1122.05C4.33586 1121.06 6.11691 1120.79 7.78516 1121.28L8.11719 1121.38L742.735 1390.17L742.956 1390.25L743.159 1390.13L1126.1 1166.72L1127.02 1166.18L1126.01 1165.82L4.26562 763.805H4.26367C2.01789 763.007 0.518755 760.867 0.518555 758.488V426.738C0.518564 426.508 0.563108 426.316 0.606445 426.014L0.605469 426.013C0.62554 425.905 0.637252 425.806 0.645508 425.728C0.655061 425.637 0.66249 425.571 0.675781 425.505L0.674805 425.504C0.777477 425.029 0.930546 424.594 1.14746 424.178L1.14648 424.177C1.16611 424.141 1.17903 424.108 1.18848 424.08C1.40152 423.665 1.68024 423.287 2.01953 422.915L2.0293 422.903C2.05428 422.874 2.08931 422.843 2.15527 422.788C2.20946 422.743 2.29312 422.674 2.37402 422.596L2.375 422.597C2.60091 422.392 2.75303 422.238 2.9502 422.091L2.97852 422.069L2.98535 422.062H2.9873C2.99396 422.058 3.00144 422.055 3.0127 422.05C3.02308 422.045 3.03791 422.038 3.05273 422.031C3.07522 422.021 3.10205 422.005 3.13281 421.988L3.13379 421.99C3.1377 421.988 3.14065 421.984 3.14453 421.982C3.15157 421.978 3.15973 421.976 3.16699 421.972L3.16504 421.97C3.25127 421.921 3.32621 421.86 3.35938 421.831C3.37189 421.82 3.38316 421.809 3.39355 421.8L735.179 1.25098C735.309 1.17852 735.417 1.15219 735.659 1.05566L735.673 1.05078L735.687 1.04395C736.018 0.888267 736.27 0.76398 736.553 0.685547L736.559 0.683594C736.951 0.569407 737.367 0.518555 737.791 0.518555C737.868 0.518546 737.934 0.508151 737.964 0.503906C737.997 0.499128 737.998 0.499963 737.995 0.5ZM746.595 1737.05V1737.09L746.596 1737.09V1736.95L746.595 1737.05ZM1474.38 976.604L1144.5 1170.28C1143.61 1170.79 1142.62 1171.06 1141.62 1171.06C1141.63 1171.06 1141.64 1171.06 1141.57 1171.05C1141.53 1171.04 1141.41 1171.01 1141.28 1171.01H1141.15L1141.03 1171.07L749.402 1399.57L749.154 1399.71V1720.75L748.828 1720.94L749.281 1721.4L749.3 1721.42L750.154 1722.27V1721.32L1474.89 1291.31L1475.14 1291.17V976.161L1474.38 976.604ZM11.8262 754.513L12.1582 754.632L1139.52 1158.64L1139.74 1158.72L1139.94 1158.61L1466.66 967.999L1467.58 967.463L1466.58 967.098L12.498 435.07L11.8262 434.825V754.513ZM731.573 16.3193L20.5479 424.992L19.6084 425.532L20.6299 425.896L351.498 543.926L351.715 544.003L351.915 543.888L732.071 325.601L732.322 325.456V15.8887L731.573 16.3193ZM737.827 1400.41L737.499 1400.29L12.498 1135.03L11.8262 1134.79V1291.19L12.0713 1291.33L737.072 1721.47L737.827 1721.92V1400.41ZM1475.16 442.724L1474.91 442.579L744.4 16.4131L743.648 15.9746V324.777L743.979 324.897L1474.48 589.764L1474.65 589.312H1475.16V442.724Z" stroke="var(--stroke-0, #0C141A)"/>
</g>
</svg>