<?xml version="1.0" encoding="utf-8"?>
<svg xmlns="http://www.w3.org/2000/svg" fill="none" height="100%" overflow="visible" preserveAspectRatio="none" style="display: block;" viewBox="0 0 116 120" width="100%">
<g id="342, Idea, Bulb, light, 3d, drawing">
<g id="Group">
<path d="M97.0682 102.187C100.135 102.187 102.593 103.832 103.832 106.493C104.238 107.509 104.644 108.747 104.644 109.966C104.644 114.272 101.171 117.542 97.0682 117.542C93.595 117.542 90.7107 115.288 89.6952 112.221C89.492 111.408 89.2889 110.779 89.2889 109.966C89.2889 105.66 92.7622 102.187 97.0682 102.187Z" fill="var(--fill-0, #F2F2F2)" id="Vector"/>
<path d="M17.8131 99.9322C22.1192 99.9322 25.3893 103.406 25.3893 107.508C25.3893 108.747 25.1862 109.763 24.5768 110.779C23.3581 113.236 20.6771 115.085 17.8131 115.085C13.5071 115.085 10.237 111.611 10.237 107.508C10.237 106.696 10.4401 105.863 10.6432 105.254C11.0494 104.015 11.8619 102.796 12.6946 101.984C14.1367 100.745 15.7617 99.9322 17.8131 99.9322Z" fill="var(--fill-0, #F2F2F2)" id="Vector_2"/>
<path d="M10.2369 30.7111C9.6276 30.7111 9.01825 30.711 8.3886 30.5079C5.11845 29.6954 2.66075 26.6081 2.66075 23.1348C2.66075 22.3224 2.86389 21.4896 3.06701 20.8803C4.08258 17.8133 6.96682 15.5587 10.4401 15.5587C11.8822 15.5587 13.304 15.9649 14.3398 16.5743C16.5944 18.0164 18.0162 20.2506 18.0162 23.1348C18.0162 24.3535 17.8131 25.5925 17.2038 26.4049C15.7616 29.0657 13.1009 30.7111 10.2369 30.7111Z" fill="var(--fill-0, #F2F2F2)" id="Vector_3"/>
<path d="M97.0684 18.2194C92.7623 18.2194 89.4922 14.7462 89.4922 10.6433C89.4922 9.83086 89.6953 8.998 89.8984 8.38865C90.914 5.32162 93.7982 3.06706 97.2715 3.06706C101.578 3.06706 104.848 6.54041 104.848 10.6433C104.848 11.8823 104.645 13.1009 104.035 14.1165C102.593 16.3711 99.9323 18.2194 97.0684 18.2194Z" fill="var(--fill-0, #F2F2F2)" id="Vector_4"/>
<path d="M70.643 79.4585V87.0346H50.1691V79.4585H60.4061H70.643Z" fill="var(--fill-0, #F2F2F2)" id="Vector_5"/>
<path d="M96.6621 0C102.187 0.000264711 106.898 4.50965 106.898 10.2373C106.898 11.0205 106.805 11.7527 106.643 12.4609C106.924 12.7414 107.204 13.0296 107.55 13.2637C112.668 18.3821 115.532 25.7554 115.532 34.5703C115.532 42.5921 113.365 51.608 109.034 60.6445C113.094 69.3895 115.125 78.0707 115.125 85.8564C115.125 94.6441 112.265 101.809 107.154 107.149C107.375 107.978 107.508 108.838 107.508 109.763C107.305 115.491 102.592 120 97.0674 120C93.2778 120 89.933 117.977 88.2266 114.775C87.3467 114.82 86.4025 114.82 85.5322 114.82L85.5928 114.882C77.7925 114.882 69.2366 112.833 60.4688 108.738C51.348 112.838 42.6319 115.064 35.0371 115.064L35.0176 115.085C31.8488 115.085 28.6931 114.682 25.8672 113.976C23.904 116.373 21.0015 117.745 17.8135 117.745C12.2891 117.745 7.57742 113.236 7.57715 107.509C7.57715 106.493 7.78029 105.457 7.9834 104.441C8.40169 103.312 8.92475 102.192 9.67188 101.266C6.8381 96.2311 5.59203 89.9683 5.95117 82.9111C6.32982 75.8496 8.31508 68.259 11.9053 60.4512C7.26585 50.5622 5.09079 40.8478 5.52637 32.3574C2.22165 30.6885 3.85134e-05 27.221 0 23.3379C0 22.3223 0.203136 21.2861 0.40625 20.2705C1.84842 15.9646 5.72822 13.1006 10.0342 13.1006C11.1823 13.1006 12.3225 13.2579 13.416 13.625C13.4523 13.5994 13.4895 13.5735 13.5273 13.5479C18.6458 8.42944 26.0189 5.56543 34.834 5.56543H35.0371C42.7974 5.5655 51.3057 7.59267 60.0264 11.6455C69.9842 6.91415 79.6146 4.68019 87.9795 5.09277C89.8175 1.96768 93.0933 0 96.6621 0ZM97.0674 104.848C94.2037 104.848 91.9494 107.102 91.9492 109.966C91.9492 110.575 91.9492 110.982 92.1523 111.611C92.7617 113.663 94.8129 115.085 97.0674 115.085C99.9313 115.085 102.187 112.83 102.187 109.966C102.186 109.45 102.103 108.926 101.939 108.456C101.88 108.417 101.819 108.38 101.76 108.341C101.461 107.967 101.273 107.508 101.204 107.026C100.277 105.614 98.6726 104.848 97.0674 104.848ZM17.8135 102.593C16.5949 102.593 15.3563 102.999 14.3408 104.035C13.7316 104.644 13.122 105.477 12.8984 106.289C12.6953 106.695 12.6953 107.305 12.6953 107.935C12.6953 110.798 14.9498 113.053 17.8135 113.054C19.8561 113.054 21.4755 112.046 22.3115 110.213C22.3154 110.198 22.3181 110.183 22.3223 110.169C22.388 109.936 22.4833 109.726 22.5986 109.537C22.7249 109.044 22.7295 108.485 22.7295 107.935C22.9325 104.868 20.6773 102.613 17.8135 102.613V102.593ZM14.8018 66.1514C9.78063 78.6864 9.3345 90.2143 13.6738 98.251C14.9473 97.7217 16.3494 97.4747 17.8135 97.4746C23.3381 97.4746 28.0505 101.983 28.0508 107.711C28.0508 108.191 28.0044 108.692 27.9219 109.191C35.4414 110.973 44.643 109.697 54.5244 105.676C46.5292 101.183 38.7934 95.3197 31.9297 88.4561C25.149 81.6753 19.2056 74.0437 14.8018 66.1514ZM105.779 66.8008C101.361 74.4548 95.6951 81.8468 89.1064 88.4355C82.2449 95.2971 74.5122 101.302 66.5195 105.721C73.7964 108.578 80.8251 109.889 87.0361 109.649C87.0975 104.174 91.5821 99.5265 97.2705 99.5264C99.9124 99.5264 102.358 100.562 104.235 102.31C107.854 98.1182 109.742 92.5812 109.742 85.8359C109.742 79.9965 108.454 73.5207 105.779 66.8008ZM59.9297 17.5107C51.4146 21.8093 42.9769 28.0533 35.627 35.4033C28.1029 42.9274 21.7181 51.6098 17.4297 60.3125C21.7301 68.8693 27.9974 77.3538 35.3828 84.7393C42.9425 92.2989 51.6729 98.7064 60.417 102.995C69.014 98.6932 77.5433 92.4029 84.9629 84.9834C92.3552 77.5911 98.6456 69.0787 102.931 60.5293C98.6255 51.8249 92.2697 43.1779 84.7588 35.667C77.258 28.1662 68.6054 21.7988 59.9297 17.5107ZM60.001 30.5283C72.8986 30.5284 83.1356 40.7655 83.1357 53.6631C83.1356 61.4421 79.2353 68.612 72.8984 72.918V77.8711C73.1527 78.2774 73.3036 78.752 73.3037 79.2549V87.0342C73.1006 88.4762 71.8612 89.6952 70.6426 89.6953H50.1689C48.7269 89.6953 47.5079 88.4763 47.5078 87.0342V80.6377C47.2539 80.2315 47.1035 79.7574 47.1035 79.2549V72.918C40.7462 68.612 36.8664 61.4422 36.8662 53.6631C36.8664 40.9686 47.1033 30.5283 60.001 30.5283ZM52.626 84.5762H67.9814V81.916H52.626V84.5762ZM60.2041 35.6465C50.1704 35.6465 42.1877 43.6294 42.1875 53.6631C42.1877 60 45.6613 65.9506 51.2061 69.2207C52.0184 69.6269 52.4247 70.4602 52.4248 71.4756V76.5938H57.7451V56.3037H55.2881C53.846 56.3037 52.627 55.0847 52.627 53.6426C52.6271 52.2006 53.8461 50.9815 55.2881 50.9814H60.4062C60.775 50.9815 61.1293 51.0623 61.4521 51.2051H65.5244C66.9662 51.2052 68.1851 52.4235 68.1855 53.8652C68.1855 55.3073 66.9665 56.5263 65.5244 56.5264H62.8633V76.5938H67.9834V71.4756C67.9835 70.6632 68.3898 69.6269 69.2021 69.2207C74.7264 65.9506 78.2205 59.9999 78.2207 53.6631C78.2205 43.8325 70.2378 35.6466 60.2041 35.6465ZM34.5898 10.6836C27.6481 10.6836 21.8048 12.6823 17.7207 16.5098C19.3458 18.3439 20.2705 20.7389 20.2705 23.3379C20.2705 24.9831 19.8642 26.4046 19.2549 27.8467C17.6628 31.0113 14.3591 33.2246 10.6133 33.3643C10.364 39.7758 11.8918 47.1141 14.874 54.6025C19.4026 46.4279 25.3687 38.5112 32.377 31.5029C38.9412 24.9387 46.3022 19.1585 53.9258 14.8008C47.2458 12.1256 40.6883 10.6836 34.793 10.6836H34.5898ZM86.8115 10.4404C80.5216 10.2718 73.3778 11.6572 65.9844 14.7012C74.0227 19.203 81.8008 25.0919 88.6992 31.9902C95.4514 38.7424 101.373 46.3385 105.771 54.1953C108.483 47.3599 109.946 40.7508 109.946 34.8135C109.946 27.8468 107.894 22.1195 104.218 17.8135C102.369 19.6615 99.7084 20.6768 97.0479 20.6768C91.5235 20.6765 86.8118 16.1679 86.8115 10.4404ZM10.2373 18.0166C7.98273 18.0166 6.13375 19.4378 5.32129 21.4893C5.11819 21.8955 5.11816 22.5051 5.11816 23.1348C5.11824 25.146 6.42836 26.9944 8.31152 27.8027C8.39732 27.8062 8.48392 27.8147 8.57129 27.8271C8.89726 27.8731 9.2004 27.9743 9.47363 28.1162C9.72791 28.1758 9.98303 28.2529 10.2373 28.2529C12.2886 28.2528 13.9134 27.2369 14.7461 25.3887C15.1522 24.7794 15.3554 23.947 15.3555 23.1348C15.3555 21.5816 14.6365 20.1883 13.5518 19.2881C13.1144 19.1996 12.6792 18.9984 12.2881 18.666C12.1572 18.5613 12.0405 18.4422 11.9375 18.3125C11.3569 18.0976 10.7522 18.0166 10.2373 18.0166ZM96.8652 5.32129C95.0787 5.32129 93.549 6.22871 92.5859 7.61523C92.6231 7.98223 92.5687 8.37029 92.377 8.75391C92.1738 9.16013 92.1738 9.76977 92.1738 10.3994C92.1738 13.2633 94.4281 15.5176 97.292 15.5176C98.8865 15.5176 100.22 14.902 101.128 13.7607C101.125 13.3934 101.202 13.0278 101.374 12.6943C101.78 12.0851 101.983 11.2527 101.983 10.4404C101.983 7.57668 99.7289 5.32154 96.8652 5.32129Z" fill="var(--fill-0, #006AA6)" id="Union"/>
</g>
</g>
</svg>