<?xml version="1.0" encoding="utf-8"?>
<!-- Generator: Adobe Illustrator 19.2.0, SVG Export Plug-In . SVG Version: 6.00 Build 0)  -->
<svg version="1.1" id="Layer_1" xmlns="http://www.w3.org/2000/svg" xmlns:xlink="http://www.w3.org/1999/xlink" x="0px" y="0px"
	 viewBox="0 0 483.6 175.7" style="enable-background:new 0 0 483.6 175.7;" xml:space="preserve">
<style type="text/css">
	.st0{fill:#282D68;}
	.st1{fill:#FFFFFF;}
	.st2{fill:#FFFFFF;stroke:#FFFFFF;stroke-width:3;stroke-miterlimit:10;}
	.st3{fill:#AFB4DC;}
	.st4{fill:#818DC6;}
	.st5{fill:none;}
	.st6{opacity:0.62;}
	.st7{opacity:0.54;}
	.st8{clip-path:url(#SVGID_4_);fill:#FFFFFF;}
	.st9{opacity:0.44;}
	.st10{clip-path:url(#SVGID_6_);fill:#AFB4DC;}
	.st11{fill:#009DDE;}
	.st12{fill:#4FB3DF;}
</style>
<path class="st0" d="M-1882.8,151.8c0-8.1,4.6-11.8,11.7-11.8c3.6,0,6.4,1,8.5,3.1l-2.6,2.6c-1.5-1.4-3.5-2.2-6-2.2
	c-5.2,0-7.9,2.8-7.9,8.4c0,5.5,2.5,8.4,8,8.4c3.1,0,4.8-1,6.2-2.3l2.5,2.4c-1.7,1.7-4.2,3.3-8.9,3.3
	C-1879,163.6-1882.8,159.5-1882.8,151.8"/>
<path class="st0" d="M-1860.4,140.3h3.6v3.9h-3.6V140.3z M-1860.4,146h3.6v17.3h-3.6V146z"/>
<path class="st0" d="M-1854.7,146.2l2.8-0.2l0.5,2.2c0.7-1.3,2.6-2.3,5.6-2.4v3.5c-4.1,0-5.3,2-5.3,5.1v8.9h-3.6V146.2z"/>
<path class="st0" d="M-1844,155.8V146h3.6v9.8c0,2.6,0,4.6,4.2,4.6c4.2,0,4.2-2,4.2-4.7V146h3.5v9.6c0,5.3-1.1,7.9-7.7,7.9
	C-1842.8,163.6-1844,161-1844,155.8"/>
<path class="st0" d="M-1821.5,156.7c-0.2,0.3-0.3,0.7-0.3,1c0,0.9,0.4,1.1,3.4,1.1c7.2,0,9.2,0.9,9.2,4.6c0,3.8-2.9,5.4-9.6,5.4
	c-5.9,0-8.5-0.9-8.5-4c0-2.1,1.3-3.5,3.9-4.1c-1-0.5-1.5-1.4-1.5-2.4c0-0.8,0.4-1.6,1-2.2c-1.6-0.9-2.4-2.4-2.4-4.5
	c0-3.8,2.3-5.8,7.6-5.8c0.8,0,1.8,0.1,2.6,0.2l5.5-1.5v3h-3.3l0,0c1.7,0.7,2.7,1.9,2.7,4.4c0,3.5-2.4,5.3-7.6,5.3
	C-1819.8,157-1820.7,156.9-1821.5,156.7 M-1812.9,163.7c0-1.5-1.3-1.9-5.8-1.9c-4.4,0-5,1-5,2.3c0,1.5,1.5,2.1,5,2.1
	C-1814.1,166.1-1812.9,165.3-1812.9,163.7 M-1814.7,151.5c0-1.9-1.4-2.8-4-2.8c-2.9,0-4.1,0.9-4.1,2.8c0,1.9,1.2,2.8,4.1,2.8
	C-1815.8,154.3-1814.7,153.4-1814.7,151.5"/>
<path class="st0" d="M-1808,146h3.6v17.3h-3.6V146z M-1804.8,139.1h4.4l-4.3,5.2h-3.3L-1804.8,139.1z"/>
<path class="st0" d="M-1802.6,158.3c0-4.9,3.7-6.1,11.3-6.1h0.9c-0.1-2.3-0.5-3.4-4-3.4c-2.1,0-4,0.8-5.1,1.5l-1.8-2.7
	c1.2-0.8,4-2,7.3-2c6,0,7.1,2,7.1,6.9v5.8c0,1.6,0.1,1.9,1.6,1.9v3c-0.2,0.1-0.7,0.1-1.5,0.1c-1.4,0-2.2-0.3-2.7-0.9
	c-0.3-0.3-0.5-0.8-0.6-1.3c-1,1.6-2.5,2.5-6.5,2.5C-1799.8,163.6-1802.6,162.2-1802.6,158.3 M-1790.4,155.8v-0.9h-0.6
	c-6.5,0-8.1,0.6-8.1,3.2c0,1.7,1,2.6,3.5,2.6C-1792.3,160.7-1790.4,159.2-1790.4,155.8"/>
<text transform="matrix(1 0 0 1 -1848.5585 202.3127)" style="font-family:'MyriadPro-Regular'; font-size:48.1855px;">Cirugia</text>
<rect x="81.7" y="15.8" class="st1" width="2.4" height="10.9"/>
<rect x="96.3" y="21" class="st1" width="2.4" height="10.9"/>
<g>
	<path class="st0" d="M431.5,27.4c0.7-0.1,1.7-0.2,2.6-0.2c1.5,0,2.4,0.2,3.1,0.6c0.5,0.3,0.8,0.8,0.8,1.4c0,1-0.9,1.7-2,1.9v0
		c0.8,0.2,1.3,0.7,1.6,1.5c0.3,1,0.6,1.8,0.8,2.1H437c-0.2-0.2-0.4-0.9-0.7-1.8c-0.3-1-0.9-1.4-2.1-1.5h-1.3v3.3h-1.4V27.4z
		 M432.8,30.8h1.4c1.5,0,2.4-0.6,2.4-1.4c0-1-1-1.4-2.4-1.4c-0.7,0-1.1,0-1.4,0.1V30.8z"/>
</g>
<path class="st0" d="M434.4,38.4c-4.1,0-7.4-3.3-7.4-7.2s3.3-7.2,7.4-7.2c4.1,0,7.4,3.3,7.4,7.2S438.5,38.4,434.4,38.4z M434.4,24.1
	c-3.9,0-7.1,3.1-7.1,7c0,3.9,3.2,7,7.1,7c3.9,0,7.1-3.1,7.1-7C441.5,27.3,438.3,24.1,434.4,24.1z"/>
<g>
	<path class="st0" d="M117.7,57.2c0-20.8,15.9-36,37.3-36c10.9,0,20.3,3.7,26.8,11l-6.5,6.3c-5.4-5.7-12.1-8.4-19.8-8.4
		c-15.9,0-27.7,11.5-27.7,27.1c0,15.6,11.8,27.1,27.7,27.1c7.7,0,14.4-2.7,19.8-8.5l6.5,6.3c-6.4,7.2-15.9,11.1-26.9,11.1
		C133.6,93.2,117.7,78,117.7,57.2z"/>
	<path class="st0" d="M227.1,92.4L211.7,72l-15.6,20.4h-10.8l21-27.3l-20-26.1h10.8l14.7,19.2l14.6-19.2H237l-20.1,26.1l21.2,27.3
		H227.1z"/>
</g>
<g>
	<path class="st0" d="M329.8,22l-30.9,70.4h-10L258,22h10.9l25.4,57.9L319.8,22H329.8z"/>
	<path class="st0" d="M381.4,69h-43.3c1.2,9.4,8.8,15.6,19.3,15.6c6.2,0,11.5-2.1,15.4-6.4l5.3,6.2c-4.8,5.6-12.2,8.7-21,8.7
		c-17.2,0-28.7-11.4-28.7-27.3c0-15.8,11.4-27.2,26.8-27.2c15.4,0,26.4,11.1,26.4,27.5C381.6,66.9,381.5,68.1,381.4,69z M338.1,62
		h34.2c-1-9-7.7-15.3-17.1-15.3C345.9,46.7,339.1,53,338.1,62z"/>
	<path class="st0" d="M424.9,89.3c-2.9,2.5-7.3,3.7-11.7,3.7c-10.8,0-16.9-5.9-16.9-16.7V47h-9.1v-8h9.1V27.4h9.7v11.7h15.3v8H406
		v28.9c0,5.7,3,9,8.4,9c2.8,0,5.5-0.9,7.5-2.5L424.9,89.3z"/>
</g>
<g>
	<path class="st0" d="M118.1,147.1c0-6.9,5.3-11.9,12.4-11.9c3.6,0,6.7,1.2,8.9,3.6l-2.2,2.1c-1.8-1.9-4-2.8-6.6-2.8
		c-5.3,0-9.2,3.8-9.2,9c0,5.2,3.9,9,9.2,9c2.6,0,4.8-0.9,6.6-2.8l2.2,2.1c-2.1,2.4-5.3,3.7-8.9,3.7
		C123.4,159,118.1,153.9,118.1,147.1z"/>
	<path class="st0" d="M143,135.6c0-1.2,0.9-2.1,2.2-2.1c1.2,0,2.2,0.9,2.2,2c0,1.2-0.9,2.1-2.2,2.1C144,137.7,143,136.8,143,135.6z
		 M143.6,141.1h3.2v17.6h-3.2V141.1z"/>
	<path class="st0" d="M162.4,140.9v3.1c-0.3,0-0.5,0-0.7,0c-3.4,0-5.6,2.1-5.6,6v8.8h-3.2v-17.6h3.1v3
		C157.1,142,159.3,140.9,162.4,140.9z"/>
	<path class="st0" d="M183,141.1v17.6h-3V156c-1.3,1.8-3.5,2.9-6,2.9c-4.6,0-7.6-2.5-7.6-7.7v-10.2h3.2v9.8c0,3.5,1.7,5.2,4.8,5.2
		c3.3,0,5.5-2.1,5.5-5.9v-9.1H183z"/>
	<path class="st0" d="M206,141.1v15.2c0,6.2-3.2,9.1-9.2,9.1c-3.2,0-6.5-0.9-8.4-2.6l1.5-2.5c1.6,1.4,4.2,2.3,6.8,2.3
		c4.2,0,6.1-1.9,6.1-5.9v-1.4c-1.5,1.8-3.8,2.7-6.4,2.7c-5.1,0-9-3.5-9-8.6c0-5.1,3.9-8.5,9-8.5c2.6,0,5,1,6.5,2.9v-2.7H206z
		 M202.8,149.4c0-3.4-2.5-5.7-6.1-5.7c-3.6,0-6.1,2.3-6.1,5.7c0,3.4,2.5,5.8,6.1,5.8C200.3,155.2,202.8,152.8,202.8,149.4z"/>
	<path class="st0" d="M215.7,134.2h4.1l-5.6,4.3h-3L215.7,134.2z M212,141.1h3.2v17.6H212V141.1z"/>
	<path class="st0" d="M235.3,148.1v10.7h-3v-2.3c-1.1,1.6-3,2.5-5.8,2.5c-4,0-6.5-2.1-6.5-5.2c0-2.8,1.8-5.2,7.1-5.2h5.1v-0.6
		c0-2.7-1.6-4.3-4.7-4.3c-2.1,0-4.2,0.7-5.6,1.9l-1.3-2.4c1.8-1.5,4.5-2.3,7.3-2.3C232.6,140.9,235.3,143.2,235.3,148.1z
		 M232.1,153.3v-2.5h-4.9c-3.2,0-4.1,1.2-4.1,2.7c0,1.8,1.5,2.9,3.9,2.9C229.4,156.4,231.3,155.3,232.1,153.3z"/>
	<path class="st0" d="M270.9,135.4l-10.2,23.3h-3.3l-10.3-23.3h3.6l8.4,19.1l8.5-19.1H270.9z"/>
	<path class="st0" d="M287.9,150.9h-14.3c0.4,3.1,2.9,5.2,6.4,5.2c2.1,0,3.8-0.7,5.1-2.1l1.8,2.1c-1.6,1.9-4,2.9-7,2.9
		c-5.7,0-9.5-3.8-9.5-9c0-5.2,3.8-9,8.9-9c5.1,0,8.7,3.7,8.7,9.1C288,150.2,288,150.6,287.9,150.9z M273.6,148.6h11.3
		c-0.3-3-2.6-5.1-5.7-5.1C276.2,143.6,274,145.7,273.6,148.6z"/>
	<path class="st0" d="M302.3,157.7c-1,0.8-2.4,1.2-3.9,1.2c-3.6,0-5.6-2-5.6-5.5v-9.7h-3v-2.6h3v-3.9h3.2v3.9h5.1v2.6h-5.1v9.6
		c0,1.9,1,3,2.8,3c0.9,0,1.8-0.3,2.5-0.8L302.3,157.7z"/>
	<path class="st0" d="M321.5,150.9h-14.3c0.4,3.1,2.9,5.2,6.4,5.2c2.1,0,3.8-0.7,5.1-2.1l1.8,2.1c-1.6,1.9-4,2.9-7,2.9
		c-5.7,0-9.5-3.8-9.5-9c0-5.2,3.8-9,8.9-9c5.1,0,8.7,3.7,8.7,9.1C321.6,150.2,321.5,150.6,321.5,150.9z M307.2,148.6h11.3
		c-0.3-3-2.6-5.1-5.7-5.1C309.8,143.6,307.5,145.7,307.2,148.6z"/>
	<path class="st0" d="M335.5,140.9v3.1c-0.3,0-0.5,0-0.7,0c-3.4,0-5.6,2.1-5.6,6v8.8H326v-17.6h3.1v3
		C330.2,142,332.4,140.9,335.5,140.9z"/>
	<path class="st0" d="M338.8,135.6c0-1.2,0.9-2.1,2.2-2.1c1.2,0,2.2,0.9,2.2,2c0,1.2-0.9,2.1-2.2,2.1
		C339.8,137.7,338.8,136.8,338.8,135.6z M339.4,141.1h3.2v17.6h-3.2V141.1z"/>
	<path class="st0" d="M365.4,148.5v10.2h-3.2v-9.8c0-3.5-1.7-5.2-4.8-5.2c-3.4,0-5.6,2-5.6,5.9v9.1h-3.2v-17.6h3.1v2.7
		c1.3-1.8,3.6-2.8,6.4-2.8C362.4,140.9,365.4,143.4,365.4,148.5z"/>
	<path class="st0" d="M385.3,148.1v10.7h-3v-2.3c-1.1,1.6-3,2.5-5.8,2.5c-4,0-6.5-2.1-6.5-5.2c0-2.8,1.8-5.2,7.1-5.2h5.1v-0.6
		c0-2.7-1.6-4.3-4.7-4.3c-2.1,0-4.2,0.7-5.6,1.9l-1.3-2.4c1.8-1.5,4.5-2.3,7.3-2.3C382.6,140.9,385.3,143.2,385.3,148.1z
		 M382.1,153.3v-2.5h-4.9c-3.2,0-4.1,1.2-4.1,2.7c0,1.8,1.5,2.9,3.9,2.9C379.4,156.4,381.3,155.3,382.1,153.3z"/>
	<path class="st0" d="M400.7,140.9v3.1c-0.3,0-0.5,0-0.7,0c-3.4,0-5.6,2.1-5.6,6v8.8h-3.2v-17.6h3.1v3
		C395.5,142,397.7,140.9,400.7,140.9z"/>
	<path class="st0" d="M404.1,135.6c0-1.2,0.9-2.1,2.2-2.1c1.2,0,2.2,0.9,2.2,2c0,1.2-0.9,2.1-2.2,2.1
		C405,137.7,404.1,136.8,404.1,135.6z M404.7,141.1h3.2v17.6h-3.2V141.1z"/>
	<path class="st0" d="M427.9,148.1v10.7h-3v-2.3c-1.1,1.6-3,2.5-5.8,2.5c-4,0-6.5-2.1-6.5-5.2c0-2.8,1.8-5.2,7.1-5.2h5.1v-0.6
		c0-2.7-1.6-4.3-4.7-4.3c-2.1,0-4.2,0.7-5.6,1.9l-1.3-2.4c1.8-1.5,4.5-2.3,7.3-2.3C425.2,140.9,427.9,143.2,427.9,148.1z
		 M424.7,153.3v-2.5h-4.9c-3.2,0-4.1,1.2-4.1,2.7c0,1.8,1.5,2.9,3.9,2.9C422,156.4,423.9,155.3,424.7,153.3z"/>
</g>
<path class="st2" d="M55.9,25c-0.5-1.1,0-4.3-0.7-5.6c-0.7-1.3-2.9-2.3-3.2-3.2c-0.3-0.9-3.5-5.7-6.4-6c-2.9-0.4-6.7-0.6-9.5,1.5
	c0,0-4.6,0.8-5.1,3c0,0-2.9,2.5-3.7,4.7c-1,2.6,0.2,6.4,0.2,8.8c0,2.4,2.7,6.7,4.3,6.6c-0.6-2.2-0.7-4.7-0.5-6.9
	c-0.2-0.5-0.3-0.8-0.3-0.8s0.2-0.5,0.5-1.1c0.4-2.9,1.1-5.1,1.1-5.1c0.9-0.7,2.1-2.9,3.3-2.7c3.9,0.8,6.4-2,8.7-0.3
	c3.2,2.2,5.9,2.8,5.9,2.8s1.2,1.6,1,11.6c0,1-0.2,1.8-0.4,2.6c0.2-0.2,0.9-1,1.8-1.8C53.8,32.1,56.4,26.1,55.9,25z"/>
<path class="st3" d="M55.9,25c-0.5-1.1,0-4.3-0.7-5.6c-0.7-1.3-2.9-2.3-3.2-3.2c-0.3-0.9-3.5-5.7-6.4-6c-2.9-0.4-6.7-0.6-9.5,1.5
	c0,0-4.6,0.8-5.1,3c0,0-2.9,2.5-3.7,4.7c-1,2.6,0.2,6.4,0.2,8.8c0,2.4,2.7,6.7,4.3,6.6c-0.6-2.2-0.7-4.7-0.5-6.9
	c-0.2-0.5-0.3-0.8-0.3-0.8s0.2-0.5,0.5-1.1c0.4-2.9,1.1-5.1,1.1-5.1c0.9-0.7,2.1-2.9,3.3-2.7c3.9,0.8,6.4-2,8.7-0.3
	c3.2,2.2,5.9,2.8,5.9,2.8s1.2,1.6,1,11.6c0,1-0.2,1.8-0.4,2.6c0.2-0.2,0.9-1,1.8-1.8C53.9,32.1,56.4,26.1,55.9,25z"/>
<path class="st4" d="M20.7,51.1c0,0-4.2,9.6,3.8,32c0,0,1.8,4.4,7.2,2.1c0,0,9.9-3.9,16.4-8.7c0,0-3.2-5-3.6-5.8
	c0,0-10.5,4.4-13.9,6.4c0,0-2-23.3-4.1-26.6C24.3,47.3,20.7,51.1,20.7,51.1"/>
<path class="st4" d="M29.9,78.7c0,0-0.3-1.1,0.6-1.6c0,0-1-0.4-1.7,0.5"/>
<path class="st1" d="M29.9,78.9c-0.1,0-0.1,0-0.1-0.1c0,0-0.3-1,0.4-1.6c-0.3,0-0.8,0-1.2,0.6c0,0.1-0.1,0.1-0.2,0
	c-0.1,0-0.1-0.1,0-0.2c0.8-1,1.9-0.6,1.9-0.6c0,0,0.1,0.1,0.1,0.1c0,0.1,0,0.1-0.1,0.1c-0.8,0.5-0.6,1.4-0.6,1.4
	C30.1,78.8,30,78.8,29.9,78.9C29.9,78.9,29.9,78.9,29.9,78.9z"/>
<path class="st0" d="M36.5,40.4c0,0,0.2,2.8-1,4.3c-1.2,1.5,2,26.7,2,26.7l13.2,0.4l-0.3-28.3c0,0-2.9,0.4-3-4.3
	C47.2,34.6,36.5,40.4,36.5,40.4"/>
<path class="st0" d="M52.1,26.3c-0.2,0-0.5,0.1-0.7,0.3c-0.2-4.9-0.9-5.8-0.9-5.8s-2.7-0.6-5.9-2.8c-2.3-1.7-4.8,1.1-8.8,0.3
	c-1.2-0.2-2.5,2-3.4,2.7c0,0-0.8,2.5-1.1,5.7c-0.2-0.2-0.4-0.3-0.7-0.3c-0.9,0-1.7,1.3-1.7,3c0,1.7,0.8,3,1.7,3
	c0.2,0,0.4-0.1,0.6-0.2c0.5,4.7,2.6,9.1,9.1,9.3c0,0,10.9,1,11.1-9.1c0-0.1,0-0.2,0-0.3c0.2,0.1,0.4,0.2,0.6,0.2
	c0.9,0,1.7-1.3,1.7-3C53.8,27.6,53,26.3,52.1,26.3z"/>
<polyline class="st0" points="31,120.9 31.5,157.7 44,157.7 43.5,119.6 43.7,107.4 45.5,117.1 46.2,158.7 59.1,159.7 58.6,113.1 
	53.4,100.1 29.9,106.8 30.8,119.9 "/>
<path class="st0" d="M32.3,157.5c0,0-8.6,2-8.6,4.8c0,2.8,4.3,5,8.8,4c4.5-1,12.4-3,11.5-10.3C43.2,148.8,32.3,157.5,32.3,157.5"/>
<path class="st0" d="M57.9,157.9c0,0,8.7,2,8.7,4.7c0,2.7-4.4,4.9-9,4c-4.6-1-12.7-3-11.7-10.1C46.9,149.3,57.9,157.9,57.9,157.9"/>
<path class="st4" d="M68.2,58.1c-3.1-9.8-5.8-11.2-8.9-12.3c-3.1-1.1-8.1-2.4-9.2-2.4l-6.8,13.8l-7.7-12.6c0,0-10.3,1.5-13.7,6.5
	c-3.9,6.1,4.3,7.1,4.9,11.6C27,65.1,26.8,78,27.1,83L27,96.5l0,25c0,0,18.9,2.3,36.5-0.3l1.2-31.8c0,0,5.4-11.8,5.4-16.8
	C70.1,70.5,69.2,61.4,68.2,58.1 M61,76.6l-1.1-15.3l2.4,10.1L61,76.6z"/>
<path class="st3" d="M46.4,36.7c0,0,0.1,0,0.1-0.1c0,0,1.1-4.3,0.1-6.3c1.3-0.6,4.6-2.2,5.5-5.6l-0.3-0.1c-0.9,3.3-4.1,4.9-5.4,5.4
	c0,0,0,0,0,0c0,0-7.8-1.3-10.2-0.4c0,0,0,0.1,0,0.3c-1.9-1.3-5.6-3.9-5.9-5.6l-0.3,0.1c0.4,1.8,4.3,4.6,6.2,5.8
	c-0.1,1.3-0.4,4.4,0.2,6c0,0,0,0,0,0c-1.6,0.7-4.2,0.8-4.3,0.8l0,0.3c0.1,0,2.8-0.1,4.4-0.8c0,0,0.1,0,0.1,0
	c0.9,0.5,5.5,2.4,9.3,0.4c0.3,0.1,1.5,0.5,2.7,0.5c0.8,0,1.7-0.2,2.3-0.8l-0.2-0.2C49.7,37.6,47.3,37,46.4,36.7z"/>
<path class="st5" d="M40.3,17.8c-1.3,0.4-2.7,0.7-4.5,0.4c-1.2-0.2-2.4,1.9-3.3,2.7c0,0-6.2,19.9,7.8,20.4c0,0,10.8,1,11.1-9
	c0.2-10-1-11.6-1-11.6s-2.7-0.6-5.9-2.8c-0.6-0.4-1.1-0.5-1.7-0.5C42,17.3,41.2,17.6,40.3,17.8"/>
<g class="st6">
	<g>
		<defs>
			<path id="SVGID_1_" d="M22.7,50.3"/>
		</defs>
		<clipPath id="SVGID_2_">
			<use xlink:href="#SVGID_1_"  style="overflow:visible;"/>
		</clipPath>
	</g>
</g>
<path class="st0" d="M37.3,55.1c0,0,4.9,3.6,6.7,4.7c0,0,2.1,0.8,3.5,1.2c1.4,0.5,8.3,4.1,11.2,6.5c0,0,1.8,1.6,3.7,4.1
	c0.8,1.1,1.3,3,2,4.4c0,0,1.8,1.5,3,3.8c0.4,0.8,0.8,1.5,1.1,2.2c0,0,2.3,7,2,9c0,0,1.5,2.6,3.7,3.8c0,0,2.7,1.4,8.2,0.9
	c4-0.3,9.6,0.5,9.2,1.8c0,0-1.4,3.9-10.8,0.9c0,0-8.5,1.5-12.6-3c0,0-2.6,2.7-5,2.7c0,0-0.8,1.1-4.2,1c0,0-5.4-1-8.7-0.5
	c0,0-3.5,1.2-5-0.9c0,0-1.5-2.7-0.1-3.2c0,0,0.3-0.9,1.8-0.8c0,0,2.1,0.6,4.1,0.9c2,0.3,3.6,0.3,3.6-0.2c0,0-3.8-2.3-3.5-5.6
	c0,0-2.3-4.4-3.6-4.7c0,0-2.3-0.9-3,0.2c0,0-0.5,2.6-0.2,3.6c0,0,0.6,1.4-0.1,2.1c0,0-0.6,1.2-0.8,2.3c0,0-1.5,5.6-2.9,6.1
	c0,0-1.1,0.2-2.1-0.2c0,0-1.5,0.5-2.3,0.2c0,0-2.3-0.2-1.8-1.1c0,0,0.5-1.8,2.4-2.6c0,0,1.4-0.3,1.5-1.1c0,0,0.9-1.4,0.5-4.3
	c0,0-0.5-2.1-0.5-4.4c0,0-0.3-2.6-0.3-3c0-0.5-0.2-1.1-1.4-1.5c0,0-3.3-3.3-4.1-4.6c0,0-3.3-3.3-3.1-5.3c0,0,0.2-1.5-0.1-2.4"/>
<g class="st7">
	<g>
		<defs>
			<rect id="SVGID_3_" x="34" y="44.7" width="16.1" height="14.7"/>
		</defs>
		<clipPath id="SVGID_4_">
			<use xlink:href="#SVGID_3_"  style="overflow:visible;"/>
		</clipPath>
		<path class="st8" d="M43.3,59.2c0,0-0.1,0-0.1-0.1l-1.3-1.9c0-0.1,0-0.2,0-0.2c0.1,0,0.2,0,0.2,0l1.3,1.9
			C43.5,59.1,43.5,59.2,43.3,59.2C43.4,59.2,43.3,59.2,43.3,59.2z M44.3,57.1C44.3,57.1,44.3,57.1,44.3,57.1c-0.1,0-0.2-0.1-0.1-0.2
			l1-2.1c0-0.1,0.1-0.1,0.2-0.1c0.1,0,0.1,0.1,0.1,0.2l-1,2.1C44.4,57.1,44.3,57.1,44.3,57.1z M40.7,55.4c0,0-0.1,0-0.1-0.1
			l-1.3-1.9c0-0.1,0-0.2,0-0.2c0.1,0,0.2,0,0.2,0l1.3,1.9C40.9,55.2,40.9,55.3,40.7,55.4C40.8,55.4,40.8,55.4,40.7,55.4z M46.2,52.9
			C46.2,52.9,46.2,52.9,46.2,52.9c-0.1,0-0.2-0.1-0.1-0.2l1-2.1c0-0.1,0.1-0.1,0.2-0.1c0.1,0,0.1,0.1,0.1,0.2l-1,2.1
			C46.4,52.9,46.3,52.9,46.2,52.9z M38.1,51.5c0,0-0.1,0-0.1-0.1l-1.3-1.9c0-0.1,0-0.2,0-0.2c0.1,0,0.2,0,0.2,0l1.3,1.9
			C38.3,51.3,38.3,51.4,38.1,51.5C38.2,51.5,38.2,51.5,38.1,51.5z M48.2,48.7C48.2,48.7,48.2,48.7,48.2,48.7c-0.1,0-0.2-0.1-0.1-0.2
			l1-2.1c0-0.1,0.1-0.1,0.2-0.1c0.1,0,0.1,0.1,0.1,0.2l-1,2.1C48.3,48.7,48.3,48.7,48.2,48.7z M35.5,47.6c0,0-0.1,0-0.1-0.1
			l-1.3-1.9c0-0.1,0-0.2,0-0.2c0.1,0,0.2,0,0.2,0l1.3,1.9C35.7,47.5,35.7,47.6,35.5,47.6C35.6,47.6,35.6,47.6,35.5,47.6z"/>
	</g>
</g>
<g class="st9">
	<g>
		<defs>
			<rect id="SVGID_5_" x="78" y="38.3" width="10.4" height="17.3"/>
		</defs>
		<clipPath id="SVGID_6_">
			<use xlink:href="#SVGID_5_"  style="overflow:visible;"/>
		</clipPath>
		<path class="st10" d="M88.2,38.3H78V52c0,0-0.7,3.1,2.5,3.6c2.3,0.4,5.4-0.1,5.4-0.1s2.2-0.2,2.3-2.7
			C88.5,50.3,88.2,38.3,88.2,38.3"/>
	</g>
</g>
<path class="st3" d="M85.5,29.9h-4.8c-1.6,0-3,1.3-3,3v19.9c0,1.6,1.3,3,3,3h2C78,81.2,70.1,88.2,40.8,93.2c-0.1,0-0.1,0.1-0.1,0.2
	c0,0.1,0.1,0.1,0.1,0.1c0,0,0,0,0,0C70.3,88.5,78.2,81.4,83,55.7h2.5c1.6,0,3-1.3,3-3V32.9C88.5,31.2,87.1,29.9,85.5,29.9z
	 M88.2,52.8c0,1.5-1.2,2.7-2.7,2.7H83c0,0,0,0-0.1,0c-0.1,0-0.1,0-0.1,0h-2.1c-1.5,0-2.7-1.2-2.7-2.7v-4.2h3.6
	c0.1,0,0.1-0.1,0.1-0.1c0-0.1-0.1-0.1-0.1-0.1H78v-4h3.6c0.1,0,0.1-0.1,0.1-0.1c0-0.1-0.1-0.1-0.1-0.1H78v-3.9h3.6
	c0.1,0,0.1-0.1,0.1-0.1c0-0.1-0.1-0.1-0.1-0.1H78v-3.4h3.6c0.1,0,0.1-0.1,0.1-0.1c0-0.1-0.1-0.1-0.1-0.1H78v-3.3
	c0-1.5,1.2-2.7,2.7-2.7h4.8c1.5,0,2.7,1.2,2.7,2.7V52.8z"/>
<path class="st0" d="M97.9,162.5c0-7.5-0.2-148-0.2-151.7v-0.1l-14.9,0.1l-0.1,0l0,0.1c-0.3,4,0.2,18.9,0.2,19.1l0.3,0
	c0-0.1-0.4-14.7-0.2-18.9L97.5,11c0,6.3,0.2,144.2,0.2,151.5H84.5v3.7H111v-3.7H97.9z"/>
<path class="st0" d="M111,166.4H84.5c-0.1,0-0.1-0.1-0.1-0.1v-3.7c0-0.1,0.1-0.1,0.1-0.1H111c0.1,0,0.1,0.1,0.1,0.1v3.7
	C111.1,166.3,111.1,166.4,111,166.4z M84.6,166.1h26.2v-3.4H84.6V166.1z"/>
<line class="st1" x1="39.9" y1="92.6" x2="41.3" y2="94.5"/>
<line class="st1" x1="41.2" y1="92.6" x2="39.8" y2="94.5"/>
<path class="st1" d="M41.4,94.4l-0.7-0.9l0.6-0.9c0-0.1,0-0.2,0-0.2c-0.1,0-0.2,0-0.2,0l-0.6,0.8L40,92.5c0-0.1-0.1-0.1-0.2,0
	c-0.1,0-0.1,0.1,0,0.2l0.6,0.9l-0.7,0.9c0,0.1,0,0.2,0,0.2c0,0,0.1,0,0.1,0c0,0,0.1,0,0.1-0.1l0.6-0.8l0.6,0.8c0,0,0.1,0.1,0.1,0.1
	c0,0,0.1,0,0.1,0C41.4,94.6,41.4,94.5,41.4,94.4z"/>
<polygon class="st3" points="415.6,110.5 17.3,110.5 17.3,165.1 10.9,165.1 10.9,99.5 415.6,99.5 "/>
<path class="st3" d="M17.4,165.3h-6.6v-66h405v11.3H17.4V165.3z M11.1,165h6.1v-54.6h387.3V99.6H11.1V165z"/>
<path class="st0" d="M42.7,74.8c0,0,0.5-0.3,0.6-0.6c0.1-0.3,0.6-1.5,1-2.2c0,0,0.7-1.7,0.6-2.2c-0.1-0.5,0.1-1.1,0-1.4
	c-0.1-0.4-1-1.8-0.8-2.2c0.2-0.4,1.9-0.5,2.5,2c0,0,0.2,1.4,0.5,1.8c0.3,0.3,0.7,0.2,0.9,0.2c0.6-0.1,3.4-1.4,4.1-2
	c0.8-0.7,1.2-0.9,1.6-1.3c0.4-0.5,0.9-0.8,1.4-0.6c0,0,0.4,0.2-0.2,1.1c0,0-0.7,0.8-1.1,1.2c-0.4,0.4-0.3,0.4-0.7,0.8
	c-0.4,0.4-1.8,1.5-1.8,1.5s1.8-0.8,1.9-0.8c0.1,0,1.6-1,1.9-1.3c0.2-0.3,1.3-1.4,1.8-1.2c0,0,1,0,0.6,0.7c0,0-1.1,1.3-1.3,1.5
	c-0.2,0.2-1.4,1.4-1.4,1.4s-0.3,0.3-0.7,0.5c-0.4,0.2-1.6,1-1.6,1s1.4-0.5,1.6-0.7c0.2-0.2,0.9-0.7,1.1-0.8c0.2-0.2,0.9-1,1.3-1.1
	c0.4-0.1,0.9,0,0.9,0.4c-0.1,0.4-0.6,0.9-0.9,1.2c-0.3,0.3-1.8,1.7-2.2,2c-0.4,0.2-1.5,0.8-1.7,0.8c-0.2,0-0.2,0.1-0.2,0.1
	s1.7-0.5,1.8-0.6c0.1-0.2,1-1,1.3-1c0.2,0,0.8,0.4,0.3,0.9c0,0-0.5,0.7-0.7,0.9c-0.1,0.2-0.6,0.5-1.3,0.7c-0.7,0.2-1.1,0.5-1.2,0.5
	c-0.1,0-0.3,0.2-0.8,0.2c0,0-1.3,0.4-1.7,0.6c-0.3,0.2-4.1,1.9-4.5,2.1c-0.3,0.2-1.4,0.7-2.8,0.2c-1.4-0.5-2-0.3-2-0.3l0.7-3.6
	C41.3,74.7,42.7,74.8,42.7,74.8"/>
<path class="st4" d="M43.9,79c-0.4,0-0.9-0.1-1.3-0.2c-0.8-0.3-1.4-0.4-1.7-0.4c-0.2,0-0.2,0-0.2,0c0,0-0.1,0-0.1,0
	c0,0-0.1-0.1,0-0.1l0.7-3.6c0-0.1,0.1-0.1,0.2-0.1c0,0,0.8,0.1,1.2,0.1c0.1,0,0.1,0,0.1,0c0.1-0.1,0.5-0.3,0.6-0.6
	c0-0.1,0.1-0.1,0.1-0.2c0.2-0.5,0.5-1.4,0.9-2c0.2-0.4,0.6-1.7,0.5-2.1c-0.1-0.3,0-0.6,0-0.9c0-0.2,0-0.4,0-0.5
	c0-0.1-0.1-0.3-0.3-0.6c-0.4-0.8-0.6-1.4-0.5-1.7c0.1-0.2,0.4-0.3,0.7-0.3c0.8,0,1.7,0.6,2.1,2.4c0,0.4,0.2,1.5,0.5,1.7
	c0.2,0.2,0.6,0.2,0.7,0.2c0.6-0.1,3.3-1.3,4-2c0.4-0.4,0.7-0.6,0.9-0.8c0.3-0.2,0.4-0.3,0.6-0.5c0.5-0.6,1.1-0.8,1.6-0.6
	c0,0,0.2,0.1,0.2,0.3c0.1,0.3-0.1,0.6-0.3,1c0,0-0.7,0.8-1.1,1.2c-0.1,0.1-0.2,0.2-0.3,0.3c-0.1,0.1-0.2,0.2-0.5,0.5
	c-0.2,0.2-0.7,0.5-1,0.9c0.6-0.3,1-0.4,1-0.4c0.1,0,1.6-1,1.8-1.3c0.1-0.2,1.2-1.3,1.8-1.3c0,0,0.1,0,0.1,0c0.1,0,0.6,0.1,0.7,0.4
	c0.1,0.2,0.1,0.4-0.1,0.6c-0.1,0.1-0.9,1.1-1.3,1.4c0.3-0.1,0.8-0.1,1,0.2c0.1,0.1,0.1,0.2,0.1,0.4c-0.1,0.4-0.4,0.7-0.7,1.1
	c-0.1,0.1-0.1,0.1-0.2,0.2c-0.1,0.1-0.6,0.6-1,1c0.2,0,0.4,0.2,0.5,0.4c0.1,0.2,0.1,0.4-0.2,0.7l0,0c0,0-0.5,0.7-0.7,0.9
	c-0.2,0.2-0.7,0.6-1.4,0.8c-0.3,0.1-0.6,0.3-0.8,0.4c-0.3,0.1-0.3,0.1-0.4,0.1c0,0,0,0-0.1,0c-0.1,0.1-0.4,0.2-0.7,0.2
	c-0.3,0.1-1.3,0.4-1.6,0.5c-0.2,0.1-1.2,0.6-2.3,1.1c-1,0.4-2,0.9-2.2,1C45.3,78.8,44.7,79,43.9,79z M40.9,78.2
	c0.3,0,0.9,0.1,1.8,0.4c0.4,0.1,0.8,0.2,1.2,0.2c0.8,0,1.3-0.3,1.5-0.4c0.2-0.1,1.2-0.5,2.2-1c1-0.4,2.1-0.9,2.3-1
	c0.4-0.2,1.7-0.6,1.7-0.6c0.3,0,0.5-0.1,0.6-0.2c0.1,0,0.1-0.1,0.2-0.1c0,0,0.2-0.1,0.3-0.1c0.2-0.1,0.5-0.2,0.9-0.4
	c0.7-0.2,1.1-0.5,1.2-0.7c0.1-0.2,0.7-0.9,0.7-0.9c0.2-0.2,0.2-0.3,0.2-0.4c-0.1-0.2-0.3-0.2-0.4-0.3c-0.2,0-1,0.8-1.1,1
	c-0.1,0.2-1.2,0.5-1.9,0.7c-0.1,0-0.1,0-0.2-0.1c0-0.1,0-0.1,0-0.2c0,0,0.1-0.1,0.3-0.1c0.1,0,1.2-0.6,1.6-0.8
	c0.4-0.2,1.8-1.6,2.1-1.9c0.1-0.1,0.1-0.1,0.2-0.2c0.3-0.3,0.6-0.6,0.7-0.9c0-0.1,0-0.1,0-0.1c-0.1-0.1-0.4-0.2-0.6-0.1
	c-0.2,0.1-0.7,0.5-0.9,0.8c-0.1,0.1-0.3,0.3-0.3,0.3c0,0-0.1,0.1-0.3,0.2c-0.3,0.2-0.7,0.5-0.8,0.6c-0.2,0.2-1.4,0.6-1.7,0.7
	c-0.1,0-0.1,0-0.2-0.1c0-0.1,0-0.1,0-0.2c0,0,1.2-0.8,1.6-1c0.4-0.2,0.7-0.4,0.7-0.4c0,0,1.2-1.2,1.4-1.4c0.2-0.1,0.9-1,1.3-1.5
	c0.1-0.1,0.1-0.2,0.1-0.3c-0.1-0.1-0.4-0.2-0.5-0.2c0,0,0,0,0,0h0c-0.4,0-1.3,0.8-1.6,1.2c-0.2,0.3-1.8,1.4-2,1.4
	c-0.1,0-1.2,0.5-1.9,0.8c-0.1,0-0.1,0-0.2-0.1c0-0.1,0-0.1,0-0.2c0,0,1.4-1.1,1.8-1.5c0.2-0.2,0.3-0.3,0.4-0.4
	c0.1-0.1,0.2-0.2,0.3-0.4c0.4-0.4,1.1-1.2,1.1-1.2c0.3-0.4,0.3-0.6,0.3-0.7c0-0.1-0.1-0.1-0.1-0.1c-0.4-0.2-0.8,0-1.2,0.5
	c-0.2,0.2-0.4,0.4-0.7,0.6c-0.2,0.2-0.5,0.4-0.9,0.8c-0.7,0.7-3.5,2-4.2,2.1c0,0-0.1,0-0.2,0c-0.3,0-0.6-0.1-0.8-0.3
	c-0.4-0.4-0.6-1.8-0.6-1.9c-0.3-1.6-1.1-2.1-1.8-2.1c-0.2,0-0.4,0.1-0.4,0.1c-0.1,0.2,0.3,1,0.5,1.4c0.1,0.3,0.2,0.5,0.3,0.6
	c0,0.2,0,0.4,0,0.6c0,0.3-0.1,0.5,0,0.8c0.1,0.6-0.5,2.1-0.6,2.3c-0.4,0.6-0.7,1.5-0.9,1.9c0,0.1-0.1,0.2-0.1,0.2
	c-0.1,0.3-0.6,0.6-0.7,0.7c-0.1,0.1-0.2,0.1-0.3,0.1c-0.3,0-0.8,0-1.1-0.1L40.9,78.2C40.9,78.2,40.9,78.2,40.9,78.2z"/>
<path class="st0" d="M63.1,82.7c0,0-0.2,0.5-0.6,0.6c-0.3,0.1-1.4,0.6-2,1.1c0,0-1.6,0.7-2.1,0.7c-0.5-0.1-1,0.1-1.3,0.1
	c-0.4-0.1-1.7-0.8-2.1-0.6c-0.4,0.2-0.4,1.9,2.1,2.3c0,0,1.9,0,2.2,0.3c0.1,0.1,0.2,0.3,0.2,0.5c0,0.6-1.2,2.9-1.9,3.4
	c-0.7,0.6-1.8,1.5-2.2,1.8c-0.5,0.4-1.2,1.1-1,1.5c0,0,0.3,0.6,1.7-0.2c0,0,0.9-0.7,1.4-1c0.4-0.2,0.8-0.5,1.2-0.9
	c0.3-0.4,1.4-1.3,1.4-1.3s-0.6,1.8-0.6,1.8c0,0.1-0.9,1.6-1.2,1.9c-0.3,0.2-1.3,1.3-1.1,1.7c0,0,0.1,0.9,0.7,0.5
	c0,0,1.2-1.1,1.3-1.3c0.2-0.2,1.2-1.4,1.2-1.4s0.2-0.3,0.4-0.7c0.2-0.4,1.1-1.9,1.1-1.9s-0.7,1.7-0.8,1.9c-0.2,0.2-0.6,0.9-0.7,1.1
	c-0.1,0.2-0.9,0.9-1,1.3c-0.1,0.4,0,0.9,0.4,0.8c0.4-0.1,0.8-0.6,1.1-0.9c0.3-0.3,1.6-1.7,1.8-2.2c0.2-0.4,0.8-1.8,0.8-2
	c0-0.2,0,0.2,0,0.2s-0.4,1.6-0.5,1.7c-0.2,0.1-0.9,1-0.9,1.2c0,0.2,0.4,0.8,0.9,0.2c0,0,0.6-0.5,0.8-0.7c0.2-0.1,0.4-0.6,0.6-1.2
	c0.2-0.6,0.4-1.1,0.4-1.1c0-0.1,0.2-0.3,0.2-0.7c0,0,0.3-1.3,0.4-1.6c0.2-0.3,1.6-4,1.7-4.4c0.2-0.3,0.6-1.3,0-2.7
	c-0.5-1.3-0.4-1.9-0.4-1.9L63,81.4C63,81.4,63.2,82.6,63.1,82.7"/>
<path class="st4" d="M57.4,97.1c-0.4,0-0.5-0.4-0.6-0.7c-0.2-0.6,1.1-1.9,1.1-1.9c0.2-0.2,1.1-1.7,1.1-1.8c0-0.1,0.1-0.3,0.5-1.3
	c-0.3,0.3-0.7,0.7-0.9,0.9c-0.3,0.4-0.7,0.7-1.1,0.9l-0.1,0.1c-0.4,0.2-1.3,0.9-1.3,1c-0.5,0.3-0.9,0.5-1.3,0.5
	c-0.4,0-0.5-0.2-0.6-0.3c-0.4-0.7,0.8-1.5,1-1.7c0.2-0.1,0.6-0.5,1-0.8c0.4-0.3,0.9-0.7,1.3-1c0.7-0.6,1.8-2.8,1.8-3.3
	c0-0.1,0-0.3-0.1-0.4c-0.1-0.2-0.9-0.3-2-0.3h-0.1c-2-0.3-2.3-1.4-2.4-1.7c-0.1-0.4,0-0.7,0.2-0.8c0.3-0.2,1,0.1,1.6,0.4
	c0.2,0.1,0.5,0.2,0.6,0.2c0.1,0,0.3,0,0.5,0c0.3,0,0.6-0.1,0.9,0c0.4,0.1,1.6-0.5,2-0.6c0.5-0.4,1.3-0.8,1.8-1
	c0.1,0,0.2-0.1,0.2-0.1c0.2-0.1,0.4-0.4,0.5-0.5c0-0.1-0.1-0.7-0.1-1.2c0-0.1,0-0.1,0.1-0.2l3.4-0.8c0,0,0.1,0,0.1,0
	c0,0,0.1,0.1,0,0.1c0,0-0.1,0.5,0.4,1.8c0.6,1.4,0.2,2.4,0,2.8c-0.1,0.2-0.5,1.2-0.9,2.2c-0.4,1-0.8,2-0.9,2.2
	c-0.1,0.3-0.4,1.2-0.4,1.6c0,0.3-0.1,0.5-0.1,0.6c0,0,0,0.1,0,0.1c0,0.1,0,0.1-0.1,0.4c-0.1,0.2-0.2,0.5-0.3,0.8
	c-0.2,0.6-0.5,1.2-0.7,1.3c-0.2,0.1-0.8,0.7-0.8,0.7c-0.2,0.2-0.3,0.3-0.5,0.3c-0.3,0-0.5-0.3-0.6-0.5c-0.4,0.4-0.8,0.9-0.9,1
	c-0.1,0.1-0.1,0.1-0.2,0.2c-0.3,0.3-0.6,0.7-0.9,0.7c-0.2,0-0.4,0-0.5-0.2C59,96.3,59,96,59.1,95.7c-0.3,0.3-1.2,1.2-1.3,1.2
	C57.7,97.1,57.5,97.1,57.4,97.1z M59.9,90.8C59.9,90.8,60,90.8,59.9,90.8C60,90.9,60.1,91,60,91c-0.2,0.7-0.6,1.7-0.6,1.8
	c0,0.1-0.9,1.7-1.2,1.9c-0.4,0.3-1.2,1.3-1.1,1.6c0,0,0,0,0,0c0,0.1,0.1,0.5,0.3,0.5c0.1,0,0.1,0,0.2-0.1c0.4-0.4,1.2-1.1,1.3-1.3
	c0.2-0.2,1.2-1.4,1.2-1.4l0,0c0,0,0.2-0.3,0.4-0.7c0.2-0.4,1.1-1.9,1.1-1.9c0-0.1,0.1-0.1,0.2-0.1c0.1,0,0.1,0.1,0.1,0.2
	c-0.2,0.4-0.7,1.8-0.8,1.9c-0.1,0.1-0.5,0.7-0.6,0.9l-0.1,0.1c0,0.1-0.2,0.2-0.3,0.3c-0.3,0.3-0.6,0.7-0.7,0.9
	c-0.1,0.2,0,0.4,0.1,0.5c0.1,0.1,0.1,0.1,0.1,0.1c0,0,0,0,0,0c0.2-0.1,0.6-0.4,0.8-0.7c0.1-0.1,0.1-0.1,0.2-0.2
	c0.3-0.3,1.6-1.7,1.7-2.1c0.2-0.4,0.8-1.8,0.8-2c0,0,0,0,0,0c0,0,0,0,0,0l0,0c0-0.1,0-0.1,0.1-0.1c0,0,0.1,0,0.1,0.1c0,0,0,0,0,0.1
	h0l0,0c0,0,0,0.1,0,0.2c-0.1,0.6-0.4,1.7-0.6,1.8c-0.2,0.2-0.8,0.9-0.9,1.1c0,0.1,0.1,0.3,0.3,0.3c0.1,0,0.2-0.1,0.3-0.2
	c0,0,0.6-0.6,0.8-0.7c0.1-0.1,0.4-0.5,0.6-1.2c0.1-0.3,0.2-0.6,0.3-0.8c0-0.1,0.1-0.3,0.1-0.3l0,0c0-0.1,0-0.1,0-0.2
	c0-0.1,0.1-0.3,0.1-0.6c0-0.2,0.3-1.3,0.5-1.7c0.1-0.2,0.5-1.2,0.9-2.2c0.4-1,0.8-2,0.9-2.2c0.1-0.3,0.5-1.2,0-2.5
	c-0.4-0.9-0.4-1.5-0.4-1.7l-3.1,0.7c0.1,1,0.1,1.2,0.1,1.3c-0.1,0.1-0.3,0.5-0.6,0.6c0,0-0.1,0.1-0.2,0.1c-0.5,0.2-1.3,0.6-1.8,1
	c-0.1,0-1.7,0.8-2.2,0.7c-0.3,0-0.5,0-0.8,0c-0.2,0-0.4,0.1-0.6,0c-0.1,0-0.4-0.1-0.6-0.2c-0.4-0.2-1-0.4-1.3-0.4
	c-0.1,0-0.1,0-0.1,0c-0.1,0-0.1,0.2-0.1,0.5c0,0.3,0.3,1.2,2.1,1.5l0.1,0c0.7,0,1.9,0.1,2.2,0.4c0.1,0.2,0.2,0.4,0.2,0.6
	c0,0.6-1.2,2.9-2,3.5c-0.4,0.3-0.8,0.7-1.3,1c-0.4,0.3-0.8,0.6-1,0.8c-0.6,0.4-1.1,1-0.9,1.3c0,0,0.1,0.1,0.3,0.1
	c0.2,0,0.5-0.1,1.1-0.4c0,0,0.9-0.7,1.4-1l0.1-0.1c0.4-0.2,0.8-0.4,1-0.8C58.8,91.7,59.8,90.9,59.9,90.8
	C59.8,90.8,59.9,90.8,59.9,90.8z"/>
<path class="st4" d="M62.4,71.4c-0.6,2.5-2.5,11.1-4.3,13.1c3.2,0.5,5.4,2,7.3,4.4c0.9-2.2,2-5.3,2.8-7.7"/>
<path class="st3" d="M68.2,81.1c-0.1,0-0.2,0-0.2,0.1c-1.1,3.3-2,5.8-2.7,7.5c-2-2.4-4.2-3.7-7-4.2c1.7-2.1,3.2-8.8,4-12.1
	c0.1-0.3,0.1-0.6,0.2-0.9c0,0,0,0,0,0c0,0,0.1,0,0.1,0c0.4-0.9,1.3-0.9,1.3-0.9c0.1,0,0.1-0.1,0.1-0.1c0-0.1-0.1-0.1-0.1-0.1h0
	c0,0-0.9,0-1.4,0.8c0-0.3,0.2-0.9,0.7-1.4c0.1,0,0.1-0.1,0-0.2c0-0.1-0.1-0.1-0.2,0c-1,0.8-0.8,1.9-0.8,1.9c0,0,0,0,0,0c0,0,0,0,0,0
	c-0.1,0.2-0.1,0.5-0.2,0.9c-0.7,3.1-2.4,10.4-4.1,12.2c0,0,0,0.1,0,0.1c0,0,0.1,0.1,0.1,0.1c3,0.5,5.2,1.8,7.2,4.4
	c0,0,0.1,0.1,0.1,0.1c0,0,0,0,0,0c0.1,0,0.1,0,0.1-0.1c0.7-1.8,1.7-4.3,2.8-7.8C68.4,81.2,68.3,81.1,68.2,81.1z"/>
<path class="st4" d="M26.9,85.6c1.2,0.3,2.1,0.4,4.9-0.5c0,0,12.8-5.5,16-7.3c0,0-3.4-3.6-3.3-7.2c0,0-7.7,4.4-13.3,5.8
	c0,0-0.8-0.9-1-3.3"/>
<path class="st3" d="M47.9,77.8c0,0-3.3-3.6-3.2-7.1c0-0.1,0-0.1-0.1-0.1c0,0-0.1,0-0.1,0c-0.1,0-7.7,4.3-13.2,5.7
	c-0.2-0.3-0.7-1.2-0.9-3.2c0-0.1-0.1-0.1-0.2-0.1C30.1,73,30,73,30,73.1c0.2,1.8,0.6,2.8,0.9,3.2c-0.4,0-1.1,0.1-1.6,0.8
	c0,0.1,0,0.2,0,0.2c0.1,0,0.2,0,0.2,0c0.4-0.5,0.9-0.7,1.2-0.7c-0.6,0.6-0.6,1.4-0.7,1.4c0,0.1,0.1,0.1,0.1,0.1h0
	c0.1,0,0.1-0.1,0.1-0.1c0,0,0-0.9,0.9-1.4c5-1.3,11.8-4.9,13.1-5.6c0,3.2,2.6,6.2,3.2,6.9C44,79.7,31.8,85,31.7,85
	c-2.7,0.9-3.7,0.8-4.8,0.5c-0.1,0-0.2,0-0.2,0.1c0,0.1,0,0.2,0.1,0.2c0.5,0.1,1,0.2,1.5,0.2c0.8,0,1.8-0.2,3.4-0.8
	c0.1-0.1,12.8-5.5,16.1-7.3c0,0,0.1-0.1,0.1-0.1C47.9,77.9,47.9,77.8,47.9,77.8z"/>
<path class="st0" d="M14.9,53c0,0-1.9-0.1-1.5,1.9c0,0,0.2,0.9,0.6,1.3c0,0,0.5,1.6,0.8,1.8c0,0,0.7,0.7,1.3,1.1c0,0,1.1,1.2,3,1.1
	c0,0,0.8,1.4,2.3,0.9c0,0,0.9-0.6,1.3-0.6c0.4,0,2.3,0.5,3.1,1c0.8,0.5,1.3,1.2,1.6,2c0.2,0.8,1,1.5,1.2,1.9c0.2,0.4-0.2,1.6,0,3.1
	c0,0,0.1,0.4,0.2,0.7c0.2,0.4,0,2.6,1.7,4.3l8.9-16.7c0,0-0.7-0.9-1-1.3c0,0-0.8-1.4-1.8-2.3c0,0-2-3.2-3.8-4.4c0,0-0.5-0.4-0.7-0.9
	c0,0-1.1-3-5.8-2.5c0,0-3.8,0.3-5.5,2.3c0,0-0.9,0.4-1.3,1.3c0,0-0.2,1-0.6,1.6c0,0-1,1.3-2.5,1.6C16.5,52.2,15,52.5,14.9,53"/>
<path class="st0" d="M26.2,46.6c0,0-0.3,0.6-0.1,1.9c0,0,0,1-0.7,1.7c0,0-0.6,1-0.9,1.4C24.3,52,21.8,54.4,23,58c0,0,0.7,1.9,3,1.8
	c0,0,0.8,0,1.3-0.3c0.5-0.2,1.1-0.6,1.7-0.7c0.5,0,2.1-1,2-1.8c-0.1-0.8-0.3-2,1.7-2.6c0,0,0.4,0.2,0.2-1.4c0,0-0.6-1-0.3-1.7
	c0,0,0.5-0.9-0.6-2.1c0,0-1.4-1.6-2.6-1.9"/>
<path class="st4" d="M25.8,59.9c-2.2,0-2.9-1.9-2.9-1.9c-1.1-3.3,0.8-5.6,1.4-6.3c0.1-0.1,0.1-0.2,0.2-0.2c0.2-0.4,0.9-1.4,0.9-1.4
	c0.6-0.7,0.6-1.6,0.6-1.6c-0.3-1.3,0.1-1.9,0.1-2l0.3,0.1l-0.1-0.1l0.1,0.1c0,0-0.3,0.6,0,1.8c0,0.1,0,1.1-0.7,1.8
	c0,0-0.6,1-0.9,1.4c0,0-0.1,0.1-0.2,0.2c-0.6,0.7-2.4,3-1.4,6.1c0,0.1,0.7,1.8,2.8,1.7c0,0,0.8,0,1.2-0.3l0.2-0.1
	c0.5-0.2,1-0.5,1.5-0.6c0.3,0,1.2-0.5,1.6-1c0.1-0.2,0.3-0.4,0.2-0.6c-0.1-0.8-0.3-2.1,1.8-2.8c0,0,0.1,0,0.1,0c0,0,0.2-0.2,0-1.3
	c-0.1-0.2-0.6-1.1-0.3-1.8c0-0.1,0.5-0.8-0.5-2c0,0-1.4-1.6-2.5-1.8l0.1-0.3c1.3,0.3,2.6,1.9,2.7,1.9c1.1,1.3,0.6,2.2,0.6,2.3
	c-0.2,0.6,0.3,1.6,0.3,1.6c0,0,0,0,0,0.1c0.1,0.9,0.1,1.4-0.2,1.6c-0.1,0-0.1,0.1-0.2,0.1c-1.9,0.6-1.7,1.7-1.6,2.4
	c0,0.3-0.1,0.5-0.3,0.8C30.3,58.4,29.4,59,29,59c-0.4,0-1,0.3-1.4,0.6l-0.2,0.1c-0.5,0.3-1.3,0.3-1.3,0.3
	C25.9,59.9,25.9,59.9,25.8,59.9z"/>
<polygon class="st1" points="68.8,81.1 68.3,81.8 68,81.1 68.2,80.7 "/>
<path class="st1" d="M26.7,85.4l0.4,0.1v0.6c0,0-1.2-0.6-0.6-0.8C26.5,85.2,26.7,85.4,26.7,85.4"/>
<rect x="415.7" y="99.4" class="st0" width="11.4" height="11.2"/>
<rect x="404.5" y="99.4" class="st11" width="11.4" height="11.2"/>
<rect x="438.4" y="99.3" class="st4" width="11.4" height="11.2"/>
<rect x="449.8" y="110.5" class="st11" width="11.4" height="11.2"/>
<rect x="371.1" y="99.4" class="st11" width="11.4" height="11.2"/>
<rect x="427.1" y="118.1" class="st3" width="11.4" height="11.2"/>
<rect x="438.4" y="129.2" class="st11" width="11.4" height="11.2"/>
<rect x="449.8" y="129.2" class="st12" width="11.4" height="11.2"/>
<rect x="393.1" y="99.4" class="st12" width="11.4" height="11.2"/>
<rect x="461.2" y="140.4" class="st0" width="11.4" height="11.2"/>
</svg>
