<?xml version="1.0" encoding="utf-8"?>
<svg xmlns="http://www.w3.org/2000/svg" fill="none" height="100%" overflow="visible" preserveAspectRatio="none" style="display: block;" viewBox="0 0 1241 1453" width="100%">
<g id="Vector" style="mix-blend-mode:color-dodge">
<path d="M1234.09 504.842C1234.66 505.043 1235.25 505.151 1235.85 505.151C1236.89 505.151 1237.92 504.842 1238.8 504.224C1240.18 503.265 1241 501.689 1241 500.019V367.428C1241 365.604 1240.03 363.903 1238.45 362.991L618.489 0.680193C618.489 0.680193 618.489 0.680193 618.473 0.680193C618.334 0.602898 618.18 0.556521 618.025 0.494686C617.762 0.371014 617.499 0.231884 617.236 0.170048C617.097 0.123671 616.942 0.13913 616.787 0.108213C616.493 0.0618357 616.199 0 615.906 0C615.844 0 615.797 0.0154589 615.735 0.0154589C615.349 0.0154589 614.962 0.0618357 614.591 0.170048C614.312 0.247343 614.065 0.371014 613.802 0.494686C613.647 0.556521 613.492 0.602898 613.353 0.680193L2.58342 352.294C2.58342 352.294 2.4906 352.386 2.42872 352.417C2.35138 352.464 2.27403 352.479 2.21215 352.541C2.02651 352.68 1.87182 352.835 1.70165 352.989C1.59337 353.097 1.46961 353.175 1.37679 353.283C1.0674 353.623 0.804418 353.978 0.603313 354.38C0.603313 354.38 0.603313 354.411 0.587844 354.427C0.386739 354.813 0.247513 355.215 0.154696 355.648C0.123757 355.803 0.123757 355.942 0.0928174 356.096C0.0618783 356.313 0.0154696 356.529 0.0154696 356.761V634.11C0.0154696 636.274 1.37679 638.222 3.41878 638.948L939.591 975.041L620.005 1161.82L6.9149 937.105C5.32153 936.533 3.57347 936.749 2.19668 937.708C0.819887 938.666 0 940.243 0 941.928V1082.12C0 1083.93 0.959113 1085.62 2.52154 1086.55L617.87 1452.29C617.87 1452.29 617.901 1452.29 617.917 1452.3C617.917 1452.3 617.948 1452.32 617.963 1452.34C618.211 1452.47 618.489 1452.57 618.752 1452.66C618.891 1452.71 619.03 1452.8 619.17 1452.83C619.603 1452.95 620.051 1453 620.5 1453C620.949 1453 621.397 1452.94 621.83 1452.83C621.97 1452.78 622.109 1452.71 622.248 1452.66C622.511 1452.57 622.79 1452.47 623.037 1452.34C623.037 1452.34 623.068 1452.32 623.083 1452.3C623.083 1452.3 623.114 1452.3 623.13 1452.29L1238.48 1086.55C1240.04 1085.62 1241 1083.93 1241 1082.12V807.822C1241 807.744 1240.97 807.667 1240.97 807.59C1240.97 807.512 1240.98 807.435 1240.97 807.373C1240.97 807.234 1240.89 807.111 1240.88 806.987C1240.83 806.724 1240.78 806.461 1240.69 806.214C1240.63 806.028 1240.55 805.843 1240.46 805.657C1240.35 805.426 1240.23 805.194 1240.07 804.977C1239.96 804.807 1239.84 804.653 1239.7 804.498C1239.53 804.297 1239.34 804.127 1239.14 803.957C1238.99 803.818 1238.82 803.694 1238.65 803.571C1238.56 803.509 1238.49 803.431 1238.4 803.385C1238.26 803.308 1238.11 803.277 1237.97 803.215C1237.84 803.153 1237.74 803.076 1237.61 803.029L303.312 460.552L616.401 280.471L1234.1 504.827L1234.09 504.842ZM1230.7 492.661L621.041 271.227V14.0831L1230.7 370.365V492.676V492.661ZM610.754 14.0058V271.845L293.489 454.338L17.3569 355.664L610.754 14.0058ZM10.2873 630.492V364.12L1223.81 808.904L951.147 968.254L10.2873 630.492ZM10.2873 949.302L615.349 1171.06V1438.82L10.2873 1079.22V949.302ZM625.636 1438.84V1170.43L952.477 979.4C952.57 979.4 952.663 979.447 952.756 979.447C953.668 979.447 954.566 979.199 955.37 978.736L1230.68 816.819V1079.2L625.62 1438.82L625.636 1438.84Z" fill="var(--fill-0, #00101B)" fill-opacity="0.8"/>
</g>
</svg>