<svg xmlns="http://www.w3.org/2000/svg" width="67" height="60" fill="none"><g clip-path="url('#clip0_465_596')"><path d="M54.141 12.43a30.091 30.091 0 0 0-10.64-9.125A29.979 29.979 0 0 0 29.897.003C13.415.003 0 13.463 0 30.003s13.415 30 29.897 30c7.684 0 15.223-3.166 21.243-8.901.448-.414.86-.866 1.23-1.35a.509.509 0 0 0-.663-.743.507.507 0 0 0-.147.132c-.339.436-.711.844-1.115 1.22-5.831 5.562-13.14 8.625-20.563 8.625-15.918 0-28.869-12.996-28.869-28.983 0-15.988 12.951-28.984 28.884-28.984a28.963 28.963 0 0 1 12.954 3.1 29.069 29.069 0 0 1 10.214 8.575 1.19 1.19 0 0 1 .738-.247h.338v-.017Z" fill="#004E78"/><path d="M49.608 49.519a27.471 27.471 0 0 1-18.929 8.165c-.259 0-.518.012-.777.012-.781 0-1.548-.03-2.3-.102a4.464 4.464 0 0 1-.202-.028 25.982 25.982 0 0 1-2.605-.374c.04.029.08.056.122.082a26.815 26.815 0 0 1-7.54-2.599l-.014-.014c-.029-.015-.043-.03-.072-.044-.478-.247-.94-.508-1.404-.784a9.305 9.305 0 0 1-.459-.332 28.149 28.149 0 0 1-2.133-1.482c.04.058.077.117.117.173a27.64 27.64 0 0 1-8.094-9.75 27.739 27.739 0 0 1-2.903-12.35c-.002-.97.046-1.94.144-2.905C3.957 13.2 15.728 2.278 30.03 2.278a27.5 27.5 0 0 1 12.733 3.117 27.606 27.606 0 0 1 9.86 8.664v-.28a.533.533 0 0 1-.014-.421 28.162 28.162 0 0 0-9.964-8.49 28.058 28.058 0 0 0-12.711-3.054C14.434 1.799 1.83 14.447 1.83 29.998A28.283 28.283 0 0 0 5.382 43.71a28.165 28.165 0 0 0 9.747 10.249c.6.444 1.245.823 1.924 1.133.03.014.073.014.102.029a27.924 27.924 0 0 0 10.375 2.976c.391.044.81.073 1.26.087h.014c.362.015.738.03 1.1.03 3.69.01 7.347-.714 10.758-2.132a27.894 27.894 0 0 0 9.108-6.127.255.255 0 0 0-.162-.435Z" fill="#6CB730"/><path d="M11.887 44.35c.128-.22.32-.397.55-.507a2.385 2.385 0 0 0 1.88.276c.797-.233 1.477-.785 2.215-1.845.738-1.06.81-1.989.622-2.032-.188-.044-.26.42-1.65.929-1.389.508-1.736-.102-2.662.508-.652.421-.637 1.292-.58 1.772-.145.066-.278.16-.39.276-.029-1.046-.029-2.15-.029-3.297v-2.294c.177-.256.403-.474.666-.639a2.33 2.33 0 0 0 1.809.232c.796-.232 1.476-.784 2.214-1.844s.81-1.99.622-2.033c-.188-.043-.26.422-1.65.93-1.389.508-1.736-.102-2.662.508-.68.45-.637 1.38-.565 1.844a2.17 2.17 0 0 0-.434.334v-5.955c.177-.256.403-.473.666-.639a2.331 2.331 0 0 0 1.809.233c.796-.233 1.476-.785 2.214-1.845s.81-1.989.622-2.033c-.188-.043-.26.422-1.65.93-1.389.508-1.736-.102-2.662.508-.68.45-.637 1.38-.565 1.844a2.173 2.173 0 0 0-.434.334V28.61a2.222 2.222 0 0 1 1.057-.828.216.216 0 0 0-.145-.406 2.92 2.92 0 0 0-.912.566v-2.832c.177-.256.403-.473.666-.639a2.33 2.33 0 0 0 1.809.233c.796-.232 1.476-.784 2.214-1.844s.81-1.99.622-2.033c-.188-.044-.26.42-1.65.93-1.389.507-1.736-.103-2.662.507-.68.45-.637 1.38-.565 1.845a2.172 2.172 0 0 0-.434.333V21.35a2.222 2.222 0 0 1 1.057-.828.216.216 0 0 0-.145-.407 2.92 2.92 0 0 0-.912.566v-2.497a.262.262 0 0 0-.26-.261.26.26 0 0 0-.26.261v8.858a2.074 2.074 0 0 0-.435-.32c.072-.465.116-1.394-.564-1.844-.926-.61-1.274 0-2.663-.508-1.389-.508-1.461-.973-1.65-.93-.188.044-.13.959.623 2.033.752 1.075 1.418 1.612 2.214 1.845a2.33 2.33 0 0 0 1.809-.233c.265.156.493.369.665.625v2.367a3.105 3.105 0 0 0-.926-.581.215.215 0 0 0-.262.135.217.217 0 0 0 .117.271c.432.163.802.457 1.057.843v2.7a2.762 2.762 0 0 0-.434-.32c.072-.464.115-1.393-.565-1.843-.926-.61-1.273 0-2.662-.508-1.39-.509-1.462-.973-1.65-.93-.188.044-.13.959.622 2.033.753 1.075 1.418 1.612 2.214 1.844a2.328 2.328 0 0 0 1.81-.232c.265.155.492.369.665.624v2.629a2.662 2.662 0 0 0-.854-.509.215.215 0 0 0-.262.136.217.217 0 0 0 .117.27c.394.152.74.408.999.742v2.715a2.072 2.072 0 0 0-.434-.32c.072-.464.115-1.394-.565-1.844-.926-.61-1.273 0-2.662-.508-1.39-.508-1.462-.973-1.65-.93-.188.044-.13.96.622 2.034.753 1.074 1.418 1.611 2.214 1.844a2.328 2.328 0 0 0 1.81-.233c.265.156.492.37.665.625 0 4.385.043 8.35 1.98 11.255.687.526 1.398 1.02 2.134 1.481-2.712-2.092-3.372-5.264-3.535-9.148Z" fill="#6CB730"/><path d="M23.014 53.004c.058-.523.188-.784.318-.915a2.408 2.408 0 0 0 1.896.523c.868-.13 1.664-.61 2.59-1.627.926-1.016 1.143-1.989.94-2.047-.202-.058-.332.407-1.866.74-1.534.335-1.823-.348-2.88.16-.752.363-.854 1.293-.854 1.8a.975.975 0 0 0-.29.306 33.35 33.35 0 0 1-.13-3.108v-2.89c.186-.301.445-.551.753-.725a2.473 2.473 0 0 0 1.925.247c.84-.247 1.563-.828 2.358-1.96.796-1.133.869-2.12.666-2.164-.202-.044-.275.45-1.75.987-1.477.537-1.853-.102-2.837.552-.724.479-.68 1.466-.608 1.96-.18.108-.346.24-.492.392V38.92c.186-.302.445-.552.753-.726a2.473 2.473 0 0 0 1.924.247c.84-.247 1.563-.828 2.359-1.96.796-1.133.868-2.12.666-2.164-.203-.044-.275.45-1.751.987-1.476.537-1.853-.102-2.837.552-.723.479-.68 1.466-.607 1.96-.181.108-.347.24-.492.392v-2.352c.376-.654 1.143-.93 1.157-.93a.23.23 0 0 0-.144-.435c-.37.148-.709.365-.999.639v-2.977c.186-.302.445-.552.753-.726a2.473 2.473 0 0 0 1.924.247c.84-.247 1.563-.828 2.359-1.96.796-1.133.868-2.12.666-2.164-.203-.044-.275.45-1.751.987-1.476.538-1.853-.101-2.837.552-.723.48-.68 1.467-.608 1.96-.18.108-.346.24-.491.393v-5.722a.247.247 0 0 0-.247-.247.245.245 0 0 0-.245.247v1.859a3.038 3.038 0 0 0-1.086-.712.228.228 0 0 0-.29.146.23.23 0 0 0 .146.29c.014 0 .839.305 1.2 1.017.015.014.015.029.03.043v5.866a2.781 2.781 0 0 0-.492-.377c.072-.494.13-1.481-.608-1.96-.984-.64-1.36 0-2.836-.552-1.477-.552-1.549-1.031-1.752-.988-.202.044-.13 1.017.666 2.164.796 1.147 1.505 1.713 2.359 1.96a2.472 2.472 0 0 0 1.925-.247c.3.174.553.418.738.712v2.498a2.664 2.664 0 0 0-1.013-.64.229.229 0 0 0-.277.321.229.229 0 0 0 .132.115c.014 0 .796.29 1.158.944v2.832a2.786 2.786 0 0 0-.492-.378c.072-.494.13-1.481-.608-1.96-.984-.64-1.36 0-2.836-.552-1.477-.552-1.549-1.03-1.752-.987-.202.043-.13 1.016.666 2.163.796 1.147 1.505 1.714 2.359 1.96a2.47 2.47 0 0 0 1.925-.246c.3.173.553.417.738.711v2.846a3.192 3.192 0 0 0-1.086-.726.229.229 0 0 0-.277.32.229.229 0 0 0 .133.116c.014 0 .839.305 1.2 1.016.015.015.03.044.044.058v2.701a2.786 2.786 0 0 0-.492-.377c.072-.494.13-1.481-.608-1.96-.984-.64-1.36 0-2.836-.552-1.476-.552-1.549-1.031-1.751-.988-.203.044-.13 1.017.666 2.164.796 1.147 1.505 1.713 2.358 1.96a2.47 2.47 0 0 0 1.925-.247c.3.174.553.418.738.712v.13c0 4.145.46 6.904 2.469 8.296.857.166 1.726.29 2.604.375-2.729-.392-3.912-1.88-4.378-4.561Z" fill="#6CB730"/><path d="M25.806 51.045c1.1-.349 2.141-1.176 2.952-2.105-.188-.03-.362.42-1.853.74-1.534.349-1.823-.348-2.88.16-.839.406-.853 1.336-.824 1.786.854-.29 1.505-.232 2.605-.581ZM25.792 43.814c1.042-.494 1.968-1.452 2.648-2.483-.188-.015-.303.464-1.736.987-1.476.552-1.852-.102-2.836.552-.782.508-.666 1.437-.58 1.888.811-.407 1.462-.45 2.504-.944ZM25.779 36.8c1.041-.494 1.968-1.452 2.648-2.483-.188-.014-.304.465-1.737.987-1.476.552-1.852-.101-2.836.552-.781.508-.666 1.438-.579 1.888.809-.423 1.46-.45 2.504-.944ZM25.763 30.004c1.042-.493 1.968-1.452 2.648-2.483-.188-.014-.304.465-1.736.988-1.476.552-1.853-.102-2.837.552-.781.508-.665 1.437-.579 1.887.81-.42 1.476-.451 2.504-.944ZM19.222 46.615c-1.042-.494-1.968-1.452-2.648-2.483.188-.015.304.464 1.737.987 1.476.552 1.852-.102 2.836.552.781.508.666 1.437.579 1.888-.81-.406-1.462-.45-2.504-.944ZM19.236 39.603c-1.042-.494-1.968-1.453-2.648-2.483.188-.015.304.464 1.736.987 1.476.552 1.853-.102 2.837.552.781.508.665 1.437.578 1.888-.81-.422-1.46-.45-2.503-.944ZM19.252 32.807c-1.042-.494-1.968-1.452-2.648-2.483.188-.015.303.464 1.736.987 1.476.552 1.852-.101 2.836.552.782.508.666 1.438.58 1.888-.811-.421-1.462-.45-2.504-.944Z" fill="#39AD39"/><path d="M20.322 27.565a1.42 1.42 0 0 0 1.419-1.423 1.42 1.42 0 0 0-1.419-1.423 1.42 1.42 0 0 0-1.418 1.423 1.42 1.42 0 0 0 1.418 1.423ZM20.395 37.497a1.42 1.42 0 0 0 1.418-1.423 1.42 1.42 0 0 0-1.418-1.423 1.42 1.42 0 0 0-1.418 1.423 1.42 1.42 0 0 0 1.418 1.423ZM20.322 44.554a1.42 1.42 0 0 0 1.419-1.423 1.42 1.42 0 0 0-1.419-1.423 1.42 1.42 0 0 0-1.418 1.423 1.42 1.42 0 0 0 1.418 1.423ZM24.606 35.217a1.42 1.42 0 0 0 1.418-1.423 1.42 1.42 0 0 0-1.418-1.423 1.42 1.42 0 0 0-1.419 1.423 1.42 1.42 0 0 0 1.419 1.423Z" fill="#F49A00"/><path d="M14.563 42.521c.984-.464 1.852-1.365 2.489-2.338-.174-.014-.29.436-1.636.93-1.389.508-1.736-.102-2.662.508-.738.48-.622 1.365-.55 1.771.767-.363 1.39-.408 2.359-.87ZM14.592 36.132c.984-.465 1.852-1.365 2.489-2.338-.174-.014-.29.436-1.635.93-1.39.508-1.737-.102-2.663.508-.738.479-.622 1.365-.55 1.771.767-.377 1.375-.408 2.359-.87ZM14.576 29.525c.984-.464 1.853-1.365 2.49-2.338-.174-.014-.29.436-1.636.93-1.389.508-1.736-.102-2.662.508-.739.48-.623 1.365-.55 1.771.767-.377 1.374-.406 2.358-.87ZM14.563 23.136c.984-.465 1.852-1.365 2.489-2.338-.174-.014-.29.436-1.636.93-1.389.508-1.736-.102-2.662.508-.738.479-.622 1.365-.55 1.771.767-.377 1.39-.406 2.359-.871ZM8.413 38.76c-.984-.464-1.852-1.364-2.49-2.337.174-.015.29.435 1.636.929 1.39.508 1.737-.102 2.663.508.738.48.622 1.365.55 1.772-.767-.363-1.391-.407-2.36-.872ZM8.426 32.153c-.984-.464-1.852-1.364-2.489-2.337.174-.015.29.435 1.636.929 1.389.508 1.736-.102 2.662.508.738.48.623 1.365.55 1.772-.767-.363-1.389-.407-2.359-.872ZM8.426 25.764c-.984-.464-1.852-1.365-2.489-2.338.174-.014.29.436 1.636.93 1.389.508 1.736-.102 2.662.508.738.48.623 1.365.55 1.771-.752-.363-1.374-.406-2.359-.87Z" fill="#39AD39"/><path d="M13.462 20.798c.735 0 1.332-.598 1.332-1.336 0-.738-.597-1.336-1.332-1.336-.735 0-1.331.598-1.331 1.336 0 .738.596 1.336 1.331 1.336ZM9.513 30.179c.735 0 1.331-.598 1.331-1.336 0-.738-.596-1.336-1.331-1.336s-1.331.598-1.331 1.336c0 .738.596 1.336 1.331 1.336ZM9.57 36.887c.735 0 1.33-.598 1.33-1.336 0-.738-.595-1.336-1.33-1.336-.736 0-1.332.598-1.332 1.336 0 .738.596 1.336 1.332 1.336ZM13.462 28.03c.735 0 1.332-.599 1.332-1.336 0-.738-.597-1.336-1.332-1.336-.735 0-1.331.598-1.331 1.336 0 .737.596 1.335 1.331 1.335Z" fill="#E40B14"/><path d="M37.032 14.524h-.854a.305.305 0 0 0-.304.305v5.082h-5.948v-5.082a.307.307 0 0 0-.303-.305h-.854a.305.305 0 0 0-.304.305v12.255a.307.307 0 0 0 .304.305h.854a.305.305 0 0 0 .303-.305v-5.837h5.948v5.837a.307.307 0 0 0 .304.305h.854a.305.305 0 0 0 .304-.305v-12.27a.314.314 0 0 0-.304-.29ZM41.345 17.846h-.805a.305.305 0 0 0-.304.305v8.93a.307.307 0 0 0 .304.305h.81a.305.305 0 0 0 .304-.305v-8.927a.306.306 0 0 0-.31-.308ZM48.97 26.007h-1.91c-1.403 0-1.403-.61-1.403-.872 0-.392.188-.667.463-.929.454.212.947.32 1.447.32 1.94 0 3.386-1.482 3.386-3.442a3.384 3.384 0 0 0-.607-1.96h1.403a.305.305 0 0 0 .304-.305v-.665a.307.307 0 0 0-.304-.305h-2.96a3.607 3.607 0 0 0-1.23-.218 3.347 3.347 0 0 0-2.448.986 3.368 3.368 0 0 0-.982 2.456c.007.92.364 1.803.998 2.468-.39.334-.853.9-.853 1.7a1.957 1.957 0 0 0 .636 1.48c-.752.64-1.172 1.423-1.172 2.193 0 1.684 1.549 2.773 3.95 2.773 2.823 0 4.501-1.684 4.501-3.31-.005-1.6-1.047-2.37-3.218-2.37Zm-1.417-7.115c1.158 0 1.997.914 1.997 2.178 0 1.263-.854 2.207-1.997 2.207-1.143 0-2.026-.959-2.026-2.207.014-1.293.84-2.178 2.026-2.178Zm-1.505 8.378c.343.072.691.116 1.042.13H49c1.548 0 1.765.509 1.765 1.06 0 .945-1.143 1.961-2.98 1.961-1.65 0-2.663-.61-2.663-1.583-.015-.58.318-1.132.926-1.568ZM57.697 17.628c-1.144 0-2.012.538-2.779 1.22v-5.155a.307.307 0 0 0-.304-.305h-.81a.305.305 0 0 0-.304.305v13.374a.307.307 0 0 0 .304.305h.81a.305.305 0 0 0 .304-.305V20.46c.984-.988 1.679-1.496 2.62-1.496.911 0 1.736.305 1.736 2.498v5.62a.306.306 0 0 0 .304.304h.81a.305.305 0 0 0 .304-.305V21.35c-.014-2.469-1.013-3.72-2.995-3.72ZM40.953 14.216a1 1 0 0 0-.974.639 1.01 1.01 0 0 0-.068.406 1.047 1.047 0 0 0 1.042 1.046 1.04 1.04 0 0 0 1.042-1.046 1.008 1.008 0 0 0-.637-.977 1 1 0 0 0-.405-.068Z" fill="#39AD39"/><path d="M41.473 29.927v-.737a.307.307 0 0 0-.303-.305h-8.64a.305.305 0 0 0-.303.305v.74a.306.306 0 0 0 .304.305h3.603V41.46a.307.307 0 0 0 .304.305h.853a.305.305 0 0 0 .304-.305V30.235H41.2a.3.3 0 0 0 .274-.308ZM45.44 31.99c-2.027 0-4.168 1.756-4.168 5.009 0 2.919 1.808 4.966 4.413 4.966 1.331 0 2.156-.436 2.952-.915a.308.308 0 0 0 .116-.392l-.333-.639a.307.307 0 0 0-.188-.145.36.36 0 0 0-.246.044 3.6 3.6 0 0 1-2.214.74c-1.708 0-2.909-1.307-3.039-3.267h6.107a.289.289 0 0 0 .29-.247c.035-.24.05-.483.043-.726-.03-2.773-1.419-4.429-3.734-4.429Zm-2.707 4.138c.26-1.685 1.346-2.832 2.72-2.832 1.419 0 2.23 1.002 2.316 2.832h-5.036ZM57.204 39.743a.25.25 0 0 0-.202-.116.265.265 0 0 0-.232.073c-.477.435-1.23.944-2.17.944-1.752 0-2.924-1.467-2.924-3.645 0-2.135 1.23-3.688 2.923-3.688.68 0 1.274.261 1.91.871a.297.297 0 0 0 .42-.03l.478-.58a.291.291 0 0 0-.03-.407c-.592-.551-1.46-1.176-2.806-1.176-2.099 0-4.356 1.569-4.356 5.01 0 2.977 1.736 4.966 4.341 4.966 1.07 0 2.098-.421 3.039-1.249a.312.312 0 0 0 .043-.406l-.434-.567ZM63.47 31.99c-1.143 0-2.011.537-2.778 1.22v-5.156a.307.307 0 0 0-.304-.305h-.81a.305.305 0 0 0-.305.305v13.374a.307.307 0 0 0 .304.305h.81a.305.305 0 0 0 .305-.305V34.82c.984-.987 1.678-1.496 2.619-1.496.911 0 1.736.305 1.736 2.498v5.62a.307.307 0 0 0 .304.304h.81a.304.304 0 0 0 .304-.305v-5.718c0-2.468-1.013-3.735-2.995-3.735ZM39.39 45.508h-1.389a.063.063 0 0 0-.058.058v.276a.062.062 0 0 0 .058.058h1.028v1.322c-.272.212-.611.32-.955.305-.97 0-1.578-.77-1.578-2.019s.622-1.99 1.621-1.99a1.266 1.266 0 0 1 .998.451.053.053 0 0 0 .044.014c.014 0 .029-.014.043-.014l.188-.218a.093.093 0 0 0 0-.087 1.711 1.711 0 0 0-1.288-.566c-1.258 0-2.069.944-2.069 2.41 0 1.467.782 2.425 2.012 2.425a1.857 1.857 0 0 0 1.389-.537.054.054 0 0 0 .014-.044v-1.8c.015-.015-.014-.044-.058-.044ZM45.034 45.755c.709-.116 1.129-.58 1.129-1.278 0-.842-.521-1.263-1.549-1.263h-1.302a.062.062 0 0 0-.058.058v4.545a.062.062 0 0 0 .058.058h.318a.062.062 0 0 0 .058-.058v-2.033h.868l1.216 2.062a.075.075 0 0 0 .058.029h.361a.075.075 0 0 0 .058-.029.044.044 0 0 0 0-.058l-1.215-2.033Zm-1.346-2.163h.84c.81 0 1.186.26 1.186.87s-.39.93-1.187.93h-.839v-1.8ZM51.372 43.112c-1.158 0-1.925.959-1.925 2.396 0 1.438.782 2.44 1.925 2.44s1.939-.973 1.939-2.44c0-1.423-.781-2.396-1.94-2.396Zm0 4.43c-.897 0-1.476-.8-1.476-2.02 0-1.219.579-1.989 1.476-1.989s1.476.785 1.476 1.99-.579 2.018-1.476 2.018ZM60.083 43.2h-.29a.062.062 0 0 0-.057.057v2.777c0 .987-.405 1.51-1.172 1.51-.767 0-1.144-.508-1.144-1.51V43.26a.063.063 0 0 0-.057-.058h-.319a.062.062 0 0 0-.058.058v2.803c0 1.64.999 1.888 1.578 1.888.578 0 1.591-.247 1.591-1.888V43.26a.095.095 0 0 0-.072-.06ZM65.293 43.2H64.15a.062.062 0 0 0-.058.057v4.546a.062.062 0 0 0 .058.058h.318a.062.062 0 0 0 .058-.058v-1.888h.796c1.085 0 1.678-.494 1.678-1.394 0-.9-.535-1.322-1.707-1.322Zm-.767.392h.68c.97 0 1.331.26 1.331.943 0 .683-.39.988-1.302.988h-.71v-1.931Z" fill="#004E78"/></g><defs><clipPath id="clip0_465_596"><path fill="#fff" d="M0 0h67v60H0z"/></clipPath></defs></svg>