<?xml version="1.0" encoding="UTF-8" standalone="no"?>
<svg
   width="107.75"
   height="25.0942"
   viewBox="0 0 107.75 25.0942"
   fill="none"
   version="1.1"
   id="svg11"
   sodipodi:docname="tbwa.svg"
   xmlns:inkscape="http://www.inkscape.org/namespaces/inkscape"
   xmlns:sodipodi="http://sodipodi.sourceforge.net/DTD/sodipodi-0.dtd"
   xmlns="http://www.w3.org/2000/svg"
   xmlns:svg="http://www.w3.org/2000/svg">
  <sodipodi:namedview
     id="namedview11"
     pagecolor="#ffffff"
     bordercolor="#000000"
     borderopacity="0.25"
     inkscape:showpageshadow="2"
     inkscape:pageopacity="0.0"
     inkscape:pagecheckerboard="0"
     inkscape:deskcolor="#d1d1d1"
     showgrid="false" />
  <defs
     id="defs11">
    <clipPath
       id="clip2_0_1-8">
      <rect
         width="93"
         height="26"
         fill="#ffffff"
         transform="translate(1153)"
         id="rect8-3"
         x="0"
         y="0" />
    </clipPath>
  </defs>
  <g
     clip-path="url(#clip2_0_1-8)"
     id="g3"
     transform="translate(-1153,-0.5)">
    <path
       d="m 1153,0.5 v 5.25 h 6.56 V 25.5 h 5.79 V 5.75 h 6.55 V 0.5 Z m 67.26,0 -4.18,15.352 h -0.07 L 1212.24,0.5 h -6.14 l -3.83,15.352 h -0.07 L 1198.01,0.5 h -6.2 l 7.74,25 h 5.33 l 4.33,-16.444 h 0.03 l 4.15,16.444 h 5.34 l 7.74,-25 z m 13.34,7.113 h 0.07 l 2.72,8.415 h -5.48 z m -2.76,-7.113 -9.06,25 h 6.1 l 1.43,-4.472 h 8.68 l 1.47,4.472 h 6.1 l -9.14,-25 z m -44.15,17.218 c 0,-1.549 -1.16,-2.64 -3.67,-2.64 h -3.35 v 5.281 h 3.35 c 2.17,0 3.67,-0.881 3.67,-2.641 z m -7.02,-7.255 h 2.76 c 1.74,0 3.14,-0.811 3.14,-2.394 0,-1.408 -1.01,-2.395 -3.35,-2.395 h -2.55 z m 13.08,8.063 c 0,4.015 -2.61,6.973 -7.91,6.973 h -10.88 V 0.5 h 9.34 c 5.51,0 8.16,2.253 8.16,6.091 0.05,1.18419 -0.27,2.35477 -0.91,3.349 -0.64,0.9897 -1.58,1.7524 -2.68,2.18 v 0.07 c 3.35,0.916 4.88,3.24 4.88,6.338"
       fill="#1e212e"
       id="path3" />
  </g>
  <path
     d="m 93.41,0.09424 9.14,24.99996 h 5.2 L 98.61,0.09424 Z"
     fill="#fecc00"
     id="path4" />
</svg>
