<?xml version="1.0" encoding="UTF-8" standalone="no"?>
<!-- Generator: Adobe Illustrator 12.0.0, SVG Export Plug-In . SVG Version: 6.00 Build 51448)  -->

<svg
   xmlns:dc="http://purl.org/dc/elements/1.1/"
   xmlns:cc="http://creativecommons.org/ns#"
   xmlns:rdf="http://www.w3.org/1999/02/22-rdf-syntax-ns#"
   xmlns:svg="http://www.w3.org/2000/svg"
   xmlns="http://www.w3.org/2000/svg"
   xmlns:xlink="http://www.w3.org/1999/xlink"
   xmlns:sodipodi="http://sodipodi.sourceforge.net/DTD/sodipodi-0.dtd"
   xmlns:inkscape="http://www.inkscape.org/namespaces/inkscape"
   version="1.1"
   id="Layer_1"
   width="1004.142"
   height="1110.87"
   viewBox="0 0 1004.1421 1110.87"
   overflow="visible"
   enable-background="new 0 0 107.567 119"
   xml:space="preserve"
   inkscape:version="0.92.3 (2405546, 2018-03-11)"
   sodipodi:docname="Unilever_2004_(Black).svg"
   style="overflow:visible"><defs
   id="defs4237" /><sodipodi:namedview
   pagecolor="#ffffff"
   bordercolor="#666666"
   borderopacity="1"
   objecttolerance="10"
   gridtolerance="10"
   guidetolerance="10"
   inkscape:pageopacity="0"
   inkscape:pageshadow="2"
   inkscape:window-width="1366"
   inkscape:window-height="705"
   id="namedview4235"
   showgrid="false"
   inkscape:zoom="0.25"
   inkscape:cx="-573.25375"
   inkscape:cy="310.4829"
   inkscape:window-x="-8"
   inkscape:window-y="-8"
   inkscape:window-maximized="1"
   inkscape:current-layer="Layer_1" />
<g
   id="g4175"
   transform="matrix(9.3352541,0,0,9.335043,-0.0143191,-4.9297826e-5)"
   style="fill:#0f0e9a;fill-opacity:1">
	<g
   id="g4177"
   style="fill:#0f0e9a;fill-opacity:1">
		<defs
   id="defs4179">
			<rect
   id="XMLID_1_"
   x="0"
   width="107.566"
   height="119"
   y="0" />
		</defs>
		<clipPath
   id="XMLID_3_">
			<use
   xlink:href="#XMLID_1_"
   id="use4183"
   x="0"
   y="0"
   width="100%"
   height="100%" />
		</clipPath>
		<path
   clip-path="url(#XMLID_3_)"
   d="m 13.854,104.624 c -0.176,-0.561 -0.69,-1.822 -0.83,-2.753 -0.309,-2.062 0.769,-3.42 1.759,-3.731 1.111,-0.31 1.545,0.248 1.975,1.545 0.556,1.975 0.618,4.563 0.431,8.268 -0.243,5.061 -2.775,11.173 -9.069,11.046 -5.433,-0.119 -7.837,-3.638 -8.087,-9.007 -0.118,-2.531 0.063,-5.061 1.111,-8.639 0.556,-1.916 1.052,-2.598 2.777,-2.965 1.356,-0.248 1.234,1.17 0.927,2.842 -0.676,3.701 -0.99,5.488 -0.74,9.687 0.242,4.444 2.283,6.173 4.505,6.173 3.333,0.064 4.813,-2.713 5.433,-6.729 0.489,-3.208 0.12,-4.751 -0.192,-5.737 z m 71.064,4.383 c 1.298,0 1.67,1.535 1.36,2.465 -0.31,0.924 -1.419,1.978 -3.146,2.285 -0.372,-0.928 -0.558,-4.75 1.786,-4.75 z m -24.126,2.092 c 0,-1.045 -0.559,-1.91 -1.232,-1.91 -0.562,0 -1.853,0.615 -1.853,2.591 0,1.548 0.55,2.282 0.802,2.597 1.785,-0.558 2.283,-2.043 2.283,-3.278 z M 41.594,98.511 c -0.087,-0.99 -0.863,-1.664 -1.913,-1.664 -1.171,0 -2.274,1.229 -2.157,2.773 0.075,1.018 0.675,1.855 1.854,1.855 1.353,0.001 2.34,-1.542 2.216,-2.964 z m 10.037,3.625 c -0.107,-1.726 -0.525,-2.505 -1.452,-2.441 -1.229,0.074 -1.797,3.941 -1.546,8.006 0.16,2.652 0.555,3.061 0.923,3.035 0.68,-0.041 2.311,-4.779 2.075,-8.6 z m 40.941,6.497 c -0.765,3.173 -3.084,7.841 -6.544,7.841 -0.801,0 -2.221,-0.311 -2.221,-1.113 0,-0.865 5.435,-0.984 5.435,-5.122 0,-1.541 -1.419,-3.704 -3.519,-3.704 -2.777,0 -5.486,3.027 -5.486,7.223 0,3.762 2.337,4.997 4.682,4.997 4.075,0 6.544,-3.335 7.839,-6.11 0.62,1.852 0.984,6.11 2.533,6.11 0.615,0 1.05,-0.309 1.791,-1.973 1.847,-4.138 3.639,-8.89 6.109,-8.89 0.923,0 0.37,1.67 2.591,1.67 1.047,0 1.785,-0.864 1.785,-1.856 0,-1.421 -1.294,-2.528 -3.267,-2.528 -5.803,0 -7.033,8.703 -7.96,8.703 -1.544,0 -1.05,-6.975 -2.163,-6.975 -0.988,-0.001 -1.473,1.176 -1.605,1.727 z M 43.2,116.038 c 0.925,0 2.516,-0.3 3.768,-2.305 -0.716,-1.59 -1.227,-4.803 -1.298,-5.973 -0.368,-5.983 1.937,-11.611 4.46,-11.767 1.85,-0.112 3.33,1.639 3.5,4.476 0.455,7.455 -2.028,10.567 -3.271,13.252 0.21,1.041 1.976,2.813 3.642,2.813 0.615,0 1.359,-0.309 1.546,-0.559 -0.124,-0.429 -0.25,-0.984 -0.25,-1.789 0,-4.32 2.778,-7.963 5.186,-7.963 1.913,0 3.024,2.53 3.024,4.2 0,1.972 -1.668,3.58 -4.135,5.123 0.434,0.429 1.232,0.741 1.914,0.741 3.521,0 5.363,-4.26 6.727,-8.15 0.246,-0.742 0.681,-1.789 1.543,-1.789 1.481,0 2.101,9.752 4.563,9.752 1.053,0 1.915,-2.162 1.915,-3.824 0,-1.236 -0.432,-1.36 -0.432,-3.15 0,-1.973 1.05,-3.638 2.473,-3.638 0.863,0 1.175,0.86 1.175,1.907 0,3.951 -2.843,11.297 -7.034,11.297 -3.153,0 -2.907,-5.432 -4.017,-5.432 -1.24,0 -2.968,5.493 -9.072,5.493 -0.992,0 -2.039,-0.493 -2.901,-1.483 -1.479,0.99 -2.717,1.422 -4.137,1.422 -2.281,0 -3.271,-2.346 -4.194,-2.346 -1.113,0 -2.344,2.407 -6.051,2.407 -2.962,0 -3.456,-3.946 -4.503,-3.946 -0.928,0 -2.347,3.946 -3.889,3.946 -2.596,0 -3.146,-6.849 -5.434,-6.849 -1.789,0 -7.444,6.956 -8.979,6.797 -0.617,-0.064 -0.877,-0.525 -0.812,-1.143 0.087,-0.854 0.822,-3.14 1.12,-4.221 0.499,-1.877 0.957,-3.934 1.213,-4.59 0.254,-0.662 0.939,-1.134 1.489,-1.083 0.277,0.026 0.36,0.543 0.446,0.97 0.312,1.526 0.747,3.082 1.238,3.082 0.867,0 3.73,-5.494 5.396,-5.494 2.04,0 2.284,8.643 5.06,8.643 0.928,0 1.609,-1.109 2.224,-2.471 0.063,-2.287 0.68,-5.551 2.531,-5.551 1.297,0 1.915,2.898 0.986,5.432 -0.002,3.022 1.971,3.763 3.27,3.763"
   id="path4185"
   inkscape:connector-curvature="0"
   style="fill:#0f0e9a;fill-opacity:1" />
	</g>
	<path
   d="m 86.188,19.254 c -0.458,0 -1.114,0 -1.475,-0.719 -0.296,-0.59 -0.196,-1.541 -0.753,-1.966 0.557,0.163 1.146,0.163 1.604,0.163 1.476,0 2.886,-1.015 3.968,-1.015 0.713,0 0.943,0.459 0.943,0.916 0.001,1.443 -2.909,2.621 -4.287,2.621 z m 0.72,3.701 c 3.403,0 6.519,-2.718 6.519,-5.108 0,-1.115 -0.526,-2.031 -1.869,-2.195 0.229,0.295 0.327,0.524 0.327,1.048 0,1.802 -2.745,3.8 -5.729,3.8 -1.082,0 -1.41,0.752 -1.41,1.145 0,0.918 0.886,1.31 2.162,1.31 z m -0.261,1.376 c 0.427,3.11 5.14,7.303 6.417,7.204 0.854,-0.072 1.181,-4.061 1.181,-7.204 0,-1.801 0.099,-3.21 -0.852,-3.538 -1.509,3.047 -5.467,3.669 -6.746,3.538"
   id="path4187"
   inkscape:connector-curvature="0"
   style="fill:#0f0e9a;fill-opacity:1" />
	<path
   d="m 12.933,44.93 c 1.112,0 0.883,-6.813 2.684,-6.813 0.427,0 0.558,0.426 0.558,0.95 0,1.539 -0.754,3.8 -0.754,5.043 0,0.623 0.164,0.82 0.459,0.82 0.787,0 2.162,-7.501 3.504,-7.501 0.426,0 0.622,0.426 0.622,0.852 0,1.572 -1.996,6.091 -1.996,7.368 0,0.197 0.064,0.36 0.229,0.36 0.819,0 2.456,-3.536 2.979,-5.304 0.295,-0.918 0.688,-1.41 1.049,-1.41 0.327,0 0.623,0.361 0.623,1.115 0,1.768 -1.639,5.927 -3.08,8.712 -1.112,2.161 -2.848,5.27 -2.848,7.006 0,0.885 0.161,1.801 1.439,2.915 -2.096,-0.131 -2.947,-0.327 -3.732,-1.964 -3.505,6.975 6.451,6.288 3.045,12.475 -0.623,-1.111 -5.534,-2.258 -5.534,-8.742 0,-5.6 4.911,-8.875 4.911,-11.199 0,-0.458 -0.162,-0.851 -0.588,-1.211 -1.082,-0.919 -1.115,-1.67 -1.966,-1.67 -0.621,0 -1.377,1.44 -0.59,2.717 0.263,0.426 0.492,0.688 0.492,1.081 0,0.916 -1.442,3.371 -2.456,3.371 -1.016,0 -1.8,-2.518 -1.8,-6.581 0,-3.604 0.817,-7.237 1.833,-7.237 0.294,0 0.392,0.196 0.392,0.459 0,0.426 -0.13,1.276 -0.13,2.717 0,1.539 0.36,1.671 0.655,1.671"
   id="path4189"
   inkscape:connector-curvature="0"
   style="fill:#0f0e9a;fill-opacity:1" />
	<path
   d="m 21.282,54.524 c 1.377,0 2.522,-1.017 2.522,-3.273 l 0,-3.342 c 0,-1.277 0.099,-2.717 0.951,-3.734 -0.099,0.427 -0.099,0.885 -0.099,1.311 0,2.817 1.571,4.75 1.571,7.467 0,1.014 -0.295,1.572 -1.079,1.572 -0.754,0 -0.688,-0.688 -0.853,-0.688 -0.13,0 -0.327,0.425 -0.327,0.884 0,0.688 0.491,1.768 1.866,1.768 1.18,0 2.128,-1.08 2.128,-2.292 0,-2.945 -2.292,-6.222 -2.292,-9.365 0,-1.376 0.36,-2.292 0.655,-3.014 0,6.518 5.534,11.266 5.534,13.983 0,0.623 -0.458,1.115 -1.146,1.115 -0.753,0 -1.114,-0.591 -1.114,-1.05 0,-0.229 -0.033,-0.294 -0.131,-0.294 -0.195,0 -0.785,0.655 -0.785,1.508 0,1.079 0.883,2.391 2.521,2.391 1.865,0 2.881,-1.574 2.881,-2.982 0,-3.437 -6.713,-8.645 -6.713,-14.211 0,-0.951 0.162,-2.49 0.852,-3.668 -4.323,2.782 -5.665,6.484 -5.665,9.726 0,2.817 -0.098,4.223 -1.539,4.223 -0.754,0 -0.95,-0.686 -1.213,-0.686 -0.196,0 -0.295,0.589 -0.295,0.752 0.002,1.211 0.887,1.899 1.77,1.899"
   id="path4191"
   inkscape:connector-curvature="0"
   style="fill:#0f0e9a;fill-opacity:1" />
	<path
   d="m 70.897,17.65 c 0.416,-0.279 2.262,0.163 4.649,-1.017 0.294,-0.161 0.589,-0.227 0.851,-0.227 1.148,0 0.853,1.309 1.902,1.309 0.817,0 1.868,-0.688 2.491,-0.688 0.976,0 2.385,3.079 2.385,4.52 0,1.67 -2.517,2.686 -5.499,2.686 -4.353,0 -6.976,-3.799 -6.976,-6.256 10e-4,-0.196 0.1,-0.262 0.197,-0.327 z m 7.14,4.159 c 1.442,0 2.523,-0.655 2.523,-1.049 0,-0.129 -0.196,-0.228 -0.623,-0.228 -0.426,0 -1.278,-0.032 -2.884,-0.295 -1.378,-0.229 -2.426,-0.753 -2.819,-0.753 -0.131,0 -0.197,0.065 -0.197,0.163 0,0.853 1.574,2.162 4,2.162"
   id="path4193"
   inkscape:connector-curvature="0"
   style="fill:#0f0e9a;fill-opacity:1" />
	<path
   d="m 21.971,66.87 c -1.08,0.263 -2.817,1.963 -2.817,4.652 0,3.207 3.439,8.154 9.104,8.154 4.78,0 5.96,-3.308 5.96,-5.537 0,-4.944 -3.044,-8.416 -7.006,-8.416 -2.162,0 -4.095,1.572 -4.095,3.896 0,2.164 1.638,5.405 5.534,5.405 1.834,0 2.914,-1.312 2.914,-2.814 0,-1.475 -1.342,-3.504 -3.308,-3.504 -0.589,0 -1.014,0.389 -1.014,1.014 0,0.784 1.079,1.572 2.423,1.572 0.326,0 0.589,-0.066 0.721,-0.132 0.064,0.101 0.098,0.263 0.098,0.394 0,0.754 -0.721,1.213 -1.834,1.213 -1.67,0 -3.275,-1.244 -3.275,-3.213 0,-1.176 1.016,-2.027 2.489,-2.027 2.914,0 4.649,2.586 4.649,5.175 0,2.323 -1.275,3.668 -3.896,3.668 -5.24,-0.001 -7.792,-4.718 -6.647,-9.5"
   id="path4195"
   inkscape:connector-curvature="0"
   style="fill:#0f0e9a;fill-opacity:1" />
	<path
   d="m 59.353,86.058 c 1.571,0 1.489,-0.131 1.981,-0.131 0.49,0 0.524,0.295 0.524,0.492 0,0.721 -1.606,1.605 -4.455,1.605 -1.67,0 -2.686,-0.885 -2.98,-1.867 -1.637,1.048 -4.125,1.998 -6.582,1.998 -6.712,0 -8.415,-2.917 -10.512,-3.864 -1.605,-0.721 -4.061,0.688 -7.5,-3.144 0.459,0.099 1.082,0.131 1.573,0.131 3.011,0 4.616,-1.471 4.616,-3.831 0,-0.296 -0.033,-0.62 -0.066,-0.914 0.918,0.36 3.015,1.93 3.507,4.713 0.064,0.328 1.406,0.622 2.258,0.622 1.18,0 2.686,-0.492 2.915,-2.422 3.93,-0.327 6.584,-2.651 7.141,-5.602 1.406,0.459 3.011,1.736 3.404,2.393 0.557,-0.196 1.211,-0.295 1.964,-0.295 1.048,0 2.228,0.197 3.635,0.623 0.066,-0.426 0.131,-0.95 0.787,-0.95 0.982,0 0.72,1.081 1.048,1.7 0.164,0.328 0.984,0.524 0.984,1.18 0,0.624 -0.527,0.854 -0.854,0.854 -0.131,0 -0.295,-0.033 -0.394,-0.065 -0.654,0.229 -0.688,4.942 -3.438,4.942 -2.029,0 -3.896,-1.67 -4.716,-3.764 -0.229,-0.622 -0.72,-1.016 -1.179,-1.016 -0.523,0 -0.818,0.099 -1.439,0.787 -1.768,1.93 -4.716,3.6 -8.351,3.6 -1.114,0 -1.998,-0.1 -2.228,-0.1 -0.132,0 -0.132,0.033 -0.132,0.065 0,0.23 1.113,1.115 3.537,1.115 5.764,0 7.173,-3.243 8.089,-3.243 0.133,0 0.523,0 0.752,0.525 1.345,3.142 4.277,3.863 6.111,3.863 z m -2.539,-6.545 c 0,0.721 0.59,1.311 1.311,1.311 0.721,0 1.31,-0.59 1.31,-1.311 0,-0.722 -0.589,-1.312 -1.31,-1.312 -0.721,0 -1.311,0.59 -1.311,1.312"
   id="path4197"
   inkscape:connector-curvature="0"
   style="fill:#0f0e9a;fill-opacity:1" />
	<path
   d="m 82.75,63.169 c -0.459,0 -0.95,0.361 -0.95,1.247 0,0.979 0.754,1.603 1.179,1.798 0.23,0.133 0.591,0.264 0.948,0.264 0.951,0 1.706,-0.264 1.706,-1.051 -10e-4,-1.011 -1.477,-2.258 -2.883,-2.258 z m -3.533,2.029 c -0.688,0 -4.492,5.076 -6.943,5.076 -0.589,0 -1.081,-1.113 -1.081,-1.961 0,-0.459 0.294,-0.787 1.345,-1.018 5.631,-1.277 4.385,-5.503 9.195,-5.503 2.652,0 5.604,1.804 5.604,5.863 0,4.323 -6.153,9.692 -7.071,9.692 -0.754,0 -1.573,-1.08 -1.573,-1.8 0,-0.229 0.099,-0.524 0.754,-0.786 3.14,-1.246 4.939,-4.127 4.939,-5.602 0,-0.328 -0.163,-0.652 -0.589,-0.652 -0.556,0 -2.94,5.434 -5.596,5.434 -1.837,0 -3.705,-1.666 -3.705,-2.454 0,-1.312 5.311,-3.733 5.311,-5.569 -0.001,-0.689 -0.328,-0.72 -0.59,-0.72"
   id="path4199"
   inkscape:connector-curvature="0"
   style="fill:#0f0e9a;fill-opacity:1" />
	<path
   d="m 14.406,22.268 c 0,0 -0.949,0.719 -2.128,0.719 -1.407,0 -2.521,-1.047 -2.521,-2.521 0,-1.016 0.524,-2.063 1.735,-2.588 -0.032,0.197 -0.032,0.36 -0.032,0.557 -0.001,1.868 1.047,3.275 2.946,3.833 z m 7.008,6.288 c -0.72,0.85 -1.474,2.292 -1.474,3.765 0,1.768 1.082,3.241 2.752,3.241 1.604,0 2.358,-1.375 2.358,-2.782 0,-2.194 -1.998,-3.735 -3.636,-4.224 z m -10.871,1.309 c -0.062,0.101 -0.099,0.23 -0.099,0.361 0,0.295 0.328,0.622 0.621,0.622 0.262,0 0.426,-0.065 0.557,-0.065 0.785,0 1.67,0.556 2.947,0.556 0.752,0 1.637,-0.23 2.75,-0.785 2.358,-1.18 3.276,-4.094 3.276,-4.586 0,-0.623 -0.5,-0.541 -0.918,-1.114 -0.418,-0.571 -0.258,-1.076 -0.524,-1.343 -0.151,-0.153 -0.621,-0.163 -1.212,-0.229 -0.197,-0.021 -0.459,-0.033 -0.721,-0.033 -1.079,0 -2.36,0.133 -3.798,1.049 -2.84,1.813 -2.422,4.814 -2.879,5.567 z m 7.695,-4.061 c 0.227,0.309 0.853,0.689 0.853,0.918 0,0.457 -0.264,1.048 -0.787,1.048 -1.147,0 -2.063,-1.736 -2.063,-2.72 0,-0.621 0.361,-0.686 0.851,-0.686 0.229,0 0.328,0.033 0.491,0.131 0.294,0.164 0.294,0.818 0.655,1.309 z M 15.224,29.8 c -1.08,0 -2.259,-1.342 -2.259,-2.555 0,-0.654 0.491,-1.474 0.851,-1.474 0.131,0 0.197,0.099 0.229,0.329 0.196,1.604 1.245,2.522 2.228,2.979 0.098,0.065 0.164,0.098 0.164,0.163 0,0.23 -0.623,0.558 -1.213,0.558 z m 2.785,-8.253 c 0.163,-0.525 0.294,-1.178 0.294,-1.9 0,-1.571 -0.722,-3.962 -2.948,-3.962 -1.276,0 -2.195,1.015 -2.195,2.227 0,2.588 2.588,3.635 4.849,3.635 z M 9.527,34.646 c 0,2.488 0.754,3.668 2.096,3.668 1.048,0 2.456,-0.754 4.125,-2.195 -1.276,0.295 -2.26,0.492 -3.143,0.492 -1.179,0 -2.095,-0.459 -3.078,-1.965 z m 1.147,-2.915 c -0.032,0.165 -0.032,0.328 -0.032,0.491 0,1.539 0.817,2.391 1.898,2.391 0.816,0 1.768,-0.491 2.617,-1.573 -0.358,0.065 -0.785,0.098 -1.178,0.098 -1.21,0 -2.52,-0.326 -3.305,-1.407 z m 8.023,-0.458 c -0.755,0.196 -2.326,1.113 -2.326,2.75 0,1.178 0.916,1.933 2.063,1.933 0.59,0 1.015,-0.132 1.277,-0.328 -0.916,-0.884 -1.244,-1.867 -1.244,-2.848 0,-0.689 0.098,-1.114 0.23,-1.507 z M 19.875,22.3 c 0,0.72 0.589,1.311 1.309,1.311 0.721,0 1.311,-0.59 1.311,-1.311 0,-0.72 -0.59,-1.311 -1.311,-1.311 -0.72,0 -1.309,0.591 -1.309,1.311 z m 1.702,2.947 c 0,0.721 0.591,1.311 1.313,1.311 0.719,0 1.309,-0.59 1.309,-1.311 0,-0.719 -0.59,-1.309 -1.309,-1.309 -0.723,0 -1.313,0.59 -1.313,1.309"
   id="path4201"
   inkscape:connector-curvature="0"
   style="fill:#0f0e9a;fill-opacity:1" />
	<path
   d="m 72.668,41.326 c 0,-0.654 0.59,-1.211 1.237,-1.211 0.722,0 1.279,0.557 1.279,1.211 0,0.753 -0.558,1.278 -1.279,1.278 -0.647,0 -1.237,-0.525 -1.237,-1.278 z M 61.17,31.24 c 0,0.72 0.591,1.31 1.309,1.31 0.723,0 1.313,-0.59 1.313,-1.31 0,-0.719 -0.591,-1.309 -1.313,-1.309 -0.718,0 -1.309,0.59 -1.309,1.309 z m -1.112,4.617 c 0,1.016 0.849,1.866 1.866,1.866 1.014,0 1.868,-0.85 1.868,-1.866 0,-1.014 -0.854,-1.867 -1.868,-1.867 -1.017,0 -1.866,0.853 -1.866,1.867 z m 4.127,-2.096 c 0,1.115 0.885,1.998 1.992,1.998 1.113,0 2.001,-0.883 2.001,-1.998 0,-1.113 -0.888,-1.997 -2.001,-1.997 -1.107,0 -1.992,0.884 -1.992,1.997 z m 0.165,-4.257 c 0,0.689 0.557,1.247 1.238,1.247 0.688,0 1.245,-0.558 1.245,-1.247 0,-0.686 -0.558,-1.243 -1.245,-1.243 -0.681,0 -1.238,0.557 -1.238,1.243 z m 5.925,-3.142 c 0,0.686 0.557,1.243 1.246,1.243 0.688,0 1.246,-0.557 1.246,-1.243 0,-0.689 -0.558,-1.246 -1.246,-1.246 -0.689,0 -1.246,0.557 -1.246,1.246 z m -2.458,4.028 c 0,1.145 0.95,2.094 2.097,2.094 1.148,0 2.099,-0.949 2.099,-2.094 0,-1.148 -0.95,-2.096 -2.099,-2.096 -1.147,0 -2.097,0.948 -2.097,2.096 z m -3.37,7.662 c 0,0.721 0.59,1.309 1.305,1.309 0.721,0 1.312,-0.588 1.312,-1.309 0,-0.721 -0.591,-1.31 -1.312,-1.31 -0.715,0 -1.305,0.589 -1.305,1.31 z m 4.288,-2.621 c 0,0.721 0.589,1.311 1.312,1.311 0.72,0 1.31,-0.59 1.31,-1.311 0,-0.719 -0.59,-1.309 -1.31,-1.309 -0.723,0 -1.312,0.59 -1.312,1.309 z m -1.212,4.618 c 0,1.244 1.015,2.26 2.261,2.26 1.245,0 2.263,-1.016 2.263,-2.26 0,-1.244 -1.018,-2.26 -2.263,-2.26 -1.246,0 -2.261,1.016 -2.261,2.26 z m 4.718,-2.785 c 0,0.853 0.689,1.541 1.535,1.541 0.852,0 1.54,-0.688 1.54,-1.541 0,-0.85 -0.688,-1.538 -1.54,-1.538 -0.846,0 -1.535,0.688 -1.535,1.538 z m -0.098,-4.126 c 0,0.755 0.624,1.377 1.369,1.377 0.755,0 1.378,-0.622 1.378,-1.377 0,-0.752 -0.623,-1.374 -1.378,-1.374 -0.745,0 -1.369,0.622 -1.369,1.374"
   id="path4203"
   inkscape:connector-curvature="0"
   style="fill:#0f0e9a;fill-opacity:1" />
	<path
   d="m 75.479,76.106 c -0.852,0.656 -2.844,2.127 -6.155,2.127 -1.769,0 -2.556,-0.557 -2.818,-0.557 -0.328,0 -0.688,0.327 -1.049,0.754 -0.778,0.918 -1.795,2.621 -1.795,4.486 0,1.309 1.017,2.617 2.909,2.617 6.13,0 10.711,-3.83 10.711,-6.939 0,-1.767 -1.048,-2.488 -1.803,-2.488 z m -1.703,-0.36 c 0.265,-0.226 0.327,-0.589 0.327,-0.951 l 0,-0.753 c 0,-0.951 -1.435,-1.505 -3.402,-1.505 -2.393,0 -3.671,1.078 -3.671,1.538 l 0,1.506 c 0,0.624 1.443,1.246 3.213,1.246 1.409,0 2.687,-0.36 3.533,-1.081 z m -0.264,3.242 c 0.165,0 0.36,0.097 0.36,0.688 0,0.719 -0.326,1.668 -1.5,2.42 -0.819,0.559 -1.934,1.018 -3.572,1.047 0.262,-0.783 0.459,-1.604 0.459,-2.386 0,-0.263 -0.032,-0.46 -0.065,-0.754 l 0.426,0 c 2.589,0.001 3.704,-1.015 3.892,-1.015"
   id="path4205"
   inkscape:connector-curvature="0"
   style="fill:#0f0e9a;fill-opacity:1" />
	<path
   d="m 61.006,38.97 c 0.36,2.782 4.097,1.374 4.097,4.746 0,0.492 -0.131,1.214 -0.131,1.835 0,0.721 0.064,1.343 0.616,1.343 0.556,0 0.688,-0.392 0.688,-0.917 0,-0.525 -0.132,-1.179 -0.132,-1.539 0,-1.147 0.82,-1.408 1.313,-1.408 1.245,0 2.195,1.277 4.064,1.277 -0.427,2.096 -4.753,1.539 -4.753,3.832 0,1.147 1.147,1.407 1.901,1.407 0.688,0 0.918,-0.098 0.918,-0.686 0,-0.329 -0.066,-0.689 -0.066,-0.918 0,-0.132 0.099,-0.263 0.263,-0.263 0.723,0 4.253,2.686 4.253,3.506 0,0.752 -3.729,1.505 -4.81,1.505 -0.328,0 -0.394,-0.229 -0.394,-0.36 0,-0.229 0.557,-0.917 0.557,-1.309 0,-0.295 -0.491,-0.492 -1.803,-0.492 -0.623,0 -1.082,0.066 -1.082,0.558 0,0.882 1.442,1.964 1.442,2.781 0,0.656 -0.393,1.049 -1.442,1.049 -0.885,0 -2.223,-0.689 -2.223,-1.834 0,-0.917 0.945,-1.832 0.945,-2.39 0,-0.164 -0.125,-0.426 -0.518,-0.426 -1.214,0 -1.541,3.208 -5.833,3.569 0.688,-0.622 1.276,-1.31 1.276,-2.716 0,-0.688 -0.162,-1.246 -0.162,-1.998 0,-0.983 0.457,-1.475 1.112,-1.475 1.211,0 1.801,1.702 2.59,1.702 0.427,0 0.885,-0.391 0.885,-0.981 0,-2.489 -4.783,-2.129 -4.783,-5.633 0.001,-0.95 0.327,-2.129 1.212,-3.765 z m 15.62,9.595 c 0,0.817 0.264,1.767 1.083,1.767 0.688,0 1.277,-1.046 1.277,-2.193 0,-1.31 -0.229,-2.326 -0.229,-2.851 0,-0.228 0.099,-0.326 0.229,-0.326 0.492,0.033 0.95,1.375 1.476,1.375 0.59,0 1.469,-1.082 1.828,-1.082 0.099,0 0.131,0.132 0.131,0.164 0,0.492 -0.754,1.574 -0.754,1.999 0,0.36 1.901,0.425 1.901,0.753 0,0.492 -1.993,0.492 -2.942,0.918 -0.917,0.392 -1.477,0.883 -1.477,1.539 0,0.655 0.656,0.785 1.574,0.785 2.188,0 3.728,-1.178 4.219,-1.178 0.098,0 0.163,0.064 0.163,0.163 0,0.328 -1.113,1.408 -1.113,1.9 0,0.556 2.032,1.209 1.999,1.538 -0.032,0.098 -0.164,0.13 -0.393,0.13 -0.362,0 -0.918,-0.098 -1.345,-0.098 -0.262,0 -0.491,0.032 -0.591,0.163 -0.227,0.263 0.066,1.999 -0.39,1.999 -0.427,0 -1.541,-3.864 -4.057,-3.864 -0.361,0 -0.623,0.295 -0.623,0.786 0,1.309 1.278,2.815 2.491,3.536 0.549,0.361 1.468,0.721 1.468,0.919 0,0.391 -2.091,0.032 -2.091,0.686 0,0.59 0.262,1.476 0.262,1.998 0,0.164 -0.033,0.359 -0.229,0.359 -0.393,0 -1.345,-1.8 -1.803,-1.8 -0.393,0 -1.245,1.08 -1.606,1.08 -0.098,0 -0.163,-0.098 -0.163,-0.195 0,-0.754 1.213,-2.456 1.213,-4.127 0,-0.786 -0.099,-2.489 -1.05,-2.489 -0.786,0 -1.672,1.244 -2.065,2.489 -0.228,0.72 -0.065,3.504 -0.59,3.504 -0.491,0 -0.36,-1.866 -1.017,-1.866 -0.483,0 -1.532,0.883 -1.893,0.883 -0.066,0 -0.132,-0.033 -0.132,-0.098 0,-0.392 0.951,-1.67 0.951,-1.932 0,-0.491 -2.163,-0.556 -2.163,-0.949 0,-0.23 0.852,-0.393 1.638,-0.525 1.666,-0.295 4.123,-1.506 4.123,-3.208 0,-1.899 -1.835,-2.719 -3.041,-3.505 -0.623,-0.393 -1.311,-0.719 -1.311,-0.981 0,-0.263 0.786,-0.263 1.114,-0.263 0.491,0 0.977,-0.033 0.977,-0.425 0,-0.296 -0.066,-0.884 -0.066,-1.343 0,-0.328 0.032,-0.59 0.165,-0.59 0.491,0 1.179,1.604 1.508,1.604 0.523,0 1.244,-1.31 1.737,-1.31 0.162,0 0.229,0.099 0.229,0.393 0.002,1.212 -0.622,2.587 -0.622,3.768"
   id="path4207"
   inkscape:connector-curvature="0"
   style="fill:#0f0e9a;fill-opacity:1" />
	<path
   d="m 61.957,57.634 c 1.508,0.197 1.869,0.72 1.869,1.147 0,0.721 -0.656,0.949 -1.28,0.949 -0.457,0 -0.982,-0.098 -1.539,-0.098 -0.722,0 -1.441,0.164 -2.03,0.852 0.425,0.065 1.048,0.361 1.048,1.017 0,1.899 -5.272,0.325 -5.272,5.207 0,2.586 2.686,5.404 6.745,5.404 2.099,0 3.442,-0.688 3.442,-1.476 0,-0.621 -1.113,-0.197 -1.113,-0.721 0,-0.229 0.393,-0.656 0.393,-1.018 0,-0.158 -0.131,-0.455 -0.393,-0.455 -0.592,0 -1.706,0.947 -3.966,0.947 -1.769,0 -3.505,-1.012 -3.505,-2.389 0,-0.294 0.132,-0.459 0.328,-0.459 0.197,0 0.458,0.132 0.688,0.132 0.197,0 0.229,-0.132 0.229,-0.491 0,-0.361 0,-1.377 0.621,-1.377 0.624,0 1.803,2.293 6.325,2.293 1.501,0 4.418,-0.293 5.5,-1.277 -0.033,3.603 -2.853,8.351 -8.745,8.351 -6.124,0 -9.399,-4.913 -9.399,-9.433 0,-5.009 4.092,-9.56 9.694,-9.56 1.439,0 2.654,0.49 2.654,1.113 -0.001,0.853 -2.131,0.328 -2.294,1.342 z m 10.055,1.738 c 0.229,0.358 0.328,0.719 0.328,1.046 0,0.918 -0.623,1.769 -0.623,2.72 0,1.08 0.82,1.963 2.059,1.963 1.343,0 2.261,-1.078 2.261,-2.357 0,-1.736 -1.573,-3.209 -4.025,-3.372 z M 61.17,61.467 c 0.326,0.326 0.426,0.654 0.426,0.982 0,0.491 -0.229,1.016 -0.229,1.573 0,0.783 0.59,1.472 1.44,1.472 0.919,0 1.543,-0.722 1.543,-1.57 0,-1.245 -1.282,-2.457 -3.18,-2.457 z m 4.353,-5.568 c 3.441,0.655 5.309,3.243 5.309,5.667 0,1.671 -1.048,3.207 -2.884,3.207 -1.672,0 -2.878,-1.145 -2.878,-2.979 0,-1.375 1.074,-2.816 1.074,-4.225 0,-0.556 -0.163,-1.113 -0.621,-1.67 z m 1.704,4.356 c 0,0.458 0.328,0.819 0.787,0.819 0.523,0 0.852,-0.459 0.852,-0.983 0,-0.687 -0.623,-1.637 -1.213,-1.637 -0.263,0 -0.164,0.393 -0.229,0.819 -0.034,0.326 -0.197,0.719 -0.197,0.982"
   id="path4209"
   inkscape:connector-curvature="0"
   style="fill:#0f0e9a;fill-opacity:1" />
	<path
   d="m 31.076,26.558 c 1.113,0 2.389,-6.026 2.389,-7.042 0,-0.262 -0.097,-0.459 -0.326,-0.459 -1.016,0 -2.423,5.732 -2.423,7.01 -0.001,0.229 0.064,0.491 0.36,0.491 z m 8.023,1.801 c 0.817,0 1.734,-3.145 1.734,-5.11 0,-0.426 -0.065,-0.883 -0.263,-0.883 -0.688,0 -1.834,3.242 -1.834,5.01 0.001,0.688 0.166,0.983 0.363,0.983 z m -5.341,-2.915 c 0.36,0 0.819,-0.395 1.673,-1.342 0.064,-0.426 0.064,-0.82 0.064,-1.311 0,-0.654 -0.262,-1.375 -0.654,-1.375 -0.984,0 -1.474,2.62 -1.474,3.309 0.001,0.391 0.196,0.719 0.391,0.719 z m 4.488,-1.342 c 0,-0.558 -0.132,-0.689 -0.262,-0.689 -0.328,0 -0.687,0.394 -1.211,1.278 0.065,1.179 0.262,1.703 0.589,1.703 0.36,0 0.884,-1.147 0.884,-2.292 z m 2.522,-3.865 c 2.162,0 3.143,1.867 3.143,3.963 0,0.916 -0.26,2.26 -0.686,2.26 -0.426,0 -0.36,-0.754 -0.426,-1.442 -0.065,-0.884 -0.23,-1.08 -0.525,-1.08 -0.557,0 -0.916,1.309 -0.916,2.522 0,0.752 0.131,1.604 0.719,1.604 0.328,0 0.623,-0.164 0.82,-0.36 -0.131,1.505 -1.246,2.817 -2.817,2.817 -2.882,0 -3.963,-3.374 -4.289,-5.339 -1.736,1.834 -3.34,3.177 -6.223,3.177 -2.684,0 -3.896,-1.965 -3.896,-3.831 0,-0.558 0.196,-1.998 0.885,-1.998 0.818,0 0.098,2.684 1.702,2.684 0.394,0 1.112,-0.328 1.507,-1.407 0.229,-0.656 0.36,-1.342 0.36,-1.933 0,-0.885 -0.196,-1.44 -0.851,-1.44 -0.558,0 -1.246,0.424 -1.475,0.654 0.787,-2.358 2.686,-3.569 4.779,-3.569 2.59,0 3.964,2.292 3.964,4.847 0,0.359 -0.033,0.752 -0.099,1.113 1.114,-1.834 2.655,-3.242 4.324,-3.242"
   id="path4211"
   inkscape:connector-curvature="0"
   style="fill:#0f0e9a;fill-opacity:1" />
	<path
   d="m 34.644,29.045 c -1.408,0 -1.473,1.706 -1.473,5.142 -1.049,-2.259 -2.783,-4.683 -4.814,-4.683 -1.375,0 -1.898,0.918 -1.898,2.521 0,0.328 0.032,0.82 0.098,1.113 0.164,-0.555 0.688,-0.785 1.342,-0.785 1.41,0 3.112,1.08 4.225,2.555 -1.276,-0.229 -2.521,-0.459 -3.568,-0.459 -0.656,0 -1.245,0.066 -1.736,0.295 -0.95,0.425 -2.227,1.834 -2.227,3.963 0,0.328 0.033,0.687 0.099,1.08 1.146,-2.555 4.191,-3.701 6.156,-3.701 0.394,0 0.687,0.033 0.917,0.066 -1.016,0.916 -1.244,2.521 -1.311,3.602 -0.031,0.524 -0.229,0.558 -0.59,0.558 0,1.079 0.853,2.685 0.853,3.503 0,0.295 -0.164,0.557 -0.327,0.623 0,1.441 1.439,2.489 1.439,3.405 0,0.229 -0.064,0.426 -0.164,0.525 0.1,0.59 1.684,1.581 1.889,2.078 0.252,0.604 0.535,0.706 0.699,0.706 0.557,0 1.439,-0.656 1.439,-1.246 0,-0.196 -0.164,-0.425 -0.293,-0.524 -0.623,-0.457 -0.951,-1.44 -1.213,-2.094 -0.23,0 -0.526,-0.097 -0.63,-0.483 -0.179,-0.678 -0.188,-1.941 -0.45,-2.695 -0.426,-0.098 -0.623,-0.262 -0.623,-1.146 0,-0.426 0.263,-2.097 0.263,-2.687 -0.196,0 -0.458,-0.131 -0.458,-0.524 0,-1.047 1.049,-1.866 1.342,-3.208 1.867,1.374 2.324,2.782 2.324,4.028 0,0.653 -0.098,1.276 -0.229,1.867 1.376,-0.689 3.439,-1.704 3.439,-3.767 0,-1.213 -0.557,-2.555 -4.258,-3.079 1.146,-0.426 2.588,-0.654 3.799,-0.654 2.097,0 3.308,0.654 3.569,2.127 0.426,-0.654 0.754,-1.408 0.754,-2.095 0,-1.606 -1.344,-2.652 -3.046,-2.652 -1.998,0 -3.766,1.046 -5.666,2.325 0.854,-1.768 1.44,-2.816 2.49,-2.816 0.163,0 0.327,0.033 0.491,0.066 -0.393,-1.44 -1.866,-2.85 -2.653,-2.85"
   id="path4213"
   inkscape:connector-curvature="0"
   style="fill:#0f0e9a;fill-opacity:1" />
	<path
   d="m 89.82,52.657 c 1.64,0 2.95,2.128 2.95,4.618 0,2.652 -1.246,5.535 -3.467,7.498 -0.033,-4.42 -5.443,-3.012 -5.443,-6.22 0,-1.375 0.985,-2.293 2.165,-2.293 1.049,0 1.868,0.295 2.458,0.886 -0.59,-0.558 -0.885,-1.345 -0.885,-2.097 0,-1.247 0.787,-2.392 2.222,-2.392"
   id="path4215"
   inkscape:connector-curvature="0"
   style="fill:#0f0e9a;fill-opacity:1" />
	<path
   d="m 60.58,21.547 c 0.853,0.819 1.604,1.178 2.522,1.178 0.362,0 0.789,-0.097 1.019,-0.097 0.295,0 0.49,0.13 0.49,0.359 0,0.361 -0.328,0.951 -0.72,1.279 0.392,0.163 0.819,0.229 1.278,0.229 1.86,0 3.99,-1.18 3.99,-4.126 0.395,0.522 0.624,1.604 0.624,2.096 0,3.569 -2.623,4.944 -5.041,4.944 -1.573,0 -2.361,-0.525 -2.559,-0.525 -0.621,0 -0.588,1.246 -1.014,1.213 -0.754,-0.131 -1.44,-1.801 -1.44,-3.569 10e-4,-1.049 0.263,-2.162 0.851,-2.981 z m 4.943,-2.391 c -0.262,-0.426 -1.24,-0.654 -1.697,-0.654 -1.444,0 -2.427,1.014 -2.623,1.932 -0.131,-0.328 -0.229,-0.721 -0.229,-1.114 0,-1.441 0.983,-3.209 3.377,-3.209 2.09,0 2.909,1.113 3.205,1.113 0.327,0 0.655,-0.328 0.918,-0.328 0.36,0 0.36,0.557 0.36,0.951 0,1.309 -0.591,3.569 -2.065,4.388 -0.263,-0.557 -0.787,-1.18 -1.633,-1.572 -0.229,-0.098 -0.327,-0.294 -0.327,-0.491 -10e-4,-0.361 0.326,-0.82 0.714,-1.016"
   id="path4217"
   inkscape:connector-curvature="0"
   style="fill:#0f0e9a;fill-opacity:1" />
	<path
   d="m 37.82,12.017 c 0,1.146 4.093,6.746 4.88,6.746 0.656,0 1.146,-1.146 1.146,-2.13 0,-0.26 -0.066,-0.521 -0.195,-0.719 -0.59,-0.819 -4.749,-4.094 -5.667,-4.094 -0.099,0 -0.164,0.099 -0.164,0.197 z M 13.75,8.644 c 0,0.656 -2.488,2.849 -3.371,2.849 -0.327,0 -0.427,-0.392 -0.427,-0.752 0,-0.654 0.295,-1.572 0.656,-1.868 0.424,-0.393 1.407,-0.587 2.16,-0.587 0.458,0 0.982,0.096 0.982,0.358 z m 29.901,1.9 c 0,-1.966 -5.313,-5.535 -5.372,-7.073 -0.006,-0.141 0.071,-0.281 0.19,-0.406 0.91,-0.96 4.689,-1.66 4.689,-2.478 0,-0.424 -0.787,-0.424 -1.18,-0.424 -3.045,0 -7.499,1.113 -7.499,2.193 0,1.115 3.995,3.833 3.995,5.176 0,0.36 -0.229,0.491 -0.59,0.491 -1.112,0 -3.536,-1.344 -4.682,-1.344 -0.524,0 -0.722,0.36 -0.722,0.886 0,1.571 1.867,4.551 1.867,5.433 0,0.099 -0.033,0.23 -0.164,0.23 -0.59,0 -3.371,-3.273 -4.355,-3.273 -0.359,0 -0.393,0.49 -0.393,1.211 l 0,1.113 c 0,0.753 -0.033,1.212 -0.391,1.212 -0.854,0 -1.246,-2.39 -2.064,-2.39 -0.852,0 -1.016,4.256 -1.833,4.256 -0.951,0 -0.132,-4.683 -1.049,-4.683 -1.015,0 -2.162,3.112 -2.883,3.112 -0.261,0 -0.326,-0.263 -0.326,-0.492 0,-0.949 0.555,-2.488 0.555,-3.404 0,-0.46 -0.131,-0.721 -0.522,-0.721 -1.017,0 -3.243,1.637 -4.094,1.637 -0.131,0 -0.295,-0.065 -0.295,-0.197 0,-0.784 3.569,-3.274 3.569,-4.387 0,-1.082 -4.914,-0.36 -4.914,-1.606 0,-1.047 3.507,-2.128 3.507,-3.209 0,-0.95 -4.16,-1.374 -5.764,-1.374 -1.933,0 -2.98,0.227 -2.98,0.784 0,0.852 4.389,1.115 4.389,1.867 0,0.721 -4.553,2.653 -4.553,3.766 0,0.983 6.418,0.065 6.418,1.082 0,1.112 -5.598,5.925 -5.598,7.53 0,0.361 0.262,0.525 0.621,0.525 1.703,0 6.122,-3.242 7.335,-3.242 0.426,0 0.459,0.523 0.459,0.982 0,0.852 -0.294,2.161 -0.294,3.112 0,0.752 0.196,1.276 0.85,1.276 1.214,0 2.325,-2.063 3.146,-2.063 1.047,0 0.425,6.058 1.997,6.058 1.342,0 1.898,-6.549 2.75,-6.549 0.852,0 1.541,1.899 2.326,1.899 0.981,0 0.523,-3.307 1.572,-3.307 1.145,0 4.42,3.93 5.894,3.93 0.458,0 0.621,-0.361 0.621,-0.82 0,-1.736 -2.422,-5.664 -2.422,-6.908 0,-0.327 0.097,-0.426 0.457,-0.426 1.277,0 5.012,1.768 6.779,1.768 0.594,0 0.953,-0.327 0.953,-0.753 z M 40.244,4.06 c 0,0.589 2.063,1.867 3.014,1.867 0.556,0 0.72,-0.754 0.72,-1.54 0,-0.982 -0.424,-1.015 -1.277,-1.015 -1.081,0 -2.457,0.295 -2.457,0.688 z M 32.548,0.719 c 0,-0.197 -0.982,-0.394 -2.324,-0.394 -2.129,0 -1.834,1.771 -3.471,1.771 -1.703,0 -1.279,-1.836 -3.44,-1.836 -1.31,0 -2.52,0.23 -2.52,0.524 0,0.394 1.538,0.23 1.538,1.312 0,1.145 -3.308,1.473 -3.308,2.161 0,0.229 0.261,0.327 0.589,0.327 0.722,0 1.866,-0.327 2.686,-0.327 0.459,0 0.885,0.097 0.885,0.523 0,0.819 -1.77,2.293 -1.77,2.948 0,0.197 0.163,0.263 0.327,0.263 0.656,0 1.77,-1.671 2.817,-1.671 1.736,0 0.591,3.7 1.539,3.7 0.982,0 0.557,-3.636 1.965,-3.636 1.148,0 1.998,2.522 2.784,2.522 0.197,0 0.36,-0.163 0.36,-0.393 0,-0.686 -0.982,-2.096 -0.982,-3.012 0,-0.557 0.393,-0.82 0.917,-0.82 0.752,0 1.768,0.459 2.323,0.459 0.196,0 0.393,-0.065 0.393,-0.294 0,-0.786 -2.912,-1.637 -2.912,-2.652 0.001,-1.016 1.604,-1.016 1.604,-1.475"
   id="path4219"
   inkscape:connector-curvature="0"
   style="fill:#0f0e9a;fill-opacity:1" />
	<path
   d="m 90.606,6.026 c 0,2.913 -2.123,5.14 -5.959,5.762 0.427,0.032 0.82,0.032 1.214,0.032 4.483,0 6.123,-2.029 6.123,-3.731 0,-0.951 -0.525,-1.801 -1.378,-2.063 z m -5.532,3.306 c 0,-2.325 -5.563,-2.915 -5.563,-3.438 0,-0.425 3.106,-1.147 4.711,-1.18 -2.456,-3.143 -5.956,-2.815 -5.956,-3.372 0,-0.328 2.621,-0.984 5.041,-0.984 2.03,0 3.93,0.459 3.93,1.998 0,0.853 -0.688,1.738 -0.688,3.046 0,0.721 0.358,1.343 1.311,1.343 1.018,0 1.245,-1.08 1.245,-2.228 0,-0.948 -0.163,-1.669 -0.163,-2.128 0,-1.375 0.943,-2.291 2.287,-2.291 1.114,0 1.377,0.489 3.016,0.489 -0.886,0.526 -1.213,1.476 -1.213,1.933 0,1.377 0.887,2.326 0.887,5.143 0,5.172 -4.846,7.006 -10.776,7.006 -1.63,0 -3.369,-0.131 -5.074,-0.392 -0.261,-0.033 -0.327,-0.098 -0.327,-0.262 0,-0.426 2.328,-0.656 2.328,-2.75 0,-0.82 -0.263,-1.605 -0.263,-1.899 0,-0.164 0.131,-0.263 0.263,-0.263 0.491,0 1.476,1.899 3.304,1.899 0.486,0 1.7,-0.164 1.7,-1.67 z M 90.41,2.096 c 0,0.457 0.36,0.817 0.819,0.817 0.459,0 0.82,-0.36 0.82,-0.817 0,-0.459 -0.361,-0.82 -0.82,-0.82 -0.459,0 -0.819,0.361 -0.819,0.82"
   id="path4221"
   inkscape:connector-curvature="0"
   style="fill:#0f0e9a;fill-opacity:1" />
	<path
   d="m 87.5,32.353 c 0,-0.687 -1.738,-0.752 -1.901,-2.685 -0.034,-0.294 -0.132,-0.817 -0.493,-0.817 -0.589,0 -0.131,1.801 -0.786,1.801 -1.506,0 -1.997,-2.948 -2.554,-2.948 -0.132,0 -0.288,0.098 -0.288,0.491 0,0.361 0.066,0.59 0.066,1.014 0,0.427 -0.1,0.722 -0.492,0.722 -0.885,0 -1.672,-2.064 -2.426,-2.064 -0.164,0 -0.327,0.099 -0.327,0.263 0,0.393 0.654,1.112 0.654,1.473 0,0.787 -2.13,0.36 -2.13,1.016 0,0.295 0.294,0.392 0.688,0.392 0.689,0 1.771,-0.293 2.328,-0.293 0.328,0 0.819,0.065 0.819,0.489 0,0.459 -1.18,1.048 -1.18,1.474 0,0.197 0.196,0.294 0.36,0.294 0.885,0 2.451,-1.538 3.565,-1.538 0.196,0 0.687,0.098 0.687,0.393 0,0.425 -1.113,1.177 -1.113,1.8 0,0.164 0.1,0.36 0.296,0.36 0.586,0 1.373,-1.538 2.488,-1.538 0.426,0 1.049,0.164 1.378,0.164 0.263,0 0.361,-0.164 0.361,-0.263 z m 0.852,15.883 c 0.525,-1.636 1.181,-2.784 2.254,-4.552 -1.073,-0.555 -3.926,-1.736 -3.926,-3.668 0,-2.26 2.817,-4.028 3.401,-4.028 0.263,0 0.328,0.23 0.328,0.656 0,1.178 -0.557,3.077 -0.557,4.093 0,0.916 0.59,1.802 1.114,1.802 0.557,0 2.097,-1.965 2.097,-3.898 0,-3.472 -3.048,-4.519 -3.991,-4.519 -0.885,0 -2.491,1.44 -6.259,1.44 -7.039,0 -8.645,-6.973 -8.645,-10.02 0,-0.131 0.031,-0.164 0.064,-0.164 0.164,0 0.854,0.853 3.081,0.853 1.147,0 2.196,-0.296 3.868,-0.296 3.923,0 5.661,2.72 8.087,6.189 1.467,0.916 4.975,2.391 4.975,6.55 0,3.668 -3.9,5.698 -4.844,9.628 1.5,-0.163 2.386,-2.85 3.926,-2.85 0.787,0 1.147,0.623 1.147,1.607 0,1.439 -0.82,3.602 -2.393,4.944 0.032,-0.131 0.032,-0.296 0.032,-0.492 0,-0.916 -0.359,-2.225 -1.41,-2.225 -1.631,0 -2.155,1.768 -3.072,3.24 -0.951,-3.339 -2.229,-6.353 -4.521,-8.187 -2.319,-1.866 -6.319,-0.852 -6.319,-4.257 0,-0.918 0.591,-2.227 0.591,-3.275 0,-0.36 -0.066,-0.688 -0.264,-0.95 3.147,1.18 2.032,3.274 3.968,5.436 1.205,1.377 4.547,2.686 6.48,8.351 0.032,-0.163 0.065,-0.588 0.065,-0.883 0,-4.847 -6.416,-9.597 -6.973,-11.562 3.727,0.426 4.382,1.344 6.152,6.256 0.363,1.016 1.544,3.538 1.544,4.781"
   id="path4223"
   inkscape:connector-curvature="0"
   style="fill:#0f0e9a;fill-opacity:1" />
	<path
   d="m 70.439,13.589 c -2.295,0 -3.802,-1.145 -3.802,-1.736 0,-0.295 0.196,-0.49 0.46,-0.49 0.72,0 2.293,1.112 2.816,1.112 0.133,0 0.23,-0.064 0.23,-0.261 0,-0.59 -0.557,-1.572 -0.557,-2.062 0,-0.132 0.099,-0.229 0.295,-0.229 0.884,0 2.195,0.36 2.885,0.36 0.229,0 0.294,-0.131 0.294,-0.263 0,-0.72 -2.131,-2.128 -2.131,-2.554 0,-0.393 2.648,-0.984 2.648,-1.604 0,-0.656 -3.6,-0.197 -3.6,-0.82 0,-0.458 0.689,-1.244 0.689,-1.604 0,-0.164 -0.132,-0.229 -0.36,-0.229 -0.295,0 -1.868,0.622 -2.524,0.622 -0.327,0 -0.721,-0.065 -0.721,-0.525 0,-0.753 1.278,-1.571 3.278,-1.571 3.237,0 5.172,2.227 5.172,5.96 0.002,4.716 -3.302,5.894 -5.072,5.894 z M 64.055,7.368 c 0,-0.361 -1.28,-1.048 -1.28,-1.441 0,-0.065 0.064,-0.098 0.163,-0.098 0.362,0 0.985,0.131 1.478,0.131 0.426,0 0.491,-1.834 0.813,-1.834 0.229,0 0.621,1.736 0.984,1.736 0.425,0 1.211,-0.492 1.539,-0.492 0.065,0 0.131,0.032 0.131,0.099 0,0.229 -0.819,1.112 -0.819,1.374 0,0.295 1.836,0.656 1.836,0.918 0,0.328 -1.869,0.295 -1.869,0.59 0,0.227 0.689,1.145 0.689,1.44 0,0.066 -0.034,0.099 -0.099,0.099 -0.263,0 -1.278,-0.46 -1.573,-0.46 -0.361,0 -0.944,1.343 -1.239,1.343 -0.098,0 -0.163,-0.131 -0.163,-0.295 L 64.58,9.169 c 0,-0.131 -0.064,-0.263 -0.229,-0.263 -0.394,0 -1.148,-0.033 -1.379,-0.033 -0.164,0 -0.229,-0.032 -0.229,-0.098 -0.001,-0.262 1.312,-1.178 1.312,-1.407 z m -0.953,5.368 c 0.526,0 0.624,1.279 0.724,2.031 0.065,0.394 0.131,0.426 0.295,0.426 0.394,0 1.015,-1.506 1.436,-1.506 0.621,0 2.294,1.736 5.079,1.736 3.96,0 7.696,-2.785 7.696,-7.695 0,-4.749 -3.345,-7.533 -7.959,-7.533 -2.194,0 -3.802,1.081 -4.654,1.081 C 65.202,1.309 64.416,0 64.021,0 c -0.163,0 -0.327,0.325 -0.327,0.883 0,0.361 0,1.506 -0.394,1.506 -0.788,0 -3.832,-2.258 -3.832,-1.441 0,0.754 2.028,3.047 2.028,3.636 0,0.589 -1.996,1.147 -1.996,1.539 0,0.72 2.128,0.851 2.128,1.769 0,0.916 -2.228,1.637 -2.228,2.325 0,0.556 2.228,0.164 2.228,0.851 0,0.687 -1.637,2.98 -1.637,3.633 0,0.165 0.032,0.165 0.162,0.165 0.623,0 2.49,-2.13 2.949,-2.13"
   id="path4225"
   inkscape:connector-curvature="0"
   style="fill:#0f0e9a;fill-opacity:1" />
	<path
   d="m 48.268,70.243 c 0,0.295 -0.099,0.623 -0.361,0.949 -0.358,-0.654 -1.375,-0.982 -1.834,-0.981 -3.373,0 -2.096,4.88 -5.698,4.88 -1.506,0 -1.638,-0.197 -2.193,-0.197 -0.23,0 -0.361,0.099 -0.361,0.295 0,0.853 1.212,2.947 4.585,2.947 3.373,0 6.616,-2.062 6.616,-4.619 0,-0.426 -0.098,-0.881 -0.295,-1.34 0.131,-0.197 0.46,-0.328 0.754,-0.328 0.523,0 0.818,0.592 1.309,0.592 0.525,0 0.918,-0.395 0.918,-0.918 0,-0.428 -0.229,-0.721 -0.621,-0.92 0.262,-0.195 0.458,-0.523 0.458,-0.883 0,-0.559 -0.394,-1.08 -1.05,-1.08 -0.295,0 -0.49,0.1 -0.719,0.324 -0.064,-0.586 -0.393,-1.143 -1.016,-1.143 -0.491,0 -0.853,0.359 -0.853,0.918 0,0.52 0.361,0.948 0.361,1.504"
   id="path4227"
   inkscape:connector-curvature="0"
   style="fill:#0f0e9a;fill-opacity:1" />
	<path
   d="m 30.322,64.154 c 2.62,0.651 3.93,2.06 4.191,3.731 0.262,1.604 0.589,2.916 1.211,3.569 0.819,0.919 2.424,1.733 3.833,1.733 1.179,0 2.127,-0.389 2.127,-1.471 0,-1.18 -1.604,-3.832 -3.962,-3.832 -0.229,0 -0.524,0.034 -0.852,0.034 -0.295,0 -0.721,-0.065 -0.982,-0.295 -0.523,-0.46 -0.688,-2.916 -1.67,-4.389 -1.08,-1.638 -2.259,-2.097 -3.863,-2.097 -1.145,0 -2.424,0.621 -2.424,1.539 0,0.56 0.295,0.952 2.391,1.478 z m 9.137,7.334 c -0.984,0 -2.457,-1.05 -2.457,-1.64 0,-0.492 0.459,-0.754 0.817,-0.754 0.82,0 2.292,1.018 2.292,1.869 0.001,0.229 -0.163,0.525 -0.652,0.525"
   id="path4229"
   inkscape:connector-curvature="0"
   style="fill:#0f0e9a;fill-opacity:1" />
	<path
   d="m 36.445,45.977 c 0,-2.096 4.979,-3.209 4.979,-5.797 0,-0.426 -0.164,-1.178 -0.459,-1.735 1.734,0.949 3.012,2.555 3.012,3.864 0,2.26 -2.357,3.308 -2.357,4.717 0,1.637 2.521,1.899 2.521,3.929 0,1.669 -2.391,3.602 -2.391,5.763 0,1.67 1.18,3.044 2.979,3.274 -0.589,0.131 -1.112,0.229 -1.669,0.229 -3.309,0 -6.714,-2.717 -6.714,-5.96 0,-1.604 0.688,-3.01 1.734,-4.026 0.919,0.786 1.835,1.309 2.425,1.309 0.523,0 0.754,-0.261 0.754,-0.654 10e-4,-1.213 -4.814,-2.325 -4.814,-4.913 z m 10.447,16.538 c -1.123,0.514 -1.571,0.426 -1.571,1.573 0,0.425 -0.099,0.979 -0.099,1.275 0,0.393 0.065,0.623 0.523,0.623 1.18,0 3.047,-1.997 3.047,-3.701 0,-0.46 -0.263,-0.653 -0.558,-0.653 -0.262,0 -0.555,0.522 -1.342,0.883 z m -0.131,-2.359 c 0,-1.473 -3.046,-1.506 -3.046,-3.733 0,-0.558 0.359,-1.506 1.081,-2.523 0.296,1.703 0.981,2.588 2.457,3.146 2.913,1.079 3.307,2.716 3.307,4.454 0,2.948 -2.063,6.615 -7.368,6.615 -4.258,0 -7.304,-3.8 -7.304,-7.009 0,-0.885 0.229,-1.866 0.786,-1.866 0.492,0 0.655,0.392 1.048,0.784 1.475,1.476 3.079,1.867 5.404,1.867 2.096,0.001 3.635,-0.85 3.635,-1.735"
   id="path4231"
   inkscape:connector-curvature="0"
   style="fill:#0f0e9a;fill-opacity:1" />
	<path
   d="m 23.57,60.866 c 0.08,0.684 -0.409,1.301 -1.092,1.381 -0.684,0.08 -1.304,-0.41 -1.382,-1.093 -0.08,-0.685 0.409,-1.304 1.093,-1.384 0.684,-0.08 1.302,0.411 1.381,1.096 z m -6.12,1.288 c 0.139,1.118 1.182,1.966 2.359,1.835 0.425,-0.047 0.819,-0.163 1.082,-0.327 0.262,1.047 1.141,1.721 2.329,1.565 1.206,-0.157 2.026,-1.107 1.896,-2.319 -0.034,-0.326 -0.099,-0.525 -0.196,-0.754 0,0 0.159,-0.017 0.279,-0.039 1.183,-0.224 1.98,-1.173 1.881,-2.319 -0.13,-1.179 -1.188,-2.054 -2.289,-1.918 -0.427,0.052 -0.821,0.215 -1.084,0.444 -0.296,-0.981 -1.219,-1.834 -2.479,-1.626 -1.139,0.189 -1.892,1.155 -1.778,2.38 0.019,0.199 0.065,0.426 0.164,0.654 0,0 -0.193,0.029 -0.326,0.048 -0.956,0.142 -1.993,1.104 -1.838,2.376"
   id="path4233"
   inkscape:connector-curvature="0"
   style="fill:#0f0e9a;fill-opacity:1" />
</g>
</svg>