<?xml version="1.0" encoding="utf-8"?>
<svg xmlns="http://www.w3.org/2000/svg" fill="none" height="100%" overflow="visible" preserveAspectRatio="none" style="display: block;" viewBox="0 0 701 822" width="100%">
<path d="M697.094 285.602C697.417 285.716 697.749 285.777 698.09 285.777C698.676 285.777 699.261 285.602 699.759 285.253C700.537 284.71 701 283.818 701 282.874V207.863C701 206.832 700.45 205.869 699.558 205.354L349.364 0.384803C349.364 0.384803 349.364 0.384803 349.355 0.384803C349.277 0.341075 349.189 0.314839 349.102 0.279857C348.953 0.209892 348.805 0.131183 348.656 0.0962007C348.578 0.0699641 348.49 0.0787097 348.403 0.0612186C348.237 0.0349821 348.071 0 347.905 0C347.87 0 347.844 0.00874552 347.809 0.00874552C347.59 0.00874552 347.372 0.0349821 347.162 0.0962007C347.005 0.139928 346.865 0.209892 346.716 0.279857C346.629 0.314839 346.542 0.341075 346.463 0.384803L1.45929 199.302C1.45929 199.302 1.40686 199.354 1.37191 199.372C1.32821 199.398 1.28452 199.407 1.24957 199.442C1.14471 199.52 1.05733 199.608 0.961208 199.695C0.90004 199.756 0.830134 199.8 0.777704 199.861C0.602939 200.054 0.454389 200.255 0.340792 200.482C0.340792 200.482 0.340792 200.5 0.332054 200.508C0.218456 200.727 0.139812 200.955 0.0873825 201.199C0.069906 201.287 0.069906 201.366 0.0524295 201.453C0.034953 201.575 0.00873825 201.698 0.00873825 201.829V358.732C0.00873825 359.957 0.777704 361.059 1.93115 361.47L530.744 551.606L350.22 657.269L3.906 530.145C3.00596 529.821 2.01854 529.943 1.24083 530.486C0.463127 531.028 0 531.92 0 532.873V612.186C0 613.21 0.541772 614.163 1.42434 614.687L349.015 821.598C349.015 821.598 349.032 821.598 349.041 821.606C349.041 821.606 349.058 821.615 349.067 821.624C349.207 821.703 349.364 821.755 349.513 821.808C349.591 821.834 349.67 821.886 349.749 821.904C349.993 821.974 350.247 822 350.5 822C350.753 822 351.007 821.965 351.252 821.904C351.33 821.878 351.409 821.834 351.487 821.808C351.636 821.755 351.793 821.703 351.933 821.624C351.933 821.624 351.951 821.615 351.959 821.606C351.959 821.606 351.977 821.606 351.986 821.598L699.576 614.687C700.458 614.163 701 613.21 701 612.186V457.006C701 456.962 700.983 456.918 700.983 456.875C700.983 456.831 700.991 456.787 700.983 456.752C700.983 456.673 700.939 456.603 700.93 456.534C700.904 456.385 700.878 456.236 700.825 456.096C700.79 455.991 700.747 455.886 700.694 455.781C700.633 455.65 700.563 455.519 700.476 455.397C700.415 455.3 700.345 455.213 700.266 455.125C700.17 455.012 700.065 454.916 699.951 454.819C699.864 454.741 699.768 454.671 699.672 454.601C699.619 454.566 699.584 454.522 699.532 454.496C699.453 454.452 699.366 454.435 699.287 454.4C699.217 454.365 699.156 454.321 699.086 454.295L171.331 260.546L348.184 158.67L697.103 285.594L697.094 285.602ZM695.18 278.711L350.806 153.44V7.96717L695.18 209.525V278.72V278.711ZM344.995 7.92344V153.79L165.782 257.031L9.80432 201.208L344.995 7.92344ZM5.81094 356.686V205.992L691.292 457.618L537.271 547.767L5.81094 356.686ZM5.81094 537.045L347.59 662.499V813.98L5.81094 610.542V537.045ZM353.401 813.989V662.141L538.023 554.072C538.075 554.072 538.128 554.099 538.18 554.099C538.696 554.099 539.203 553.959 539.657 553.696L695.172 462.096V610.533L353.392 813.98L353.401 813.989Z" fill="var(--fill-0, #007BB8)" id="Vector"/>
</svg>