<?xml version="1.0" encoding="utf-8"?>
<svg xmlns="http://www.w3.org/2000/svg" fill="none" height="100%" overflow="visible" preserveAspectRatio="none" style="display: block;" viewBox="0 0 1373 1608" width="100%">
<g id="Vector" style="mix-blend-mode:color-dodge">
<path d="M1365.35 558.697C1365.98 558.919 1366.63 559.039 1367.3 559.039C1368.45 559.039 1369.59 558.697 1370.57 558.012C1372.09 556.952 1373 555.207 1373 553.359V406.623C1373 404.605 1371.92 402.723 1370.18 401.713L684.275 0.752753C684.275 0.752753 684.275 0.752753 684.258 0.752753C684.104 0.667213 683.933 0.615889 683.762 0.547457C683.471 0.410593 683.18 0.25662 682.889 0.188188C682.735 0.136864 682.564 0.153972 682.392 0.119756C682.067 0.0684321 681.742 0 681.417 0C681.348 0 681.297 0.017108 681.229 0.017108C680.801 0.017108 680.373 0.0684321 679.962 0.188188C679.654 0.273728 679.38 0.410593 679.089 0.547457C678.918 0.615889 678.747 0.667213 678.593 0.752753L2.85821 389.875C2.85821 389.875 2.75552 389.977 2.68706 390.012C2.60148 390.063 2.51591 390.08 2.44745 390.148C2.24207 390.302 2.07092 390.473 1.88265 390.645C1.76285 390.764 1.62593 390.85 1.52324 390.97C1.18094 391.346 0.88998 391.739 0.667485 392.184C0.667485 392.184 0.667485 392.218 0.65037 392.236C0.427875 392.663 0.27384 393.108 0.17115 393.587C0.13692 393.758 0.13692 393.912 0.10269 394.083C0.06846 394.323 0.017115 394.562 0.017115 394.819V701.754C0.017115 704.149 1.52324 706.305 3.78242 707.109L1039.53 1079.05L685.952 1285.75L7.65041 1037.07C5.88756 1036.44 3.95357 1036.68 2.43033 1037.74C0.907095 1038.8 0 1040.54 0 1042.41V1197.56C0 1199.56 1.06113 1201.43 2.78975 1202.45L683.59 1607.21C683.59 1607.21 683.625 1607.21 683.642 1607.23C683.642 1607.23 683.676 1607.25 683.693 1607.26C683.967 1607.42 684.275 1607.52 684.566 1607.62C684.72 1607.68 684.874 1607.78 685.028 1607.81C685.507 1607.95 686.004 1608 686.5 1608C686.996 1608 687.493 1607.93 687.972 1607.81C688.126 1607.76 688.28 1607.68 688.434 1607.62C688.725 1607.52 689.033 1607.42 689.307 1607.26C689.307 1607.26 689.341 1607.25 689.358 1607.23C689.358 1607.23 689.392 1607.23 689.41 1607.21L1370.21 1202.45C1371.94 1201.43 1373 1199.56 1373 1197.56V893.997C1373 893.911 1372.97 893.826 1372.97 893.74C1372.97 893.655 1372.98 893.569 1372.97 893.501C1372.97 893.347 1372.88 893.21 1372.86 893.073C1372.81 892.782 1372.76 892.491 1372.66 892.217C1372.59 892.012 1372.5 891.807 1372.4 891.602C1372.28 891.345 1372.14 891.088 1371.97 890.849C1371.85 890.661 1371.72 890.49 1371.56 890.319C1371.37 890.096 1371.17 889.908 1370.95 889.72C1370.78 889.566 1370.59 889.429 1370.4 889.292C1370.3 889.224 1370.23 889.138 1370.12 889.087C1369.97 889.001 1369.8 888.967 1369.65 888.899C1369.51 888.83 1369.39 888.745 1369.25 888.693L335.574 509.682L681.965 310.391L1365.37 558.68L1365.35 558.697ZM1361.6 545.216L687.099 300.16V15.5854L1361.6 409.874V545.233V545.216ZM675.718 15.4999V300.845L324.706 502.805L19.203 393.604L675.718 15.4999ZM11.3815 697.751V402.962L1353.99 895.194L1052.32 1071.54L11.3815 697.751ZM11.3815 1050.57L680.801 1295.98V1592.31L11.3815 1194.35V1050.57ZM692.182 1592.33V1295.28L1053.79 1083.88C1053.89 1083.88 1053.99 1083.93 1054.1 1083.93C1055.11 1083.93 1056.1 1083.66 1056.99 1083.14L1361.58 903.954V1194.33L692.165 1592.31L692.182 1592.33Z" fill="var(--fill-0, #00101B)" fill-opacity="0.8"/>
</g>
</svg>